<svg width="131" height="30" viewBox="0 0 131 30" fill="none" xmlns="http://www.w3.org/2000/svg">
<g clip-path="url(#clip0_145_429)">
<path d="M38.2388 25.3142L38.2104 25.3425V29.2392L38.2388 29.2674H39.4406C40.6593 29.2674 41.5379 28.3921 41.5379 27.2908C41.5379 26.1896 40.6593 25.3142 39.4406 25.3142H38.2388ZM38.6469 25.7491H39.4406C40.3645 25.7491 41.0334 26.4268 41.0334 27.2908C41.0334 28.1549 40.3645 28.8326 39.4406 28.8326H38.6469V25.7491ZM42.9186 25.3142L42.8903 25.3425V29.2392L42.9186 29.2674H43.2984L43.3268 29.2392V25.3425L43.2984 25.3142H42.9186ZM48.2699 26.0936V25.5966C47.9014 25.3199 47.3913 25.2295 46.8527 25.2295C45.634 25.2295 44.6987 26.1613 44.6987 27.2908C44.6987 28.4486 45.6624 29.3521 46.8811 29.3521C47.3913 29.3521 47.9014 29.211 48.3265 28.9004V27.1271L48.2982 27.0988H46.9944L46.9661 27.1271V27.5111L46.9944 27.5393H47.8901V28.6406C47.5896 28.8157 47.2098 28.8948 46.8811 28.8948C45.9288 28.8948 45.1975 28.2 45.1975 27.2908C45.1975 26.3986 45.9004 25.687 46.8527 25.687C47.3345 25.687 47.8617 25.7886 48.2415 26.1218L48.2699 26.0936ZM49.8371 25.3142L49.8087 25.3425V29.2392L49.8371 29.2674H50.2169L50.2452 29.2392V25.3425L50.2169 25.3142H49.8371ZM51.4981 25.3142L51.4698 25.3425V25.7209L51.4981 25.7491H52.8359V29.2392L52.8642 29.2674H53.2497L53.278 29.2392V25.7491H54.6158L54.6441 25.7209V25.3425L54.6158 25.3142H51.4981ZM56.3957 25.3142L56.3674 25.3425L54.7915 29.2392L54.8199 29.2674H55.2394L55.2677 29.2392L55.6871 28.2058H57.5011L57.9262 29.2392L57.9546 29.2674H58.374L58.4024 29.2392L56.8208 25.3425L56.7925 25.3142H56.3957ZM56.5941 25.9128L57.331 27.7709H55.8629L56.5941 25.9128ZM59.5698 25.3142L59.5471 25.3368V29.2449L59.5698 29.2674H61.8315L61.8542 29.2449V28.8609L61.8315 28.8326H59.9836V25.3368L59.9609 25.3142H59.5698ZM62.8819 27.72L62.8535 27.7483V28.1323L62.8819 28.1606H64.6391L64.6674 28.1323V27.7483L64.6391 27.72H62.8819ZM67.1581 25.3142L67.1298 25.3425L65.5539 29.2392L65.5823 29.2674H66.0017L66.0301 29.2392L66.4496 28.2058H68.2635L68.6886 29.2392L68.717 29.2674H69.1364L69.1647 29.2392L67.5833 25.3425L67.5549 25.3142H67.1581ZM67.3566 25.9128L68.0935 27.7709H66.6253L67.3566 25.9128ZM70.3379 25.3142L70.3095 25.3425V29.2392L70.3379 29.2674H70.7176L70.746 29.2392V25.7491H72.5883L72.6166 25.7209V25.3425L72.5883 25.3142H70.3379ZM73.8718 25.3142L73.8434 25.3425V29.2392L73.8718 29.2674H76.2923L76.3206 29.2392V28.8609L76.2923 28.8326H74.2799V27.3134H75.6688L75.6971 27.2852V26.9011L75.6688 26.873H74.2799V25.7491H76.1222L76.1506 25.7209V25.3425L76.1222 25.3142H73.8718ZM77.6327 25.3142L77.6044 25.3425V29.2392L77.6327 29.2674H78.0125L78.0409 29.2392V27.3134H80.3253V29.2392L80.3536 29.2674H80.7332L80.7615 29.2392V25.3425L80.7332 25.3142H80.3536L80.3253 25.3425V26.873H78.0409V25.3425L78.0125 25.3142H77.6327ZM82.0118 25.3142L81.9835 25.3425V25.7209L82.0118 25.7491H83.3493V29.2392L83.3776 29.2674H83.7635L83.7917 29.2392V25.7491H85.1293L85.1576 25.7209V25.3425L85.1293 25.3142H82.0118ZM89.1835 26.1501V25.6531C88.815 25.3876 88.3615 25.2295 87.8232 25.2295C86.6609 25.2295 85.7257 26.1613 85.7257 27.2908C85.7257 28.4204 86.6609 29.3521 87.8232 29.3521C88.3615 29.3521 88.815 29.1941 89.1835 28.9286V28.4316L89.1552 28.4034C88.7757 28.714 88.3049 28.8948 87.8232 28.8948C86.9446 28.8948 86.2248 28.1831 86.2248 27.2908C86.2248 26.3986 86.9446 25.687 87.8232 25.687C88.3049 25.687 88.7757 25.8677 89.1552 26.1783L89.1835 26.1501ZM90.3199 25.3142L90.2916 25.3425V25.7209L90.3199 25.7491H91.6574V29.2392L91.6857 29.2674H92.0716L92.0999 29.2392V25.7491H93.4374L93.4657 25.7209V25.3425L93.4374 25.3142H90.3199ZM94.7191 25.3142L94.6909 25.3425V29.2392L94.7191 29.2674H96.0119C96.7765 29.2674 97.3439 28.7535 97.3439 28.0759C97.3439 27.5789 97.0602 27.1723 96.4425 27.0029C96.6917 26.8616 96.8614 26.6414 96.8614 26.3082C96.8614 25.7096 96.4143 25.3142 95.6205 25.3142H94.7191ZM95.127 25.7491H95.6205C96.1361 25.7491 96.3632 25.9637 96.3632 26.3082C96.3632 26.6979 96.085 26.9011 95.6205 26.9011H95.127V25.7491ZM95.127 27.3417H96.0119C96.5219 27.3417 96.8449 27.6467 96.8449 28.0759C96.8449 28.5276 96.5219 28.8326 96.0119 28.8326H95.127V27.3417ZM100.568 25.2295C99.4107 25.2295 98.4701 26.1557 98.4701 27.2908C98.4701 28.426 99.4107 29.3521 100.568 29.3521C101.724 29.3521 102.664 28.426 102.664 27.2908C102.664 26.1557 101.724 25.2295 100.568 25.2295ZM100.568 25.687C101.446 25.687 102.16 26.4042 102.16 27.2908C102.16 28.1775 101.446 28.8948 100.568 28.8948C99.6889 28.8948 98.9683 28.1775 98.9683 27.2908C98.9683 26.4042 99.6889 25.687 100.568 25.687Z" fill="#1C1C1C"/>
<path fill-rule="evenodd" clip-rule="evenodd" d="M14.5384 0.0292969C16.1108 0.0292969 17.6248 0.277967 19.0431 0.737992L16.2904 5.60251H19.5436L21.5903 1.84426C26.0554 4.31641 29.0769 9.0635 29.0769 14.5137C29.0769 22.5133 22.5678 28.9981 14.5384 28.9981C6.50908 28.9981 0 22.5133 0 14.5137C0 6.51416 6.50908 0.0292969 14.5384 0.0292969ZM13.1813 8.27625L13.2649 8.19295H15.6073L15.6909 8.27625L20.1247 19.7778L20.041 19.8612H17.4477L17.364 19.7778L16.5275 17.4442H12.3447L11.5082 19.7778L11.4245 19.8612H8.8312L8.7475 19.7778L13.1813 8.27625ZM15.7746 15.1105L14.4361 11.1933L13.0976 15.1105H15.7746Z" fill="#672C1D"/>
<path d="M41.9377 0.0292969C43.3081 0.0292969 44.3562 0.34876 45.0823 0.987351C45.8081 1.62594 46.1713 2.58977 46.1713 3.87821V9.18533H44.1153V8.08326C43.8482 8.47888 43.4678 8.78117 42.9742 8.99029C42.4806 9.1995 41.8853 9.3041 41.1885 9.3041C40.4916 9.3041 39.8819 9.18822 39.3593 8.95655C38.8366 8.72472 38.4331 8.40254 38.1484 7.99001C37.8639 7.57732 37.7217 7.11124 37.7217 6.59105C37.7217 5.77726 38.0323 5.12452 38.6536 4.63269C39.2752 4.14107 40.2537 3.89525 41.5891 3.89525H43.9935V3.75956C43.9935 3.12659 43.7989 2.64058 43.4097 2.30135C43.0207 1.96228 42.4428 1.79266 41.6764 1.79266C41.1537 1.79266 40.6398 1.87192 40.1344 2.03013C39.6293 2.18832 39.2025 2.40874 38.8541 2.69138L38.0003 1.14844C38.4882 0.786706 39.0748 0.509686 39.76 0.317717C40.4453 0.125442 41.171 0.0292969 41.9377 0.0292969ZM41.6415 7.761C42.1873 7.761 42.6723 7.63949 43.0962 7.39654C43.5202 7.15351 43.8192 6.80589 43.9935 6.35382V5.30248H41.7461C40.4916 5.30248 39.8645 5.7039 39.8645 6.50641C39.8645 6.8906 40.0213 7.19595 40.3348 7.42198C40.6484 7.64802 41.0841 7.761 41.6415 7.761ZM52.739 5.55686H51.0491V9.18533H48.8716V0.131236H51.0491V3.79348H52.7912L55.5439 0.131236H57.8785L54.4986 4.48866L58.105 9.18533H55.5439L52.739 5.55686ZM69.5271 7.38801L70.1693 9.17342L67.8089 9.18533H59.6379V0.131236H61.8156V7.38801H66.2581V0.131236H68.4357V7.38801H69.5271ZM80.4914 4.70905C80.4914 4.85605 80.4804 5.06525 80.4568 5.33646H73.1571C73.2848 6.00353 73.619 6.53178 74.1589 6.92184C74.6989 7.31183 75.3699 7.50686 76.1711 7.50686C77.1929 7.50686 78.035 7.17888 78.6973 6.5234L79.8643 7.82888C79.4462 8.31509 78.9181 8.68229 78.2789 8.9311C77.64 9.17969 76.9202 9.3041 76.1189 9.3041C75.0965 9.3041 74.1963 9.10617 73.4184 8.71055C72.6399 8.31509 72.0392 7.76397 71.6154 7.05745C71.191 6.35108 70.9793 5.55123 70.9793 4.65812C70.9793 3.77644 71.1857 2.98238 71.598 2.27595C72.0097 1.56951 72.5818 1.01837 73.3135 0.622711C74.0453 0.227209 74.87 0.0292969 75.7875 0.0292969C76.6937 0.0292969 77.5036 0.22432 78.2181 0.614193C78.9323 1.00439 79.4894 1.55246 79.891 2.25906C80.291 2.9655 80.4914 3.78222 80.4914 4.70905ZM75.7875 1.72498C75.0905 1.72498 74.5011 1.92562 74.0192 2.32675C73.5374 2.7282 73.244 3.26229 73.1397 3.92917H78.4185C78.3249 3.27354 78.0409 2.74219 77.5645 2.33527C77.0886 1.92835 76.4958 1.72498 75.7875 1.72498ZM82.8781 0.131236H85.0557V3.81052H89.7418V0.131236H91.9202V9.18533H89.7418V5.60775H85.0557V9.18533H82.8781V0.131236ZM102.223 1.92835H98.9584V9.18533H96.78V1.92835H93.5053V0.131236H102.209L102.223 1.92835Z" fill="#1C1C1C"/>
<path d="M128.493 20.6916H125.503L128.253 13.543H131.243L128.493 20.6916Z" fill="#672C1D"/>
<path d="M38.3921 13.4028H40.3228V15.9997H43.2374V13.4028H45.1806V20.056H43.2374V17.5703H40.3228V20.056H38.3921V13.4028ZM49.6399 13.304C50.6779 13.304 51.4752 13.5492 52.0316 14.0398C52.5881 14.5303 52.8662 15.2702 52.8662 16.2595V20.056H51.0476V19.2275C50.6821 19.8457 50.0012 20.1549 49.0047 20.1549C48.4899 20.1549 48.0436 20.0683 47.6657 19.8952C47.2879 19.7221 46.9993 19.483 46.7999 19.1779C46.6008 18.8729 46.5011 18.5267 46.5011 18.1392C46.5011 17.5209 46.7357 17.0344 47.2049 16.6798C47.6741 16.3254 48.3986 16.1482 49.3784 16.1482H50.923C50.923 15.7279 50.7943 15.404 50.5368 15.1775C50.2793 14.9506 49.8932 14.8374 49.3784 14.8374C49.0213 14.8374 48.6705 14.893 48.3259 15.0044C47.9812 15.1155 47.6887 15.2661 47.4477 15.4556L46.7502 14.1078C47.1155 13.8521 47.5536 13.6542 48.0642 13.5142C48.575 13.374 49.1003 13.304 49.6399 13.304ZM49.4903 18.8566C49.8228 18.8566 50.1174 18.7802 50.375 18.6277C50.6324 18.4752 50.815 18.2504 50.923 17.9537V17.2736H49.5901C48.793 17.2736 48.3945 17.5332 48.3945 18.0527C48.3945 18.3001 48.492 18.4956 48.6871 18.6402C48.8823 18.7844 49.1501 18.8566 49.4903 18.8566ZM62.0338 13.304C62.6566 13.304 63.2233 13.4462 63.734 13.7306C64.2447 14.015 64.6454 14.4147 64.9361 14.9301C65.2267 15.4453 65.3721 16.0453 65.3721 16.7295C65.3721 17.4136 65.2267 18.0134 64.9361 18.5287C64.6454 19.0439 64.2447 19.4439 63.734 19.7282C63.2233 20.0127 62.6566 20.1549 62.0338 20.1549C61.1785 20.1549 60.5059 19.8869 60.0159 19.3511V22.4552H58.0729V13.4028H59.9287V14.1695C60.4103 13.5926 61.112 13.304 62.0338 13.304ZM61.6974 18.5721C62.1958 18.5721 62.6047 18.4051 62.9244 18.0712C63.2441 17.7373 63.404 17.2901 63.404 16.7295C63.404 16.1688 63.2441 15.7217 62.9244 15.3877C62.6047 15.0538 62.1958 14.8868 61.6974 14.8868C61.1992 14.8868 60.7903 15.0538 60.4706 15.3877C60.1509 15.7217 59.991 16.1688 59.991 16.7295C59.991 17.2901 60.1509 17.7373 60.4706 18.0712C60.7903 18.4051 61.1992 18.5721 61.6974 18.5721ZM73.2446 16.7541C73.2446 16.7789 73.2319 16.9521 73.2072 17.2736H68.1374C68.2287 17.6858 68.4448 18.0115 68.785 18.2504C69.1252 18.4896 69.5488 18.6092 70.0557 18.6092C70.4046 18.6092 70.714 18.5577 70.9835 18.4545C71.2536 18.3514 71.5044 18.1887 71.7371 17.9661L72.771 19.079C72.1401 19.7963 71.2182 20.1549 70.0056 20.1549C69.25 20.1549 68.5816 20.0086 68.0004 19.7159C67.4189 19.4233 66.9707 19.0172 66.6551 18.4978C66.3395 17.9784 66.1817 17.389 66.1817 16.7295C66.1817 16.0781 66.3375 15.4908 66.6488 14.9672C66.9602 14.4438 67.3879 14.0356 67.9318 13.743C68.4756 13.4501 69.0838 13.304 69.7568 13.304C70.4125 13.304 71.0061 13.4441 71.5378 13.7243C72.0693 14.0047 72.4868 14.4066 72.7897 14.9301C73.0925 15.4537 73.2446 16.0616 73.2446 16.7541ZM69.7689 14.7633C69.3286 14.7633 68.9598 14.8868 68.6603 15.1342C68.3615 15.3815 68.1788 15.7195 68.112 16.1482H71.413C71.347 15.7279 71.1642 15.3918 70.8654 15.1403C70.5666 14.8889 70.2011 14.7633 69.7689 14.7633ZM78.9998 16.5934C79.3974 16.717 79.707 16.9067 79.9271 17.1623C80.1471 17.4178 80.2571 17.7229 80.2571 18.0774C80.2571 18.4978 80.1117 18.8667 79.821 19.1841C79.5302 19.5016 79.1318 19.7469 78.6249 19.92C78.119 20.0931 77.5461 20.1797 76.9064 20.1797C76.3835 20.1797 75.8686 20.1261 75.3623 20.0189C74.8554 19.9118 74.3858 19.7509 73.9543 19.5367L74.4772 18.1887C75.1835 18.5267 75.964 18.6957 76.819 18.6957C77.2759 18.6957 77.6354 18.6277 77.8969 18.4917C78.1583 18.3557 78.2891 18.1638 78.2891 17.9165C78.2891 17.7022 78.1977 17.5395 78.0149 17.4281C77.8322 17.3168 77.5667 17.2613 77.2179 17.2613H75.8479V16.0616H77.0438C77.3839 16.0616 77.6454 16.0081 77.8282 15.9008C78.011 15.7938 78.1023 15.637 78.1023 15.431C78.1023 15.2165 77.9883 15.0516 77.7595 14.9363C77.5314 14.8208 77.2052 14.7633 76.7817 14.7633C76.134 14.7633 75.4283 14.9156 74.6639 15.2208L74.1911 13.8851C75.1208 13.4812 76.026 13.2793 76.9064 13.2793C77.5127 13.2793 78.0543 13.3534 78.5319 13.5017C79.0092 13.6502 79.3848 13.8666 79.6591 14.151C79.9334 14.4354 80.0709 14.7671 80.0709 15.1466C80.0709 15.4599 79.9742 15.7423 79.784 15.9937C79.5931 16.2452 79.3306 16.445 78.9998 16.5934ZM88.379 13.4028L85.3511 20.4641C85.0446 21.2309 84.6642 21.7708 84.2124 22.0842C83.7589 22.3975 83.2135 22.5541 82.5739 22.5541C82.2249 22.5541 81.8799 22.5005 81.5397 22.3932C81.2002 22.2862 80.9212 22.1377 80.7059 21.9481L81.4155 20.5755C81.5656 20.7075 81.7377 20.8103 81.9326 20.8847C82.1275 20.9588 82.32 20.9958 82.5118 20.9958C82.7774 20.9958 82.9935 20.932 83.1593 20.8043C83.3259 20.6763 83.4752 20.4641 83.608 20.1674L83.6324 20.1055L80.7302 13.4028H82.7357L84.6171 17.9165L86.5094 13.4028H88.379ZM95.2671 13.4028V20.056H93.3229V14.9857H91.2058L91.1437 16.1606C91.1099 17.0344 91.0274 17.7601 90.8946 18.337C90.7617 18.9142 90.5456 19.3676 90.247 19.6975C89.9484 20.0271 89.5327 20.1921 89.0014 20.1921C88.7193 20.1921 88.3829 20.1425 87.9924 20.0436L88.0922 18.4608C88.225 18.4772 88.3201 18.4855 88.379 18.4855C88.669 18.4855 88.8867 18.3802 89.0321 18.1701C89.1775 17.9599 89.2749 17.6921 89.3252 17.3663C89.3755 17.0406 89.4116 16.61 89.4376 16.0741L89.5366 13.4028H95.2671ZM100.759 15.5298C101.631 15.5382 102.301 15.7339 102.765 16.1172C103.23 16.5006 103.463 17.0427 103.463 17.7435C103.463 18.4772 103.204 19.0481 102.685 19.4563C102.165 19.8642 101.437 20.0683 100.498 20.0683L97.1351 20.056V13.4028H99.0652V15.5298H100.759ZM100.324 18.6957C100.697 18.704 100.983 18.6256 101.183 18.4608C101.383 18.2958 101.482 18.0484 101.482 17.7188C101.482 17.3972 101.384 17.1623 101.19 17.0138C100.994 16.8655 100.705 16.787 100.324 16.7789L99.0652 16.7664V18.6957H100.324ZM109.691 14.9857H107.424V20.056H105.493V14.9857H103.226V13.4028H109.691V14.9857ZM113.328 13.304C114.366 13.304 115.163 13.5492 115.72 14.0398C116.276 14.5303 116.554 15.2702 116.554 16.2595V20.056H114.735V19.2275C114.371 19.8457 113.689 20.1549 112.693 20.1549C112.178 20.1549 111.732 20.0683 111.354 19.8952C110.976 19.7221 110.687 19.483 110.488 19.1779C110.289 18.8729 110.189 18.5267 110.189 18.1392C110.189 17.5209 110.424 17.0344 110.892 16.6798C111.362 16.3254 112.086 16.1482 113.066 16.1482H114.611C114.611 15.7279 114.482 15.404 114.225 15.1775C113.967 14.9506 113.582 14.8374 113.066 14.8374C112.709 14.8374 112.359 14.893 112.014 15.0044C111.669 15.1155 111.376 15.2661 111.135 15.4556L110.438 14.1078C110.803 13.8521 111.241 13.6542 111.752 13.5142C112.263 13.374 112.788 13.304 113.328 13.304ZM113.178 18.8566C113.511 18.8566 113.806 18.7802 114.063 18.6277C114.32 18.4752 114.503 18.2504 114.611 17.9537V17.2736H113.278C112.481 17.2736 112.082 17.5332 112.082 18.0527C112.082 18.3001 112.18 18.4956 112.375 18.6402C112.57 18.7844 112.838 18.8566 113.178 18.8566ZM123.584 14.9857H121.612V20.056H119.68V14.9857H117.413V13.4028H124.172L123.584 14.9857Z" fill="#1C1C1C"/>
</g>
<defs>
<clipPath id="clip0_145_429">
<rect width="131" height="30" fill="white"/>
</clipPath>
</defs>
</svg>
