<svg width="372" height="206" viewBox="0 0 372 206" fill="none" xmlns="http://www.w3.org/2000/svg">
<mask id="mask0_145_1334" style="mask-type:alpha" maskUnits="userSpaceOnUse" x="-255" y="0" width="627" height="308">
<path d="M325.036 261.986C314.286 240 305.003 217.413 289.7 197.988C261.826 162.607 217.969 135.395 176.181 119.622C147.199 108.682 115.744 104.288 87.7084 120.188C77.405 126.032 69.2816 133.749 62.3434 143.273C57.4997 149.922 54.0963 157.862 48.0471 163.604C34.7997 176.178 17.4026 164.91 5.6965 155.931C-26.391 131.319 -52.4216 100.653 -87.144 79.109C-121.751 57.6366 -168.718 34.6901 -208.767 52.9166" stroke="#EFEFEF" stroke-width="92" stroke-linecap="round"/>
</mask>
<g mask="url(#mask0_145_1334)">
<path d="M330.716 10.4533L334.156 -5.19238" stroke="#EFEFEF" stroke-width="4.8058"/>
<path d="M4.98759 37.2541L8.42725 21.6084" stroke="#EFEFEF" stroke-width="4.8058"/>
<path d="M-13.321 8.62578L2.32471 12.0654" stroke="#EFEFEF" stroke-width="4.8058"/>
<path d="M11.867 5.96209L15.3066 -9.68359" stroke="#EFEFEF" stroke-width="4.8058"/>
<path d="M17.97 15.5047L33.6157 18.9443" stroke="#EFEFEF" stroke-width="4.8058"/>
<path d="M66.0057 50.6691L69.4453 35.0234" stroke="#EFEFEF" stroke-width="4.8058"/>
<path d="M47.6971 22.0408L63.3428 25.4805" stroke="#EFEFEF" stroke-width="4.8058"/>
<path d="M72.8851 19.3771L76.3247 3.73145" stroke="#EFEFEF" stroke-width="4.8058"/>
<path d="M78.9881 28.9197L94.6338 32.3594" stroke="#EFEFEF" stroke-width="4.8058"/>
<path d="M127.024 64.0832L130.463 48.4375" stroke="#EFEFEF" stroke-width="4.8058"/>
<path d="M108.715 35.4549L124.361 38.8945" stroke="#EFEFEF" stroke-width="4.8058"/>
<path d="M133.903 32.7912L137.343 17.1455" stroke="#EFEFEF" stroke-width="4.8058"/>
<path d="M140.006 42.3338L155.652 45.7734" stroke="#EFEFEF" stroke-width="4.8058"/>
<path d="M188.042 77.4982L191.481 61.8525" stroke="#EFEFEF" stroke-width="4.8058"/>
<path d="M169.733 48.8699L185.379 52.3096" stroke="#EFEFEF" stroke-width="4.8058"/>
<path d="M194.921 46.2062L198.361 30.5605" stroke="#EFEFEF" stroke-width="4.8058"/>
<path d="M201.024 55.7488L216.67 59.1885" stroke="#EFEFEF" stroke-width="4.8058"/>
<path d="M249.06 90.9133L252.5 75.2676" stroke="#EFEFEF" stroke-width="4.8058"/>
<path d="M230.752 62.285L246.397 65.7246" stroke="#EFEFEF" stroke-width="4.8058"/>
<path d="M255.94 59.6213L259.379 43.9756" stroke="#EFEFEF" stroke-width="4.8058"/>
<path d="M262.043 69.1639L277.688 72.6035" stroke="#EFEFEF" stroke-width="4.8058"/>
<path d="M310.079 104.327L313.519 88.6816" stroke="#EFEFEF" stroke-width="4.8058"/>
<path d="M291.77 75.699L307.416 79.1387" stroke="#EFEFEF" stroke-width="4.8058"/>
<path d="M316.958 73.0353L320.398 57.3896" stroke="#EFEFEF" stroke-width="4.8058"/>
<path d="M323.061 82.5779L338.707 86.0176" stroke="#EFEFEF" stroke-width="4.8058"/>
<path d="M371.097 117.742L374.537 102.097" stroke="#EFEFEF" stroke-width="4.8058"/>
<path d="M352.788 89.1141L368.434 92.5537" stroke="#EFEFEF" stroke-width="4.8058"/>
<path d="M-2.66766 109.38L12.978 112.819" stroke="#EFEFEF" stroke-width="4.8058"/>
<path d="M45.368 144.543L48.8076 128.897" stroke="#EFEFEF" stroke-width="4.8058"/>
<path d="M27.0594 115.915L42.7051 119.354" stroke="#EFEFEF" stroke-width="4.8058"/>
<path d="M52.2474 113.251L55.687 97.6055" stroke="#EFEFEF" stroke-width="4.8058"/>
<path d="M58.3504 122.794L73.9961 126.233" stroke="#EFEFEF" stroke-width="4.8058"/>
<path d="M106.386 157.958L109.826 142.312" stroke="#EFEFEF" stroke-width="4.8058"/>
<path d="M88.0775 129.33L103.723 132.77" stroke="#EFEFEF" stroke-width="4.8058"/>
<path d="M113.265 126.666L116.705 111.021" stroke="#EFEFEF" stroke-width="4.8058"/>
<path d="M119.368 136.21L135.014 139.649" stroke="#EFEFEF" stroke-width="4.8058"/>
<path d="M167.404 171.372L170.844 155.727" stroke="#EFEFEF" stroke-width="4.8058"/>
<path d="M149.096 142.744L164.741 146.184" stroke="#EFEFEF" stroke-width="4.8058"/>
<path d="M174.283 140.08L177.723 124.435" stroke="#EFEFEF" stroke-width="4.8058"/>
<path d="M180.387 149.624L196.032 153.063" stroke="#EFEFEF" stroke-width="4.8058"/>
<path d="M228.422 184.787L231.862 169.142" stroke="#EFEFEF" stroke-width="4.8058"/>
<path d="M210.114 156.159L225.759 159.599" stroke="#EFEFEF" stroke-width="4.8058"/>
<path d="M235.302 153.495L238.741 137.85" stroke="#EFEFEF" stroke-width="4.8058"/>
<path d="M241.405 163.039L257.05 166.479" stroke="#EFEFEF" stroke-width="4.8058"/>
<path d="M289.44 198.201L292.88 182.556" stroke="#EFEFEF" stroke-width="4.8058"/>
<path d="M271.132 169.573L286.777 173.013" stroke="#EFEFEF" stroke-width="4.8058"/>
<path d="M296.32 166.909L299.759 151.264" stroke="#EFEFEF" stroke-width="4.8058"/>
<path d="M302.423 176.453L318.068 179.893" stroke="#EFEFEF" stroke-width="4.8058"/>
<path d="M350.459 211.616L353.898 195.971" stroke="#EFEFEF" stroke-width="4.8058"/>
<path d="M332.15 182.988L347.796 186.428" stroke="#EFEFEF" stroke-width="4.8058"/>
<path d="M357.338 180.324L360.778 164.679" stroke="#EFEFEF" stroke-width="4.8058"/>
<path d="M363.441 189.868L379.087 193.308" stroke="#EFEFEF" stroke-width="4.8058"/>
<path d="M31.6092 207.126L35.0488 191.48" stroke="#EFEFEF" stroke-width="4.8058"/>
<path d="M92.6272 220.54L96.0669 204.895" stroke="#EFEFEF" stroke-width="4.8058"/>
<path d="M106.834 10.4396L110.274 -5.20605" stroke="#EFEFEF" stroke-width="4.8058"/>
<path d="M167.852 23.8537L171.292 8.20801" stroke="#EFEFEF" stroke-width="4.8058"/>
<path d="M149.543 -4.77462L165.189 -1.33496" stroke="#EFEFEF" stroke-width="4.8058"/>
<path d="M180.835 2.10429L196.48 5.54395" stroke="#EFEFEF" stroke-width="4.8058"/>
<path d="M228.87 37.2687L232.31 21.623" stroke="#EFEFEF" stroke-width="4.8058"/>
<path d="M210.562 8.64042L226.208 12.0801" stroke="#EFEFEF" stroke-width="4.8058"/>
<path d="M235.75 5.97674L239.189 -9.66895" stroke="#EFEFEF" stroke-width="4.8058"/>
<path d="M241.853 15.5193L257.499 18.959" stroke="#EFEFEF" stroke-width="4.8058"/>
<path d="M289.888 50.6838L293.328 35.0381" stroke="#EFEFEF" stroke-width="4.8058"/>
<path d="M271.58 22.0555L287.226 25.4951" stroke="#EFEFEF" stroke-width="4.8058"/>
<path d="M296.768 19.3918L300.208 3.74609" stroke="#EFEFEF" stroke-width="4.8058"/>
<path d="M302.871 28.9344L318.517 32.374" stroke="#EFEFEF" stroke-width="4.8058"/>
<path d="M350.907 64.0978L354.346 48.4521" stroke="#EFEFEF" stroke-width="4.8058"/>
<path d="M332.598 35.4695L348.244 38.9092" stroke="#EFEFEF" stroke-width="4.8058"/>
<path d="M357.786 32.8058L361.226 17.1602" stroke="#EFEFEF" stroke-width="4.8058"/>
<path d="M363.889 42.3484L379.535 45.7881" stroke="#EFEFEF" stroke-width="4.8058"/>
<path d="M25.178 90.8986L28.6177 75.2529" stroke="#EFEFEF" stroke-width="4.8058"/>
<path d="M6.86896 62.2703L22.5146 65.71" stroke="#EFEFEF" stroke-width="4.8058"/>
<path d="M32.0574 59.6066L35.4971 43.9609" stroke="#EFEFEF" stroke-width="4.8058"/>
<path d="M38.1605 69.1492L53.8062 72.5889" stroke="#EFEFEF" stroke-width="4.8058"/>
<path d="M86.1961 104.314L89.6357 88.668" stroke="#EFEFEF" stroke-width="4.8058"/>
<path d="M67.887 75.6853L83.5327 79.125" stroke="#EFEFEF" stroke-width="4.8058"/>
<path d="M93.0755 73.0217L96.5151 57.376" stroke="#EFEFEF" stroke-width="4.8058"/>
<path d="M99.1785 82.5643L114.824 86.0039" stroke="#EFEFEF" stroke-width="4.8058"/>
<path d="M147.214 117.728L150.654 102.082" stroke="#EFEFEF" stroke-width="4.8058"/>
<path d="M128.905 89.0994L144.551 92.5391" stroke="#EFEFEF" stroke-width="4.8058"/>
<path d="M154.094 86.4357L157.533 70.79" stroke="#EFEFEF" stroke-width="4.8058"/>
<path d="M160.197 95.9783L175.842 99.418" stroke="#EFEFEF" stroke-width="4.8058"/>
<path d="M208.232 131.143L211.672 115.497" stroke="#EFEFEF" stroke-width="4.8058"/>
<path d="M189.924 102.514L205.569 105.954" stroke="#EFEFEF" stroke-width="4.8058"/>
<path d="M215.112 99.8508L218.551 84.2051" stroke="#EFEFEF" stroke-width="4.8058"/>
<path d="M221.215 109.393L236.86 112.833" stroke="#EFEFEF" stroke-width="4.8058"/>
<path d="M269.25 144.557L272.69 128.911" stroke="#EFEFEF" stroke-width="4.8058"/>
<path d="M250.942 115.929L266.587 119.368" stroke="#EFEFEF" stroke-width="4.8058"/>
<path d="M276.13 113.265L279.569 97.6191" stroke="#EFEFEF" stroke-width="4.8058"/>
<path d="M282.233 122.807L297.878 126.247" stroke="#EFEFEF" stroke-width="4.8058"/>
<path d="M330.269 157.972L333.708 142.326" stroke="#EFEFEF" stroke-width="4.8058"/>
<path d="M311.96 129.344L327.606 132.783" stroke="#EFEFEF" stroke-width="4.8058"/>
<path d="M337.148 126.68L340.588 111.034" stroke="#EFEFEF" stroke-width="4.8058"/>
<path d="M343.251 136.222L358.897 139.662" stroke="#EFEFEF" stroke-width="4.8058"/>
<path d="M4.54033 184.773L7.97998 169.127" stroke="#EFEFEF" stroke-width="4.8058"/>
<path d="M-13.7687 156.144L1.87695 159.584" stroke="#EFEFEF" stroke-width="4.8058"/>
<path d="M11.4197 153.481L14.8594 137.835" stroke="#EFEFEF" stroke-width="4.8058"/>
<path d="M17.5223 163.023L33.168 166.463" stroke="#EFEFEF" stroke-width="4.8058"/>
<path d="M65.5584 198.188L68.998 182.542" stroke="#EFEFEF" stroke-width="4.8058"/>
<path d="M47.2493 169.559L62.895 172.999" stroke="#EFEFEF" stroke-width="4.8058"/>
<path d="M72.4378 166.896L75.8774 151.25" stroke="#EFEFEF" stroke-width="4.8058"/>
<path d="M78.5408 176.438L94.1865 179.878" stroke="#EFEFEF" stroke-width="4.8058"/>
<path d="M126.576 211.602L130.016 195.956" stroke="#EFEFEF" stroke-width="4.8058"/>
<path d="M108.267 182.973L123.913 186.413" stroke="#EFEFEF" stroke-width="4.8058"/>
<path d="M133.456 180.31L136.896 164.664" stroke="#EFEFEF" stroke-width="4.8058"/>
<path d="M139.559 189.852L155.205 193.292" stroke="#EFEFEF" stroke-width="4.8058"/>
<path d="M169.286 196.388L184.932 199.828" stroke="#EFEFEF" stroke-width="4.8058"/>
<path d="M194.474 193.725L197.914 178.079" stroke="#EFEFEF" stroke-width="4.8058"/>
<path d="M200.577 203.267L216.223 206.707" stroke="#EFEFEF" stroke-width="4.8058"/>
<path d="M255.492 207.14L258.932 191.494" stroke="#EFEFEF" stroke-width="4.8058"/>
<path d="M316.51 220.554L319.95 204.908" stroke="#EFEFEF" stroke-width="4.8058"/>
</g>
</svg>
