<svg width="14" height="14" viewBox="0 0 14 14" fill="none" xmlns="http://www.w3.org/2000/svg">
  <path d="M4.66667 13.9997C2.09222 13.9997 0 11.9075 0 9.33301H4.66667V13.9997Z" fill="#672C1D" />
  <path d="M4.6665 4.66699C7.24095 4.66699 9.33317 6.75921 9.33317 9.33366H4.6665V4.66699Z" fill="#672C1D" />
  <path d="M0 9.33366C0 6.75921 2.09222 4.66699 4.66667 4.66699V9.33366H0Z" fill="#672C1D" />
  <path d="M9.33317 9.33301C9.33317 11.9075 7.24095 13.9997 4.6665 13.9997V9.33301H9.33317Z" fill="#672C1D" />
  <path opacity="0.39" d="M9.3335 0C11.9079 0 14.0002 2.09222 14.0002 4.66667H9.3335V0Z" fill="#672C1D" />
  <path opacity="0.39" d="M4.6665 4.66667C4.6665 2.09222 6.75873 0 9.33317 0V4.66667H4.6665Z" fill="#672C1D" />
  <path opacity="0.39" d="M14.0002 4.66699C14.0002 7.24144 11.9079 9.33366 9.3335 9.33366V4.66699H14.0002Z" fill="#672C1D" />
</svg>