<svg width="125" height="19" viewBox="0 0 125 19" fill="none" xmlns="http://www.w3.org/2000/svg">
<path d="M0 18.3525V0.247529H6.7691C8.24655 0.247529 9.47055 0.503897 10.4411 1.01663C11.4116 1.52937 12.138 2.2307 12.6202 3.12063C13.1024 4.00466 13.3435 5.00067 13.3435 6.10865C13.3435 7.22253 13.0993 8.22443 12.6109 9.11435C12.1287 9.99838 11.3993 10.6997 10.4226 11.2183C9.45201 11.7311 8.2311 11.9875 6.75982 11.9875H2.10491V9.67129H6.50019C7.43364 9.67129 8.19092 9.51806 8.77201 9.2116C9.3531 8.89924 9.77964 8.47491 10.0516 7.93859C10.3236 7.40228 10.4596 6.7923 10.4596 6.10865C10.4596 5.425 10.3236 4.81797 10.0516 4.28755C9.77964 3.75713 9.35001 3.34163 8.76274 3.04107C8.18164 2.74049 7.4151 2.59021 6.4631 2.59021H2.86528V18.3525H0Z" fill="#222222"/>
<path d="M27.6696 18.3525V0.247529H39.5758V2.59905H30.5348V8.1154H38.9545V10.4581H30.5348V16.0009H39.687V18.3525H27.6696Z" fill="#222222"/>
<path d="M70.1431 6.13517H67.25C67.1387 5.54582 66.9316 5.02719 66.6287 4.57928C66.3258 4.13137 65.9549 3.75124 65.516 3.43888C65.077 3.12652 64.5856 2.89078 64.0416 2.73165C63.5038 2.57253 62.932 2.49297 62.3261 2.49297C61.232 2.49297 60.2521 2.75523 59.3867 3.27975C58.5274 3.80428 57.8474 4.57338 57.3467 5.58707C56.8521 6.60076 56.6049 7.8384 56.6049 9.3C56.6049 10.7734 56.8521 12.0169 57.3467 13.0306C57.8474 14.0443 58.5305 14.8105 59.396 15.3291C60.2614 15.8477 61.235 16.107 62.3169 16.107C62.9165 16.107 63.4852 16.0304 64.023 15.8772C64.567 15.7181 65.0585 15.4853 65.4974 15.1788C65.9363 14.8723 66.3072 14.4981 66.6101 14.0561C66.9192 13.6082 67.1325 13.0954 67.25 12.5179L70.1431 12.5267C69.9885 13.4166 69.6887 14.2358 69.2436 14.9843C68.8047 15.7269 68.2391 16.3693 67.5467 16.9115C66.8605 17.4478 66.0754 17.8633 65.1914 18.158C64.3074 18.4527 63.343 18.6 62.2983 18.6C60.6539 18.6 59.1889 18.2287 57.903 17.4861C56.6172 16.7376 55.6034 15.668 54.8616 14.2771C54.1259 12.8862 53.7581 11.2272 53.7581 9.3C53.7581 7.36692 54.129 5.70789 54.8709 4.32291C55.6127 2.93203 56.6265 1.8653 57.9123 1.12272C59.1981 0.37424 60.6601 0 62.2983 0C63.306 0 64.2456 0.138498 65.1172 0.415495C65.995 0.686597 66.7832 1.08736 67.4818 1.61778C68.1803 2.1423 68.7583 2.7847 69.2158 3.54496C69.6732 4.29933 69.9823 5.16274 70.1431 6.13517Z" fill="#222222"/>
<path d="M84.5387 18.3525V0.247529H96.4449V2.59905H87.404V8.1154H95.8236V10.4581H87.404V16.0009H96.5562V18.3525H84.5387Z" fill="#222222"/>
<path d="M110.303 2.59905V0.247529H125V2.59905H119.075V18.3525H116.219V2.59905H110.303Z" fill="#222222"/>
</svg>
