<svg width="125" height="6" viewBox="0 0 125 6" fill="none" xmlns="http://www.w3.org/2000/svg">
<path d="M4.17208 1.55832H3.57331C3.5379 1.39191 3.47593 1.24572 3.3874 1.11975C3.30048 0.993779 3.19425 0.888025 3.0687 0.802489C2.94476 0.715397 2.80714 0.650078 2.65584 0.606532C2.50454 0.562986 2.3468 0.541213 2.18262 0.541213C1.88323 0.541213 1.61201 0.614308 1.36896 0.760498C1.12752 0.906688 0.935178 1.12208 0.791923 1.40669C0.650278 1.69129 0.579456 2.04044 0.579456 2.45412C0.579456 2.86781 0.650278 3.21695 0.791923 3.50156C0.935178 3.78616 1.12752 4.00156 1.36896 4.14775C1.61201 4.29393 1.88323 4.36703 2.18262 4.36703C2.3468 4.36703 2.50454 4.34526 2.65584 4.30171C2.80714 4.25816 2.94476 4.19362 3.0687 4.10809C3.19425 4.021 3.30048 3.91446 3.3874 3.78849C3.47593 3.66096 3.5379 3.51477 3.57331 3.34992H4.17208C4.12701 3.59409 4.04492 3.8126 3.92581 4.00544C3.8067 4.19829 3.65862 4.36236 3.48156 4.49767C3.30451 4.63142 3.10572 4.73328 2.88521 4.80327C2.6663 4.87325 2.43211 4.90824 2.18262 4.90824C1.7609 4.90824 1.38587 4.80871 1.05751 4.60964C0.729149 4.41058 0.470808 4.12753 0.282485 3.7605C0.0941616 3.39347 0 2.95801 0 2.45412C0 1.95023 0.0941616 1.51477 0.282485 1.14775C0.470808 0.780715 0.729149 0.497667 1.05751 0.2986C1.38587 0.0995335 1.7609 0 2.18262 0C2.43211 0 2.6663 0.0349922 2.88521 0.104977C3.10572 0.174961 3.30451 0.277605 3.48156 0.412908C3.65862 0.546656 3.8067 0.709953 3.92581 0.902799C4.04492 1.09409 4.12701 1.3126 4.17208 1.55832Z" fill="#222222"/>
<path d="M8.38654 4.84292L6.6868 2.65008H6.07837V4.84292H5.4796V0.0653189H6.07837V2.13686H6.33913L8.31894 0.0653189H9.0336L7.03447 2.16485L9.1012 4.84292H8.38654Z" fill="#222222"/>
<path d="M14.1547 2.45412C14.1547 2.95801 14.0605 3.39347 13.8722 3.7605C13.6839 4.12753 13.4255 4.41058 13.0972 4.60964C12.7688 4.80871 12.3938 4.90824 11.972 4.90824C11.5503 4.90824 11.1753 4.80871 10.8469 4.60964C10.5186 4.41058 10.2602 4.12753 10.0719 3.7605C9.88359 3.39347 9.78942 2.95801 9.78942 2.45412C9.78942 1.95023 9.88359 1.51477 10.0719 1.14775C10.2602 0.780715 10.5186 0.497667 10.8469 0.2986C11.1753 0.0995335 11.5503 0 11.972 0C12.3938 0 12.7688 0.0995335 13.0972 0.2986C13.4255 0.497667 13.6839 0.780715 13.8722 1.14775C14.0605 1.51477 14.1547 1.95023 14.1547 2.45412ZM13.5752 2.45412C13.5752 2.04044 13.5036 1.69129 13.3603 1.40669C13.2187 1.12208 13.0263 0.906688 12.7833 0.760498C12.5418 0.614308 12.2714 0.541213 11.972 0.541213C11.6727 0.541213 11.4014 0.614308 11.1584 0.760498C10.9169 0.906688 10.7246 1.12208 10.5813 1.40669C10.4397 1.69129 10.3689 2.04044 10.3689 2.45412C10.3689 2.86781 10.4397 3.21695 10.5813 3.50156C10.7246 3.78616 10.9169 4.00156 11.1584 4.14775C11.4014 4.29393 11.6727 4.36703 11.972 4.36703C12.2714 4.36703 12.5418 4.29393 12.7833 4.14775C13.0263 4.00156 13.2187 3.78616 13.3603 3.50156C13.5036 3.21695 13.5752 2.86781 13.5752 2.45412Z" fill="#222222"/>
<path d="M15.5014 4.84292V0.0653189H17.1722C17.5601 0.0653189 17.8772 0.13297 18.1234 0.268274C18.3713 0.402022 18.5548 0.583204 18.6739 0.81182C18.793 1.04044 18.8526 1.29549 18.8526 1.57698C18.8526 1.85848 18.793 2.11431 18.6739 2.34448C18.5564 2.57465 18.3745 2.75816 18.1283 2.89502C17.882 3.03033 17.5665 3.09798 17.1818 3.09798H15.9843V2.58476H17.1625C17.4281 2.58476 17.6414 2.54044 17.8023 2.45179C17.9633 2.36314 18.08 2.24339 18.1524 2.09253C18.2265 1.94012 18.2635 1.76827 18.2635 1.57698C18.2635 1.38569 18.2265 1.21462 18.1524 1.06376C18.08 0.912908 17.9625 0.794712 17.7999 0.709176C17.6374 0.622084 17.4217 0.578538 17.1529 0.578538H16.1002V4.84292H15.5014Z" fill="#222222"/>
<path d="M19.8553 4.84292H19.2276L21.0432 0.0653189H21.6613L23.4769 4.84292H22.8492L21.3715 0.821151H21.3329L19.8553 4.84292ZM20.0871 2.97667H22.6174V3.48989H20.0871V2.97667Z" fill="#222222"/>
<path d="M27.9479 4.84292H27.3491V0.578538H26.2964C26.0292 0.578538 25.8144 0.618196 25.6518 0.697512C25.4892 0.775272 25.3709 0.885692 25.2969 1.02877C25.2228 1.17185 25.1858 1.33904 25.1858 1.53033C25.1858 1.72162 25.222 1.88647 25.2945 2.02488C25.3685 2.16174 25.486 2.2675 25.647 2.34215C25.8095 2.4168 26.0228 2.45412 26.2868 2.45412H27.6195V2.97667H26.2675C25.8844 2.97667 25.5697 2.91524 25.3234 2.79238C25.0772 2.66796 24.8945 2.49689 24.7754 2.27916C24.6563 2.06143 24.5967 1.81182 24.5967 1.53033C24.5967 1.24883 24.6563 0.997667 24.7754 0.776828C24.8945 0.555988 25.078 0.382582 25.3258 0.25661C25.5737 0.129082 25.8908 0.0653189 26.2771 0.0653189H27.9479V4.84292ZM25.6204 2.69673H26.2964L25.0989 4.84292H24.4035L25.6204 2.69673Z" fill="#222222"/>
<path d="M31.7405 0.0653189H32.4552L34.1356 4.0311H34.1936L35.874 0.0653189H36.5887V4.84292H36.0285V1.21306H35.9802L34.435 4.84292H33.8942L32.349 1.21306H32.3007V4.84292H31.7405V0.0653189Z" fill="#222222"/>
<path d="M38.1292 4.84292V0.0653189H41.1134V0.578538H38.7279V2.19285H40.9588V2.70607H38.7279V4.3297H41.152V4.84292H38.1292Z" fill="#222222"/>
<path d="M42.1076 6V4.3297H42.4263C42.5358 4.23328 42.6388 4.0972 42.7354 3.92146C42.8335 3.74417 42.9164 3.50778 42.984 3.21229C43.0533 2.91524 43.0991 2.5381 43.1217 2.08087L43.2279 0.0653189H46.1638V4.3297H46.7336V5.99067H46.1638V4.84292H42.6774V6H42.1076ZM43.141 4.3297H45.594V0.578538H43.7687L43.6915 2.08087C43.6721 2.42924 43.6383 2.74495 43.5901 3.02799C43.5418 3.30949 43.4798 3.5591 43.4041 3.77683C43.3285 3.993 43.2408 4.17729 43.141 4.3297Z" fill="#222222"/>
<path d="M47.9783 0.0653189H48.5675V3.82582H48.6157L51.3199 0.0653189H51.8993V4.84292H51.3006V1.09176H51.2523L48.5578 4.84292H47.9783V0.0653189Z" fill="#222222"/>
<path d="M57.6385 4.29238L57.5709 5.97201H56.9528V4.84292H56.6051V4.29238H57.6385ZM53.4374 4.84292V0.0653189H54.0072V4.31104H56.5568V0.0653189H57.1266V4.84292H53.4374Z" fill="#222222"/>
<path d="M58.8832 0.0653189H59.4723V3.82582H59.5206L62.2248 0.0653189H62.8042V4.84292H62.2054V1.09176H62.1572L59.4627 4.84292H58.8832V0.0653189Z" fill="#222222"/>
<path d="M64.3423 4.84292V0.0653189H64.9411V2.19285H67.5776V0.0653189H68.1764V4.84292H67.5776V2.70607H64.9411V4.84292H64.3423Z" fill="#222222"/>
<path d="M73.694 1.55832H73.0952C73.0598 1.39191 72.9978 1.24572 72.9093 1.11975C72.8224 0.993779 72.7162 0.888025 72.5906 0.802489C72.4667 0.715397 72.3291 0.650078 72.1778 0.606532C72.0265 0.562986 71.8687 0.541213 71.7045 0.541213C71.4052 0.541213 71.1339 0.614308 70.8909 0.760498C70.6494 0.906688 70.4571 1.12208 70.3138 1.40669C70.1722 1.69129 70.1014 2.04044 70.1014 2.45412C70.1014 2.86781 70.1722 3.21695 70.3138 3.50156C70.4571 3.78616 70.6494 4.00156 70.8909 4.14775C71.1339 4.29393 71.4052 4.36703 71.7045 4.36703C71.8687 4.36703 72.0265 4.34526 72.1778 4.30171C72.3291 4.25816 72.4667 4.19362 72.5906 4.10809C72.7162 4.021 72.8224 3.91446 72.9093 3.78849C72.9978 3.66096 73.0598 3.51477 73.0952 3.34992H73.694C73.6489 3.59409 73.5668 3.8126 73.4477 4.00544C73.3286 4.19829 73.1805 4.36236 73.0035 4.49767C72.8264 4.63142 72.6276 4.73328 72.4071 4.80327C72.1882 4.87325 71.954 4.90824 71.7045 4.90824C71.2828 4.90824 70.9078 4.80871 70.5794 4.60964C70.2511 4.41058 69.9927 4.12753 69.8044 3.7605C69.6161 3.39347 69.5219 2.95801 69.5219 2.45412C69.5219 1.95023 69.6161 1.51477 69.8044 1.14775C69.9927 0.780715 70.2511 0.497667 70.5794 0.2986C70.9078 0.0995335 71.2828 0 71.7045 0C71.954 0 72.1882 0.0349922 72.4071 0.104977C72.6276 0.174961 72.8264 0.277605 73.0035 0.412908C73.1805 0.546656 73.3286 0.709953 73.4477 0.902799C73.5668 1.09409 73.6489 1.3126 73.694 1.55832Z" fill="#222222"/>
<path d="M77.9085 4.84292L76.2087 2.65008H75.6003V4.84292H75.0015V0.0653189H75.6003V2.13686H75.861L77.8409 0.0653189H78.5555L76.5564 2.16485L78.6231 4.84292H77.9085Z" fill="#222222"/>
<path d="M79.9397 4.84292H79.3119L81.1276 0.0653189H81.7457L83.5613 4.84292H82.9335L81.4559 0.821151H81.4173L79.9397 4.84292ZM80.1715 2.97667H82.7018V3.48989H80.1715V2.97667Z" fill="#222222"/>
<path d="M88.0323 4.84292H87.4335V0.578538H86.3808C86.1136 0.578538 85.8987 0.618196 85.7362 0.697512C85.5736 0.775272 85.4553 0.885692 85.3813 1.02877C85.3072 1.17185 85.2702 1.33904 85.2702 1.53033C85.2702 1.72162 85.3064 1.88647 85.3788 2.02488C85.4529 2.16174 85.5704 2.2675 85.7313 2.34215C85.8939 2.4168 86.1072 2.45412 86.3712 2.45412H87.7039V2.97667H86.3518C85.9688 2.97667 85.6541 2.91524 85.4078 2.79238C85.1615 2.66796 84.9789 2.49689 84.8597 2.27916C84.7406 2.06143 84.6811 1.81182 84.6811 1.53033C84.6811 1.24883 84.7406 0.997667 84.8597 0.776828C84.9789 0.555988 85.1624 0.382582 85.4102 0.25661C85.6581 0.129082 85.9752 0.0653189 86.3615 0.0653189H88.0323V4.84292ZM85.7048 2.69673H86.3808L85.1833 4.84292H84.4879L85.7048 2.69673Z" fill="#222222"/>
<path d="M95.5238 0.0653189V4.84292H94.925V0.578538H92.4334V4.84292H91.8346V0.0653189H95.5238Z" fill="#222222"/>
<path d="M101.244 2.45412C101.244 2.95801 101.149 3.39347 100.961 3.7605C100.773 4.12753 100.514 4.41058 100.186 4.60964C99.8578 4.80871 99.4827 4.90824 99.061 4.90824C98.6393 4.90824 98.2642 4.80871 97.9359 4.60964C97.6075 4.41058 97.3492 4.12753 97.1609 3.7605C96.9726 3.39347 96.8784 2.95801 96.8784 2.45412C96.8784 1.95023 96.9726 1.51477 97.1609 1.14775C97.3492 0.780715 97.6075 0.497667 97.9359 0.2986C98.2642 0.0995335 98.6393 0 99.061 0C99.4827 0 99.8578 0.0995335 100.186 0.2986C100.514 0.497667 100.773 0.780715 100.961 1.14775C101.149 1.51477 101.244 1.95023 101.244 2.45412ZM100.664 2.45412C100.664 2.04044 100.593 1.69129 100.449 1.40669C100.308 1.12208 100.115 0.906688 99.8722 0.760498C99.6308 0.614308 99.3604 0.541213 99.061 0.541213C98.7616 0.541213 98.4904 0.614308 98.2474 0.760498C98.0059 0.906688 97.8136 1.12208 97.6703 1.40669C97.5287 1.69129 97.4578 2.04044 97.4578 2.45412C97.4578 2.86781 97.5287 3.21695 97.6703 3.50156C97.8136 3.78616 98.0059 4.00156 98.2474 4.14775C98.4904 4.29393 98.7616 4.36703 99.061 4.36703C99.3604 4.36703 99.6308 4.29393 99.8722 4.14775C100.115 4.00156 100.308 3.78616 100.449 3.50156C100.593 3.21695 100.664 2.86781 100.664 2.45412Z" fill="#222222"/>
<path d="M102.59 0.0653189H103.305L104.985 4.0311H105.043L106.724 0.0653189H107.438V4.84292H106.878V1.21306H106.83L105.285 4.84292H104.744L103.199 1.21306H103.151V4.84292H102.59V0.0653189Z" fill="#222222"/>
<path d="M113.151 2.45412C113.151 2.95801 113.057 3.39347 112.869 3.7605C112.68 4.12753 112.422 4.41058 112.094 4.60964C111.765 4.80871 111.39 4.90824 110.968 4.90824C110.547 4.90824 110.172 4.80871 109.843 4.60964C109.515 4.41058 109.257 4.12753 109.068 3.7605C108.88 3.39347 108.786 2.95801 108.786 2.45412C108.786 1.95023 108.88 1.51477 109.068 1.14775C109.257 0.780715 109.515 0.497667 109.843 0.2986C110.172 0.0995335 110.547 0 110.968 0C111.39 0 111.765 0.0995335 112.094 0.2986C112.422 0.497667 112.68 0.780715 112.869 1.14775C113.057 1.51477 113.151 1.95023 113.151 2.45412ZM112.572 2.45412C112.572 2.04044 112.5 1.69129 112.357 1.40669C112.215 1.12208 112.023 0.906688 111.78 0.760498C111.538 0.614308 111.268 0.541213 110.968 0.541213C110.669 0.541213 110.398 0.614308 110.155 0.760498C109.913 0.906688 109.721 1.12208 109.578 1.40669C109.436 1.69129 109.365 2.04044 109.365 2.45412C109.365 2.86781 109.436 3.21695 109.578 3.50156C109.721 3.78616 109.913 4.00156 110.155 4.14775C110.398 4.29393 110.669 4.36703 110.968 4.36703C111.268 4.36703 111.538 4.29393 111.78 4.14775C112.023 4.00156 112.215 3.78616 112.357 3.50156C112.5 3.21695 112.572 2.86781 112.572 2.45412Z" fill="#222222"/>
<path d="M120.254 4.3297L120.186 5.97201H119.597V4.84292H119.124V4.3297H120.254ZM114.498 0.0653189H115.097V4.31104H116.835V0.0653189H117.434V4.31104H119.172V0.0653189H119.771V4.84292H114.498V0.0653189Z" fill="#222222"/>
<path d="M121.948 2.07154H123.358C123.712 2.07154 124.011 2.12753 124.254 2.2395C124.499 2.35148 124.684 2.50933 124.809 2.71306C124.936 2.9168 125 3.15708 125 3.4339C125 3.71073 124.936 3.9549 124.809 4.16641C124.684 4.37792 124.499 4.54355 124.254 4.6633C124.011 4.78305 123.712 4.84292 123.358 4.84292H121.504V0.0653189H122.103V4.33904H123.358C123.584 4.33904 123.774 4.29549 123.93 4.2084C124.088 4.11975 124.207 4.00622 124.288 3.86781C124.37 3.72784 124.411 3.58009 124.411 3.42457C124.411 3.19596 124.32 2.99922 124.138 2.83437C123.956 2.66796 123.696 2.58476 123.358 2.58476H121.948V2.07154Z" fill="#222222"/>
</svg>
