<svg width="53" height="49" viewBox="0 0 53 49" fill="none" xmlns="http://www.w3.org/2000/svg">
<path fill-rule="evenodd" clip-rule="evenodd" d="M44.4428 33.9161C44.6318 33.7384 45.2976 33.306 45.7461 33.3371C45.9005 33.3477 46.2141 33.5717 46.3351 33.672C46.5095 33.8168 46.6294 33.9793 46.7867 34.1836C47.2901 34.8375 47.6801 35.9277 47.6989 37.0082C47.7292 38.7589 46.736 39.7061 45.4651 40.3928C44.7882 40.7587 44.3017 41.3163 44.4377 42.1444C44.4765 42.3808 44.4642 42.8565 44.1006 42.5692C43.8795 42.3945 43.5278 41.5666 43.7423 41.1583C44.3603 39.982 46.7754 39.5051 45.9083 36.1889C45.7588 35.6171 45.6541 35.2944 45.3399 34.8847C45.1953 34.6963 45.0713 34.5412 44.9288 34.3779L44.4428 33.9161ZM17.0056 42.0235L16.3056 43.4291L16.3041 43.4322L16.3025 43.4353L16.2995 43.4338L16.2964 43.4323L15.6433 43.1096C15.6209 43.0985 15.5997 43.087 15.5797 43.075C15.5596 43.0629 15.5407 43.0504 15.523 43.0375C15.5053 43.0245 15.4886 43.0111 15.4732 42.997C15.4633 42.9881 15.4538 42.979 15.4449 42.9696C15.3288 43.1465 15.184 43.3515 14.9995 43.6002C14.9007 43.7335 14.7975 43.8853 14.6919 44.0449C15.9905 44.7523 17.3671 45.3393 18.8058 45.791C18.7272 44.9563 18.8166 43.8901 18.7897 43.0583C18.6524 42.9863 18.5044 42.9448 18.4003 42.847L18.137 42.4958C18.0985 42.3901 18.0771 41.9303 18.0648 41.277C17.897 41.2028 17.7299 41.1259 17.5634 41.0465C17.1604 40.8544 16.7659 40.6491 16.3807 40.4312L16.2792 40.8164C16.0509 41.4991 15.9901 41.8459 15.8563 42.1973C15.8609 42.198 15.8656 42.1988 15.8702 42.1996C15.8908 42.2033 15.9117 42.2082 15.9329 42.2144C15.954 42.2204 15.9754 42.2278 15.9972 42.2364C16.0189 42.245 16.041 42.2549 16.0633 42.2659L16.4482 42.4561L16.7311 41.888L16.7327 41.8849L16.7342 41.8817L16.7373 41.8833L16.7404 41.8848L17.0024 42.0143L17.0055 42.0158L17.0086 42.0173L17.0071 42.0204L17.0056 42.0235ZM16.3211 42.7114L15.9725 42.5391C15.9577 42.5318 15.9432 42.5257 15.9291 42.5208C15.9151 42.5159 15.9014 42.5122 15.8882 42.5097C15.875 42.5073 15.8622 42.506 15.8498 42.5058C15.8375 42.5058 15.8254 42.5069 15.8138 42.5092C15.8024 42.5115 15.7914 42.5153 15.781 42.5207C15.7705 42.5262 15.7605 42.5332 15.751 42.5418C15.7415 42.5505 15.7324 42.5609 15.7237 42.5729C15.7151 42.585 15.7069 42.5987 15.6993 42.6141C15.6918 42.6291 15.6859 42.6436 15.6816 42.6575C15.6773 42.6714 15.6746 42.6846 15.6736 42.6974C15.6725 42.71 15.673 42.7221 15.675 42.7336C15.677 42.7451 15.6806 42.756 15.6857 42.7664H15.6857C15.6909 42.777 15.6973 42.7873 15.7048 42.797C15.7124 42.8068 15.7212 42.8162 15.7311 42.8251C15.741 42.8341 15.7523 42.8427 15.7647 42.8509C15.7772 42.859 15.7908 42.8668 15.8056 42.8741L16.1542 43.0464L16.3211 42.7114ZM11.0106 39.4983L10.8581 39.6487L10.8556 39.6511L10.8532 39.6536L10.8508 39.6511L10.8483 39.6487L10.0932 38.8888H10.0932L10.0908 38.8863L10.0883 38.8839L10.0908 38.8815L10.0932 38.879L10.2851 38.6898V38.6898L10.2876 38.6874L10.2901 38.6849L10.2925 38.6874L10.2949 38.6898L10.8394 39.2377L11.0902 38.9904L10.5932 38.4903L10.5908 38.4878L10.5884 38.4854L10.5908 38.483L10.5933 38.4806L10.7851 38.2913L10.7861 38.2904C10.4152 38.0676 10.0178 37.7643 9.64384 37.4485L9.37394 37.6621L9.65789 38.0182L9.66 38.021L9.66217 38.0236L9.65948 38.0258L9.65678 38.028L9.4453 38.1952L9.4426 38.1974L9.43985 38.1995L9.43774 38.1968L9.43557 38.1941L8.6771 37.2428L8.67493 37.24L8.67276 37.2373L8.67552 37.2352L8.67821 37.2331L8.88964 37.0658L8.89239 37.0636L8.89509 37.0615L8.89725 37.0642L8.89936 37.0669H8.89942L9.18196 37.4213L9.4064 37.2438C8.93258 36.8268 8.51781 36.4136 8.27516 36.1574C7.34164 35.1714 6.68018 34.3877 5.95955 32.8857C5.37425 31.6655 4.84132 30.0907 4.62129 28.6333C4.51256 27.9132 4.5333 27.2158 4.61256 26.5799L4.40968 26.5955L4.40623 26.5958L4.40283 26.5961L4.40254 26.5926L4.40224 26.5892V26.5891L4.30816 25.3779L4.30787 25.3745L4.30763 25.371L4.31109 25.3707L4.31455 25.3705L4.58379 25.3497L4.58719 25.3494L4.59071 25.3492L4.59094 25.3526L4.59123 25.3561L4.62627 25.8073L4.74138 25.7984C4.93347 24.8489 5.20219 24.1119 5.2302 23.762C4.38895 22.8313 3.94067 22.0434 3.67623 20.7768C3.56 20.22 3.55256 19.6713 3.59972 19.167C3.51261 19.5139 3.43404 19.8629 3.36398 20.2137C3.08284 21.6217 2.94025 23.057 2.94025 24.5C2.94025 30.6736 5.49827 36.2625 9.63399 40.3079C9.79937 40.4697 9.96762 40.6287 10.138 40.7856C10.1813 40.7202 10.2246 40.6538 10.2679 40.5864C10.3988 40.3822 10.7292 39.9291 11.0106 39.4983ZM10.8056 38.3021L11.2919 38.7914L11.4693 38.6166C11.4696 38.6132 11.4699 38.6098 11.4702 38.6066C11.2687 38.5507 11.0429 38.4432 10.8056 38.3021ZM4.68251 26.1113L4.65011 26.1138L4.6603 26.245C4.66745 26.2002 4.67489 26.1555 4.68251 26.1113ZM5.05117 23.647C5.05093 23.6564 5.04982 23.6654 5.04795 23.674C5.04607 23.6826 5.04338 23.6908 5.03986 23.6986C5.03635 23.7064 5.03201 23.7138 5.02692 23.7208C5.02182 23.7277 5.0159 23.7343 5.00916 23.7404C5.00254 23.7465 4.99557 23.7518 4.98837 23.7563C4.9811 23.7609 4.97366 23.7646 4.96599 23.7675C4.95832 23.7704 4.95029 23.7726 4.94203 23.7739C4.93383 23.7753 4.92533 23.7758 4.91666 23.7756C4.90729 23.7753 4.89821 23.7742 4.88966 23.7724C4.88104 23.7706 4.87278 23.768 4.86493 23.7646C4.85703 23.7612 4.84959 23.757 4.84261 23.7521C4.83564 23.7472 4.82902 23.7414 4.82293 23.7349C4.81678 23.7284 4.81139 23.7215 4.80688 23.7143C4.80231 23.7071 4.79862 23.6995 4.79563 23.6914C4.7927 23.6835 4.79053 23.6751 4.78924 23.6664C4.7879 23.6578 4.78737 23.6488 4.78766 23.6394C4.7879 23.6303 4.78895 23.6216 4.79077 23.6133C4.79264 23.605 4.79528 23.597 4.79868 23.5894C4.80207 23.5818 4.80623 23.5745 4.81121 23.5677C4.81619 23.5608 4.82193 23.5543 4.82838 23.5482C4.83488 23.542 4.84179 23.5367 4.84906 23.5322C4.85632 23.5277 4.864 23.5239 4.87202 23.521C4.88005 23.5181 4.88843 23.5159 4.89716 23.5147C4.90583 23.5133 4.9149 23.5128 4.92434 23.5131C4.93301 23.5133 4.94144 23.5144 4.94959 23.5162C4.95773 23.518 4.96558 23.5206 4.97314 23.524C4.98063 23.5273 4.9879 23.5315 4.99481 23.5364C5.00173 23.5413 5.00834 23.547 5.01467 23.5535C5.021 23.56 5.02651 23.5668 5.03119 23.5739C5.03588 23.5811 5.03975 23.5886 5.04279 23.5964C5.04584 23.6042 5.04806 23.6124 5.04947 23.6208C5.05088 23.6292 5.0514 23.638 5.05117 23.647ZM15.0709 8.12874C15.0407 8.14824 15.0101 8.16539 14.9793 8.18022C14.9483 8.1951 14.9171 8.20764 14.8855 8.21792C14.8769 8.22072 14.8683 8.22334 14.8596 8.22579C15.0667 8.51344 15.2641 8.81888 15.4629 9.12362C16.3274 8.56695 17.2358 8.08205 18.1782 7.6732C19.2442 7.21066 20.3555 6.84499 21.4979 6.58215C21.628 6.31189 21.7685 6.10356 21.9533 5.9488C23.2567 4.85757 23.311 5.16027 24.3182 4.77476L24.2945 3.44847L24.2945 3.44502L24.2944 3.44158L24.2979 3.44152L24.3014 3.44146L25.3745 3.4225L25.378 3.42244L25.3814 3.42238L25.3815 3.42582L25.3815 3.42927L25.3863 3.69818L25.3864 3.70162L25.3865 3.70506L25.383 3.70512L25.3796 3.70518L24.6058 3.71889L24.6121 4.07038L25.3183 4.05789L25.3218 4.05784L25.3252 4.05778L25.3253 4.06122L25.3254 4.06472L25.3302 4.33363L25.3302 4.33707L25.3303 4.34052L25.3268 4.34058L25.3234 4.34064L24.6171 4.35312L24.6228 4.67158C25.1577 4.52172 25.6756 4.53981 26.2837 4.5495L26.2818 4.54314C26.272 4.50859 26.2642 4.47276 26.2585 4.43576C26.2528 4.39882 26.2492 4.36059 26.2477 4.32103C26.2462 4.28152 26.2468 4.24073 26.2494 4.19877C26.2521 4.15646 26.2567 4.11561 26.2632 4.07633C26.2698 4.037 26.2782 3.99924 26.2885 3.96306C26.2988 3.92688 26.3111 3.89221 26.3253 3.85907C26.3394 3.82598 26.3556 3.79435 26.3736 3.7643C26.3916 3.73436 26.4111 3.70611 26.4319 3.67979C26.4528 3.65342 26.4751 3.62891 26.4988 3.60621C26.5226 3.58351 26.5478 3.56261 26.5744 3.54359C26.6009 3.52456 26.6289 3.50741 26.6584 3.49206C26.6879 3.47665 26.7182 3.46352 26.7492 3.45261C26.7802 3.44164 26.812 3.43294 26.8448 3.42635C26.8775 3.41981 26.9109 3.41543 26.9451 3.41333C26.9794 3.41117 27.0144 3.41123 27.0503 3.41351C27.0838 3.41561 27.1164 3.41958 27.1482 3.42536C27.1799 3.43113 27.2107 3.43872 27.2406 3.44817C27.2704 3.45763 27.2993 3.46889 27.3273 3.48196C27.3552 3.49509 27.3823 3.51003 27.4083 3.52678C27.4344 3.54353 27.459 3.56173 27.4822 3.58134C27.5054 3.60095 27.5271 3.62202 27.5475 3.64443C27.5677 3.6669 27.5866 3.69076 27.6041 3.71609C27.6215 3.74136 27.6375 3.76809 27.6519 3.79616L27.6536 3.79925L27.6551 3.8024L27.652 3.80398L27.6489 3.8055L27.3789 3.93902L27.3757 3.94054L27.3726 3.94205L27.3711 3.93896L27.3696 3.93581C27.3614 3.91906 27.3524 3.90318 27.3427 3.88824C27.333 3.87331 27.3225 3.85918 27.3112 3.84594C27.3 3.83275 27.2879 3.82038 27.2751 3.80888C27.2623 3.79744 27.2488 3.78682 27.2345 3.77714C27.2202 3.76745 27.2052 3.75875 27.1895 3.75117C27.1739 3.74358 27.1577 3.73704 27.1408 3.73156C27.1238 3.72607 27.1062 3.72163 27.088 3.71825C27.0698 3.71492 27.0509 3.71265 27.0314 3.71142C26.9879 3.70868 26.9469 3.71172 26.9085 3.72053C26.8701 3.72928 26.8342 3.74381 26.8009 3.76412C26.7842 3.77428 26.7683 3.78559 26.7532 3.79802C26.7381 3.81051 26.7239 3.82411 26.7105 3.83882C26.6971 3.85352 26.6844 3.86946 26.6727 3.88644C26.6609 3.90354 26.6499 3.92169 26.6398 3.94089C26.6297 3.96014 26.6206 3.98045 26.6126 4.00175C26.6046 4.02294 26.5976 4.04517 26.5916 4.06828C26.5857 4.09145 26.5809 4.11561 26.577 4.14076C26.5732 4.16585 26.5704 4.19188 26.5687 4.21884C26.567 4.24557 26.5665 4.27142 26.5671 4.29646C26.5677 4.32149 26.5695 4.34583 26.5725 4.36947C26.5755 4.39298 26.5796 4.41574 26.5849 4.43763C26.5902 4.45957 26.5967 4.48081 26.6043 4.5013C26.6111 4.51985 26.6189 4.53753 26.6273 4.55434C26.8693 4.5624 27.0856 4.59677 27.2885 4.64812C27.2907 4.64567 27.2928 4.64322 27.295 4.64077C27.3065 4.62734 27.3174 4.61305 27.3276 4.59782L27.3295 4.59496L27.3314 4.5921L27.3343 4.59402L27.3372 4.59589L27.5145 4.71342C27.8219 4.81281 28.1073 4.94568 28.4186 5.07506L28.4239 5.07728L28.6785 3.59296L28.6791 3.58952L28.6797 3.58613L28.6832 3.58671L28.6866 3.5873L29.7445 3.76739L29.748 3.76797L29.7514 3.76855L29.7508 3.772L29.7502 3.77538L29.7047 4.0405L29.7041 4.04395L29.7036 4.04733L29.7001 4.04674L29.6967 4.04616L28.9339 3.91632L28.8744 4.26279L29.5707 4.38137L29.5741 4.38195L29.5775 4.38253L29.577 4.38592L29.5764 4.38931L29.5309 4.65448L29.5303 4.65787L29.5297 4.66125L29.5263 4.66067L29.5229 4.66014L28.8266 4.54156L28.7618 4.91902L29.5491 5.05307L29.5525 5.05365L29.5559 5.05423L29.5553 5.05762L29.5547 5.061L29.5092 5.32618L29.5086 5.32956L29.5081 5.33295L29.5047 5.33237L29.5012 5.33178L28.6844 5.19271C29.4801 5.56649 30.1833 6.09644 30.7575 6.74293C33.8682 7.57394 36.6529 9.15537 38.8962 11.283C41.0835 13.3576 42.7564 15.9518 43.7152 18.8763C43.8227 18.836 43.9355 18.8035 44.0562 18.7829C44.5252 18.7027 44.9046 18.7952 45.2435 18.9739C45.2505 18.9669 45.2575 18.9599 45.2648 18.9529C45.2902 18.9288 45.3175 18.9062 45.3467 18.8851C45.3759 18.864 45.4071 18.8445 45.44 18.8264C45.473 18.8085 45.5079 18.792 45.5447 18.777C45.5813 18.7621 45.62 18.7487 45.6605 18.7369C45.7014 18.7248 45.7415 18.7152 45.7808 18.7078C45.8201 18.7005 45.8586 18.6954 45.8962 18.6927C45.9338 18.6901 45.9707 18.6897 46.0069 18.6916C46.043 18.6935 46.0783 18.6978 46.1127 18.7044C46.1472 18.711 46.1805 18.7195 46.2125 18.73C46.2444 18.7405 46.2752 18.753 46.3048 18.7674C46.3344 18.7819 46.3627 18.7984 46.3897 18.8167C46.4167 18.8351 46.4426 18.8554 46.4671 18.8777C46.4916 18.9 46.5144 18.9238 46.5354 18.9492C46.5563 18.9745 46.5755 19.0013 46.5928 19.0297C46.6101 19.058 46.6257 19.0879 46.6395 19.1192C46.6532 19.1506 46.6651 19.1834 46.6753 19.2177C46.6847 19.2498 46.6922 19.2817 46.6976 19.3134C46.703 19.345 46.7064 19.3765 46.7077 19.4076C46.709 19.4387 46.7082 19.4697 46.7055 19.5004C46.7027 19.5311 46.6978 19.5615 46.691 19.5915C46.6841 19.6217 46.6754 19.651 46.6648 19.6793C46.6542 19.7078 46.6418 19.7354 46.6276 19.7621C46.6134 19.7887 46.5973 19.8146 46.5794 19.8395C46.5616 19.8644 46.5418 19.8885 46.5202 19.9118L46.5178 19.9143L46.5154 19.9169L46.5129 19.9145L46.5104 19.9121L46.2921 19.7051L46.2895 19.7027L46.287 19.7003L46.2894 19.6978L46.2919 19.6953C46.3048 19.682 46.3167 19.6681 46.3276 19.6538C46.3384 19.6396 46.3481 19.6249 46.3567 19.6099C46.3653 19.5948 46.3729 19.5794 46.3792 19.5634C46.3857 19.5476 46.3911 19.5312 46.3953 19.5145C46.3996 19.4978 46.4026 19.4808 46.4044 19.4636C46.4063 19.4464 46.4069 19.4289 46.4062 19.4112C46.4057 19.3935 46.4038 19.3755 46.4007 19.3573C46.3976 19.3391 46.3934 19.3206 46.3878 19.3019C46.3817 19.2811 46.3744 19.2613 46.3659 19.2427C46.3574 19.224 46.3479 19.2064 46.3372 19.19C46.3265 19.1736 46.3146 19.1582 46.3016 19.1439C46.2887 19.1297 46.2745 19.1164 46.2592 19.1042C46.2438 19.092 46.2277 19.081 46.2109 19.0712C46.194 19.0613 46.1763 19.0527 46.1579 19.0452C46.1393 19.0376 46.12 19.0313 46.1 19.0261C46.0799 19.0209 46.059 19.0169 46.0373 19.014C46.0157 19.0111 45.9934 19.0096 45.9706 19.0093C45.9478 19.0091 45.9245 19.0102 45.9007 19.0125C45.8768 19.0149 45.8523 19.0186 45.8274 19.0236C45.8025 19.0285 45.7769 19.0349 45.7508 19.0425C45.7382 19.0462 45.7257 19.0501 45.7137 19.0542C45.7016 19.0584 45.6897 19.0627 45.6782 19.0672L45.6776 19.0674H45.6769H45.6591C45.6078 19.0888 45.562 19.1143 45.5218 19.1439C45.8284 19.3553 46.1105 19.6238 46.411 19.8736C46.9055 20.2846 47.6187 21.0516 47.783 21.9961C47.9295 22.8378 47.844 23.5107 47.5684 24.2707C47.4615 24.5654 47.3346 24.6685 47.2656 24.8525C47.5495 24.8603 48.0666 24.8519 48.665 24.8434C48.666 24.7612 48.6665 24.6468 48.6665 24.5C48.6665 18.3264 46.1085 12.7375 41.9728 8.69213C37.8357 4.64538 32.119 2.14242 25.8034 2.14242C23.0622 2.14242 20.3683 2.62311 17.8419 3.54073C15.7874 4.28694 13.8422 5.32238 12.0713 6.62341C12.1839 6.61664 12.2961 6.61477 12.4077 6.6181C12.9814 6.6352 13.4493 6.83145 13.8537 7.13672C13.8555 7.13059 13.8574 7.12447 13.8593 7.1184C13.8694 7.08735 13.8816 7.05689 13.8961 7.02712C13.9106 6.9973 13.9271 6.96883 13.9455 6.94163C13.9639 6.91456 13.9843 6.88859 14.0067 6.8639C14.0291 6.83933 14.0534 6.81599 14.0796 6.79399C14.1048 6.77287 14.1318 6.75291 14.1606 6.73417V6.73411L14.1643 6.73184C14.1926 6.71357 14.2212 6.69741 14.2501 6.68323C14.279 6.6691 14.3083 6.65697 14.3379 6.64687C14.3675 6.63678 14.3975 6.62872 14.4278 6.62265C14.4581 6.61664 14.4888 6.61261 14.5197 6.61063C14.5507 6.6087 14.5813 6.6087 14.6117 6.61075C14.6419 6.61273 14.672 6.61676 14.7018 6.62283C14.7315 6.62884 14.761 6.63683 14.7901 6.64681C14.8192 6.65685 14.848 6.66887 14.8764 6.68282L14.8796 6.68439L14.8827 6.68591L14.8811 6.68906L14.8795 6.69216L14.7422 6.95943L14.7406 6.96253L14.739 6.96562L14.7359 6.96404L14.7328 6.96246C14.7162 6.95383 14.6995 6.94642 14.6828 6.94012C14.666 6.93387 14.6492 6.92873 14.6322 6.92477C14.6152 6.9208 14.5982 6.918 14.5811 6.91637C14.564 6.91473 14.5468 6.91426 14.5294 6.91491C14.5121 6.91561 14.4949 6.91753 14.4779 6.92062C14.4608 6.92377 14.4438 6.92815 14.427 6.93375C14.4101 6.93941 14.3933 6.9463 14.3766 6.95441C14.3598 6.96252 14.3432 6.97192 14.3269 6.98243C14.3087 6.99416 14.2917 7.00676 14.2761 7.02013C14.2606 7.03349 14.2464 7.04767 14.2336 7.06255C14.2208 7.07749 14.2093 7.09319 14.1992 7.10965C14.1892 7.12604 14.1805 7.14332 14.1732 7.16141C14.1658 7.1795 14.1598 7.19806 14.1551 7.21696C14.1504 7.23587 14.147 7.25525 14.1451 7.27497C14.1431 7.2947 14.1425 7.315 14.1431 7.33566C14.1437 7.35235 14.1451 7.36928 14.1475 7.38649C14.3245 7.55427 14.4897 7.74236 14.6477 7.94346C14.6592 7.94486 14.6709 7.94579 14.6825 7.94626C14.7021 7.94696 14.7214 7.94614 14.7407 7.94375C14.7599 7.94136 14.779 7.93739 14.7978 7.9319C14.8167 7.92641 14.8355 7.9193 14.8541 7.91066C14.8716 7.90255 14.8888 7.8931 14.9059 7.88236L14.9095 7.88002C14.9259 7.86946 14.9413 7.85819 14.9555 7.84635C14.9698 7.8345 14.9829 7.82202 14.9949 7.80895C15.0069 7.79587 15.0178 7.78215 15.0276 7.7678C15.0374 7.7535 15.0461 7.73851 15.0538 7.72287L15.0547 7.72094C15.0619 7.70594 15.0682 7.6906 15.0735 7.67501C15.079 7.65879 15.0834 7.64216 15.0868 7.62518C15.0902 7.60825 15.0925 7.59092 15.0938 7.5733C15.095 7.55567 15.0952 7.5377 15.0944 7.51943L15.0942 7.51599L15.094 7.5126L15.0975 7.51243L15.1009 7.51225L15.402 7.4972L15.4055 7.49702L15.409 7.49685L15.4092 7.50035L15.4093 7.50391C15.4111 7.56647 15.4052 7.6271 15.3916 7.68569C15.3849 7.71493 15.3762 7.74376 15.3655 7.77212C15.3548 7.80042 15.3422 7.82826 15.3277 7.85557C15.3132 7.88288 15.297 7.90908 15.279 7.93412C15.2613 7.95874 15.242 7.98232 15.2209 8.00485V8.00491L15.2199 8.0059C15.1985 8.02866 15.1754 8.05031 15.1506 8.07073C15.1258 8.09116 15.0992 8.11048 15.0709 8.12874ZM16.3037 7.33449L15.6185 5.92172L15.6169 5.91863L15.6154 5.91553L15.6186 5.91402L15.6217 5.91256L16.5881 5.44739L16.5912 5.44587L16.5943 5.44441L16.5959 5.4475L16.5973 5.4506L16.7148 5.69278H16.7148L16.7163 5.69587L16.7178 5.69897L16.7147 5.70048L16.7116 5.702L16.0148 6.03738L16.1683 6.35392L16.8044 6.04783L16.8075 6.04631L16.8106 6.04479L16.8121 6.04794L16.8136 6.05104L16.9311 6.29322L16.9326 6.29632L16.9341 6.29941L16.931 6.30093L16.9279 6.30244L16.2918 6.60853L16.4591 6.95336L17.1782 6.60725L17.1813 6.60579L17.1844 6.60427L17.1859 6.60736L17.1874 6.61051L17.3048 6.85264L17.3064 6.85573L17.3079 6.85888L17.3048 6.8604L17.3016 6.86186L16.3129 7.33776L16.3098 7.33922L16.3067 7.34074L16.3052 7.33765L16.3037 7.33449ZM18.4182 6.38047L17.9457 5.17603L17.5204 5.34158L17.5172 5.34281L17.514 5.3441L17.5127 5.34089L17.5115 5.33762L17.4132 5.08709L17.4119 5.08388L17.4106 5.08067L17.4139 5.07944L17.4171 5.07816L18.553 4.63599L18.5563 4.63476L18.5594 4.63347L18.5607 4.63674L18.562 4.63995L18.6603 4.89048L18.6616 4.89363L18.6628 4.89684L18.6596 4.89813L18.6563 4.89941L18.2331 5.06409L18.7057 6.2686L18.7069 6.2718L18.7082 6.27501L18.705 6.2763L18.7017 6.27753L18.4272 6.38438L18.4239 6.38566L18.4207 6.38688L18.4194 6.38368L18.4182 6.38047ZM20.4309 4.83026C20.4217 4.83271 20.4128 4.83428 20.404 4.83493C20.3952 4.83563 20.3865 4.83539 20.378 4.83428C20.3694 4.83323 20.3611 4.83125 20.3529 4.82839C20.3448 4.82553 20.3368 4.82173 20.3289 4.81706C20.3212 4.81245 20.3141 4.80738 20.3077 4.80184C20.3013 4.79624 20.2956 4.79016 20.2905 4.78369C20.2854 4.77715 20.2811 4.77015 20.2774 4.76268C20.2738 4.75521 20.2708 4.74727 20.2685 4.73893C20.2661 4.72988 20.2645 4.72095 20.2637 4.7122C20.263 4.7035 20.2632 4.69481 20.2642 4.6864C20.2652 4.67794 20.267 4.66966 20.2698 4.66155C20.2725 4.65349 20.2762 4.64555 20.2806 4.63785C20.2851 4.63009 20.2902 4.62297 20.2958 4.61661C20.3015 4.61013 20.3077 4.60436 20.3145 4.59928C20.3214 4.5942 20.3288 4.58971 20.3368 4.58591C20.3448 4.58218 20.3533 4.57909 20.3624 4.57664C20.3711 4.5743 20.3797 4.57278 20.3883 4.57214C20.3968 4.5715 20.4052 4.57173 20.4135 4.57272C20.4219 4.57377 20.4301 4.5757 20.438 4.57844C20.4461 4.58119 20.454 4.5848 20.4617 4.58924C20.4695 4.59373 20.4766 4.59875 20.483 4.60441C20.4895 4.61002 20.4953 4.61626 20.5004 4.62309C20.5055 4.62986 20.51 4.63727 20.5138 4.64521C20.5176 4.65314 20.5207 4.66166 20.5231 4.6707C20.5254 4.67905 20.5268 4.6874 20.5274 4.69568C20.5279 4.70391 20.5277 4.71214 20.5267 4.72037C20.5255 4.72854 20.5237 4.73665 20.5209 4.74464C20.5182 4.75264 20.5146 4.76064 20.5102 4.76852C20.5058 4.77639 20.5008 4.78357 20.4953 4.7901C20.4898 4.7967 20.4837 4.80254 20.4771 4.80767C20.4705 4.81287 20.4633 4.81736 20.4555 4.82109C20.4478 4.82489 20.4396 4.82792 20.4309 4.83026ZM22.2864 5.27657L22.0706 3.72234L22.0701 3.71889L22.0696 3.71551L22.0731 3.71504L22.0765 3.71452L22.7987 3.61502C22.8233 3.61163 22.8474 3.60924 22.8707 3.60796C22.8941 3.60667 22.9167 3.60638 22.9388 3.60714C22.9608 3.6079 22.9821 3.60977 23.0027 3.61262C23.0233 3.61548 23.0434 3.61945 23.0627 3.62441C23.0821 3.62943 23.1006 3.63579 23.1183 3.64344C23.1359 3.65108 23.1528 3.66007 23.1687 3.6704C23.1846 3.68073 23.1997 3.6924 23.2138 3.7053C23.2279 3.71825 23.2412 3.73255 23.2536 3.74813C23.266 3.76371 23.2774 3.78093 23.2876 3.79978C23.2979 3.81863 23.3071 3.83905 23.3153 3.86105C23.3234 3.88306 23.3305 3.90663 23.3365 3.93179C23.3425 3.95682 23.3475 3.9836 23.3515 4.01196C23.3554 4.04027 23.3579 4.06746 23.359 4.09332C23.36 4.11929 23.3596 4.14391 23.3578 4.16726C23.356 4.19072 23.3527 4.21301 23.348 4.23408C23.3433 4.25508 23.337 4.27487 23.3294 4.29343C23.3217 4.31198 23.3129 4.32949 23.3028 4.346C23.2927 4.36246 23.2815 4.37793 23.269 4.39234C23.2565 4.4067 23.2428 4.42012 23.2279 4.43243C23.213 4.4448 23.197 4.45607 23.1797 4.46634C23.1453 4.4867 23.1072 4.50375 23.0652 4.51734C23.0233 4.53094 22.9777 4.54115 22.9282 4.54792L22.5027 4.60657L22.5899 5.23479L22.5904 5.23817L22.5909 5.24162L22.5874 5.24208L22.584 5.24255L22.2942 5.28247L22.2908 5.28293L22.2874 5.2834L22.2869 5.28002L22.2864 5.27657ZM22.4635 4.32424L22.8489 4.27113C22.8653 4.26886 22.8807 4.26582 22.8951 4.26197C22.9095 4.25817 22.9229 4.25357 22.9352 4.2482C22.9475 4.24289 22.9588 4.2367 22.9691 4.22981C22.9794 4.22299 22.9887 4.21528 22.997 4.20694C23.0051 4.19865 23.012 4.18931 23.0175 4.17898C23.0231 4.16865 23.0274 4.15722 23.0304 4.14479C23.0334 4.13213 23.0351 4.11841 23.0354 4.10371C23.0357 4.08888 23.0347 4.07295 23.0324 4.05597C23.03 4.03933 23.0267 4.02405 23.0224 4.01016C23.0181 3.99633 23.0128 3.98384 23.0065 3.97269C23.0003 3.96166 22.9931 3.95197 22.9849 3.94363C22.9768 3.93522 22.9676 3.92816 22.9575 3.92244C22.9473 3.91661 22.9362 3.91176 22.9244 3.90791C22.9126 3.90406 22.9001 3.90126 22.8868 3.89945C22.8734 3.89759 22.8593 3.89676 22.8444 3.897C22.8296 3.89717 22.8139 3.8984 22.7975 3.90068L22.412 3.95378L22.4635 4.32424ZM30.6909 5.58464L31.0208 4.33398L30.5792 4.21838L30.5759 4.2175L30.5725 4.21663L30.5734 4.2133L30.5743 4.20998V4.20991L30.6429 3.94975L30.6438 3.94643L30.6447 3.9431L30.648 3.94398L30.6514 3.94485L31.8309 4.25362L31.8342 4.2545L31.8376 4.25537L31.8367 4.25876L31.8359 4.26209L31.7672 4.52225L31.7663 4.52551L31.7654 4.5289L31.7621 4.52802L31.7588 4.52715L31.3193 4.41212L30.9894 5.66285L30.9885 5.66611L30.9876 5.6695L30.9843 5.66862L30.9809 5.66775L30.6958 5.59311L30.6925 5.59223L30.6891 5.59136L30.69 5.58803L30.6909 5.5847V5.58464ZM33.2543 5.48853C33.2456 5.48503 33.2375 5.48089 33.23 5.47616C33.2225 5.47143 33.2157 5.46606 33.2096 5.46011C33.2034 5.45416 33.1979 5.44756 33.1932 5.44039C33.1884 5.43321 33.1842 5.42545 33.1808 5.41704C33.1773 5.40864 33.1747 5.40035 33.173 5.39206C33.1712 5.38384 33.1703 5.37549 33.1701 5.36726C33.17 5.35903 33.1708 5.35081 33.1723 5.34269C33.1739 5.33458 33.1763 5.32647 33.1796 5.31842C33.183 5.30972 33.1871 5.30167 33.1918 5.2942C33.1966 5.28673 33.2018 5.2799 33.2077 5.27378C33.2137 5.26759 33.2202 5.2621 33.2272 5.25726C33.2343 5.25242 33.242 5.24821 33.2502 5.24471C33.2584 5.24127 33.2667 5.23859 33.2751 5.23684C33.2835 5.23508 33.292 5.23421 33.3005 5.23421C33.309 5.23421 33.3176 5.23514 33.3263 5.23689C33.335 5.23864 33.3437 5.24127 33.3524 5.24471C33.3608 5.2481 33.3686 5.25206 33.3758 5.25662C33.383 5.26123 33.3897 5.26648 33.3957 5.27225C33.4017 5.27809 33.4071 5.28451 33.4119 5.29145V5.29152C33.4166 5.29852 33.4208 5.3061 33.4243 5.31427C33.4277 5.32238 33.4304 5.33073 33.4322 5.33907C33.4339 5.34748 33.4348 5.35594 33.4348 5.3644C33.4348 5.37286 33.4339 5.38144 33.4321 5.39008C33.4304 5.39872 33.4277 5.40741 33.4243 5.41605C33.421 5.4241 33.4171 5.43163 33.4127 5.43857C33.4081 5.44552 33.4029 5.452 33.3971 5.45789C33.3913 5.46379 33.385 5.46916 33.3779 5.47394C33.3709 5.47867 33.3632 5.48293 33.355 5.4866C33.3467 5.49028 33.3383 5.49308 33.33 5.495C33.3217 5.49693 33.3133 5.49798 33.3049 5.49816C33.2964 5.49827 33.288 5.49757 33.2796 5.49594C33.2712 5.49436 33.2628 5.49186 33.2543 5.48853ZM34.4823 6.92343L35.1822 5.51782L35.1838 5.51473L35.1853 5.51164L35.1884 5.51316L35.1915 5.51467L35.8446 5.83739C35.8669 5.84842 35.8881 5.85998 35.9082 5.872C35.9282 5.88402 35.9471 5.89651 35.9648 5.90946C35.9826 5.92242 35.9992 5.9359 36.0146 5.9499C36.0301 5.96385 36.0444 5.97833 36.0575 5.99327C36.0708 6.00826 36.0825 6.0239 36.0927 6.04012C36.103 6.05641 36.1118 6.07327 36.1191 6.09072C36.1265 6.10817 36.1324 6.12626 36.1367 6.14488C36.1411 6.16349 36.144 6.18275 36.1454 6.20253C36.1469 6.22232 36.1465 6.24292 36.1443 6.26428C36.1422 6.28558 36.1382 6.30769 36.1326 6.3304C36.1269 6.35316 36.1194 6.37661 36.1102 6.40077C36.1009 6.42487 36.09 6.4498 36.0771 6.47547C36.0644 6.50109 36.0511 6.52496 36.0374 6.5469C36.0237 6.5689 36.0094 6.58909 35.9946 6.60742C35.9798 6.6258 35.9645 6.64238 35.9487 6.65708C35.933 6.67179 35.9166 6.68468 35.8998 6.69571C35.883 6.7068 35.8657 6.71631 35.8481 6.72431C35.8305 6.73225 35.8125 6.73872 35.7941 6.74362C35.7757 6.74853 35.7568 6.75191 35.7375 6.75372C35.7181 6.75559 35.6985 6.75588 35.6785 6.75471C35.6585 6.75355 35.6382 6.75104 35.6177 6.74736C35.5971 6.74369 35.5761 6.73878 35.555 6.73265C35.5338 6.72652 35.5124 6.71911 35.4906 6.71053C35.4689 6.70196 35.4468 6.69215 35.4245 6.68112L35.0396 6.49094L34.7567 7.05905L34.7552 7.06214L34.7536 7.06523L34.7505 7.06366L34.7475 7.06214L34.4854 6.93265L34.4823 6.93113L34.4792 6.92961L34.4807 6.92652L34.4823 6.92343ZM35.1668 6.23556L35.5153 6.40783C35.5302 6.41519 35.5446 6.42132 35.5587 6.42622C35.5727 6.43112 35.5864 6.4348 35.5997 6.43731C35.6128 6.43976 35.6256 6.44104 35.638 6.4411C35.6504 6.44116 35.6624 6.44005 35.674 6.43778C35.6855 6.43556 35.6964 6.4317 35.7068 6.42628C35.7173 6.42085 35.7273 6.41385 35.7368 6.40521C35.7464 6.39646 35.7555 6.38607 35.7641 6.37405C35.7727 6.36197 35.7809 6.34825 35.7886 6.3329C35.7961 6.31785 35.802 6.30338 35.8063 6.28949C35.8105 6.27566 35.8132 6.26235 35.8143 6.24957C35.8153 6.23697 35.8149 6.22489 35.8128 6.21339C35.8108 6.20195 35.8072 6.19092 35.8022 6.18054C35.7969 6.16997 35.7906 6.15976 35.783 6.14995C35.7754 6.14015 35.7667 6.13075 35.7568 6.12188C35.7468 6.11289 35.7356 6.10432 35.7231 6.09609C35.7107 6.08792 35.697 6.08016 35.6822 6.07281L35.3336 5.90053L35.1668 6.23556ZM36.2871 7.89362L37.1462 6.57847L37.1481 6.57561L37.15 6.57269L37.1529 6.57462L37.1558 6.57649L38.0554 7.15965L38.0583 7.16152L38.0612 7.16339L38.0593 7.16631L38.0574 7.16917L37.9101 7.39461L37.9083 7.39752L37.9064 7.40038L37.9035 7.39852L37.9006 7.39665L37.252 6.97618L37.0595 7.27089L37.6515 7.65465L37.6544 7.65651L37.6573 7.65838L37.6554 7.6613L37.6535 7.66416L37.5062 7.88965L37.5043 7.89251L37.5025 7.89537L37.4996 7.89356L37.4967 7.89164L36.9046 7.50787L36.6949 7.82884L37.3643 8.26279L37.3672 8.26466L37.3701 8.26652L37.3682 8.26938L37.3663 8.2723L37.219 8.49774L37.2172 8.5006L37.2153 8.50351L37.2124 8.50165L37.2095 8.49978L36.2892 7.90313L36.2862 7.90126L36.2834 7.8994L36.2852 7.89648L36.2871 7.89362ZM38.4071 9.43187C38.3787 9.40998 38.3523 9.38693 38.3281 9.36277C38.3038 9.33861 38.2814 9.3134 38.2613 9.28708C38.2411 9.26071 38.2229 9.23322 38.2067 9.20468C38.1907 9.17615 38.1766 9.14644 38.1646 9.11569C38.1526 9.08488 38.1429 9.05359 38.1355 9.02196C38.1281 8.99027 38.123 8.95812 38.1202 8.92556C38.1174 8.89305 38.1169 8.86002 38.1188 8.82653C38.1206 8.79303 38.1247 8.75912 38.1311 8.72469C38.1376 8.69026 38.1464 8.656 38.1577 8.62192C38.169 8.58778 38.1828 8.55382 38.199 8.51997C38.2151 8.48624 38.2337 8.45257 38.2547 8.41902C38.2757 8.38552 38.2992 8.35214 38.3251 8.31887C38.3512 8.28532 38.378 8.2541 38.4056 8.22521C38.4331 8.19638 38.4614 8.16983 38.4903 8.14573C38.5193 8.12157 38.549 8.09974 38.5794 8.08025C38.6098 8.06075 38.641 8.04366 38.6728 8.02889C38.7046 8.01413 38.7367 8.00164 38.7687 7.99155C38.8008 7.98145 38.8332 7.97363 38.8656 7.96814C38.898 7.96266 38.9306 7.95945 38.9633 7.95857C38.996 7.95776 39.029 7.95921 39.0619 7.96295C39.0949 7.96674 39.1273 7.97281 39.1592 7.9811C39.1911 7.98945 39.2224 8.00006 39.2532 8.0129C39.2839 8.0258 39.314 8.04091 39.3435 8.0583C39.3731 8.0757 39.4021 8.09536 39.4304 8.11725C39.457 8.13779 39.4818 8.15938 39.5048 8.1819C39.5278 8.20443 39.5489 8.22795 39.5683 8.2524C39.5877 8.27691 39.6052 8.30241 39.621 8.32891C39.6368 8.35546 39.6507 8.38295 39.6628 8.41137C39.6749 8.43985 39.685 8.46868 39.6932 8.49791C39.7013 8.52709 39.7074 8.55668 39.7116 8.58656C39.7157 8.6165 39.7178 8.64679 39.7179 8.67748C39.7181 8.70812 39.7163 8.73916 39.7124 8.77056L39.712 8.774L39.7116 8.7775L39.7081 8.77704L39.7047 8.77657L39.406 8.7359L39.4025 8.73543L39.399 8.73496L39.3996 8.73152L39.4 8.72808C39.4027 8.70964 39.4042 8.69143 39.4047 8.67369C39.4051 8.65583 39.4043 8.63826 39.4025 8.62104C39.4006 8.60383 39.3976 8.58691 39.3935 8.57028C39.3894 8.55365 39.3841 8.53725 39.3778 8.5212C39.3714 8.50515 39.3639 8.48957 39.3553 8.47457C39.3466 8.45951 39.3369 8.44498 39.326 8.43104C39.3151 8.41703 39.303 8.40355 39.2898 8.39059C39.2766 8.37758 39.2623 8.36509 39.2468 8.35319C39.2296 8.33982 39.212 8.32809 39.1943 8.31788C39.1765 8.30767 39.1584 8.29903 39.14 8.29191C39.1218 8.28485 39.1031 8.2793 39.0841 8.27528C39.0652 8.27125 39.0459 8.26874 39.0264 8.26781C39.0068 8.26688 38.9872 8.26734 38.9678 8.26921C38.9483 8.27108 38.9289 8.27435 38.9095 8.27901C38.8901 8.28368 38.8707 8.28975 38.8514 8.29722C38.8321 8.30469 38.8128 8.31362 38.7935 8.32395C38.7742 8.33428 38.7553 8.34595 38.7366 8.35902C38.718 8.37215 38.6997 8.38657 38.6817 8.40238C38.6638 8.41819 38.6461 8.43547 38.6288 8.45409H38.6288C38.6116 8.47264 38.5946 8.49266 38.5779 8.51408C38.5615 8.53515 38.5464 8.55633 38.5328 8.57745C38.5192 8.59852 38.507 8.61965 38.4961 8.64083C38.4854 8.66196 38.4759 8.68308 38.4679 8.7042C38.4599 8.72539 38.4533 8.74652 38.4481 8.7677C38.4428 8.78877 38.439 8.8096 38.4365 8.8302C38.434 8.85075 38.4329 8.87099 38.4332 8.89083C38.4335 8.91068 38.4352 8.93028 38.4382 8.94954C38.4413 8.96874 38.4456 8.98771 38.4515 9.00638C38.4572 9.02494 38.4644 9.04285 38.473 9.06013C38.4816 9.0774 38.4917 9.09403 38.5032 9.10997C38.5147 9.12596 38.5276 9.1413 38.542 9.15589C38.5563 9.17048 38.5721 9.18449 38.5893 9.19779C38.6048 9.20976 38.6205 9.22049 38.6364 9.22989C38.6523 9.23934 38.6685 9.24758 38.6849 9.25452C38.7012 9.26147 38.7178 9.26718 38.7347 9.27167C38.7515 9.27617 38.7686 9.27944 38.7858 9.28142C38.8032 9.2834 38.8205 9.28428 38.8378 9.2841C38.855 9.28393 38.8722 9.28259 38.8894 9.28014C38.9066 9.27775 38.9237 9.27419 38.9408 9.26958C38.9578 9.26491 38.9749 9.25913 38.992 9.2523V9.25224L38.9952 9.25096L38.9984 9.24968L38.9997 9.25288L39.0011 9.25609L39.1149 9.53411L39.1162 9.53732L39.1176 9.54059L39.1143 9.54187L39.111 9.54309C39.0816 9.55436 39.052 9.56364 39.0224 9.57088C38.9928 9.57811 38.9629 9.58342 38.9329 9.58675C38.9029 9.59002 38.8727 9.59136 38.8423 9.59072C38.8119 9.59007 38.7814 9.58745 38.7508 9.5829C38.7202 9.57829 38.69 9.57169 38.6603 9.56306C38.6306 9.55448 38.6014 9.54386 38.5728 9.53125C38.5441 9.51871 38.5159 9.50411 38.4884 9.48754C38.4608 9.47097 38.4336 9.45241 38.4071 9.43187ZM39.5505 10.35L40.6841 9.26059L40.6866 9.2582L40.689 9.25575L40.6915 9.25825L40.6939 9.26076L41.4391 10.0302L41.4415 10.0327L41.4439 10.0352L41.4414 10.0376L41.4389 10.04L41.2446 10.2268L41.2421 10.2291L41.2396 10.2315L41.2372 10.229L41.2348 10.2265L40.6975 9.67178L40.4435 9.91589L40.934 10.4223L40.9363 10.4247L40.9388 10.4272L40.9362 10.4296L40.9337 10.432L40.7394 10.6188L40.7369 10.6212L40.7345 10.6235L40.732 10.6211L40.7296 10.6186L40.2392 10.1122L39.9625 10.3781L40.517 10.9506L40.5194 10.9531L40.5218 10.9556L40.5194 10.958L40.5168 10.9604L40.3225 11.1471L40.3201 11.1495L40.3176 11.1519L40.3151 11.1494L40.3127 11.1469L39.5503 10.3598L39.5479 10.3572L39.5455 10.3548L39.548 10.3524L39.5505 10.35ZM41.1361 12.0395L42.1466 11.2276L41.86 10.8736L41.8578 10.8709L41.8556 10.8682L41.8583 10.8661L41.861 10.8639L42.0712 10.695L42.0739 10.6929L42.0766 10.6907L42.0788 10.6934L42.081 10.6961L42.8466 11.6418L42.8487 11.6444L42.8509 11.6471L42.8482 11.6493L42.8455 11.6514L42.6353 11.8203L42.6326 11.8225L42.6299 11.8246L42.6278 11.822L42.6256 11.8193L42.3404 11.467L41.3299 12.2788L41.3272 12.2809L41.3245 12.2831L41.3223 12.2804L41.3201 12.2777L41.1351 12.0491L41.1329 12.0465L41.1307 12.0438L41.1334 12.0416L41.1361 12.0395ZM43.2569 13.4554C43.2517 13.4476 43.2475 13.4396 43.2441 13.4314C43.2408 13.4232 43.2383 13.4149 43.2367 13.4066L43.2366 13.4063V13.4062C43.2351 13.3979 43.2344 13.3895 43.2347 13.381C43.2349 13.3724 43.236 13.3637 43.2381 13.3548C43.2401 13.3461 43.2428 13.3378 43.2461 13.33C43.2494 13.3222 43.2535 13.3149 43.2581 13.3081C43.2628 13.3013 43.2682 13.295 43.2742 13.2892C43.2801 13.2835 43.2868 13.2782 43.2941 13.2735C43.3021 13.2684 43.3101 13.2642 43.3182 13.2608C43.3264 13.2574 43.3347 13.2548 43.343 13.2532C43.3513 13.2515 43.3598 13.2508 43.3684 13.2509C43.377 13.251 43.3857 13.252 43.3944 13.2538C43.4032 13.2557 43.4115 13.2583 43.4193 13.2617C43.4272 13.265 43.4347 13.2692 43.4417 13.2741C43.4486 13.279 43.4552 13.2847 43.4612 13.2911C43.4673 13.2975 43.4729 13.3046 43.478 13.3125C43.4829 13.3201 43.4871 13.3278 43.4903 13.3357C43.4936 13.3436 43.496 13.3517 43.4975 13.3598C43.499 13.368 43.4997 13.3763 43.4995 13.3848C43.4994 13.3932 43.4984 13.4019 43.4965 13.4106C43.4947 13.4193 43.492 13.4276 43.4886 13.4354C43.4853 13.4432 43.4811 13.4507 43.4762 13.4576C43.4712 13.4646 43.4656 13.471 43.4591 13.4771C43.4527 13.4831 43.4456 13.4887 43.4377 13.4938C43.4304 13.4985 43.4228 13.5024 43.4151 13.5055C43.4074 13.5087 43.3994 13.5109 43.3913 13.5125C43.3832 13.5139 43.3748 13.5146 43.3663 13.5145C43.3578 13.5143 43.3491 13.5134 43.3402 13.5117C43.3314 13.51 43.323 13.5075 43.3151 13.5043C43.3071 13.501 43.2996 13.4971 43.2926 13.4924C43.2857 13.4877 43.2792 13.4823 43.2732 13.4761C43.2673 13.47 43.2618 13.4631 43.2569 13.4554ZM43.3913 15.3559L44.7925 14.6393L44.7956 14.6378L44.7987 14.6362L44.8003 14.6393L44.8018 14.6424L45.1348 15.2885C45.1462 15.3106 45.1564 15.3324 45.1653 15.3539C45.1742 15.3754 45.182 15.3967 45.1885 15.4175C45.195 15.4385 45.2004 15.4592 45.2045 15.4796C45.2086 15.5 45.2115 15.5201 45.2131 15.5398C45.2148 15.5597 45.2149 15.5792 45.2135 15.5983C45.2121 15.6174 45.2091 15.6362 45.2046 15.6547C45.2001 15.673 45.194 15.6911 45.1864 15.7086C45.1789 15.7261 45.1697 15.7433 45.159 15.7602C45.1484 15.777 45.1358 15.7933 45.1213 15.8092C45.1069 15.8251 45.0906 15.8405 45.0724 15.8555C45.0543 15.8703 45.0342 15.8848 45.0124 15.8988C44.9906 15.9127 44.9669 15.9262 44.9413 15.9393C44.9158 15.9524 44.8909 15.9637 44.8667 15.9733C44.8425 15.9829 44.819 15.9907 44.7963 15.9967C44.7734 16.0027 44.7512 16.007 44.7297 16.0095C44.7083 16.012 44.6875 16.0127 44.6674 16.0116C44.6474 16.0106 44.6278 16.008 44.6089 16.004C44.5899 16 44.5715 15.9945 44.5537 15.9875C44.536 15.9805 44.5188 15.9721 44.5021 15.9622C44.4855 15.9523 44.4695 15.9408 44.4541 15.928C44.4388 15.9153 44.4239 15.9013 44.4095 15.8861C44.3951 15.871 44.3813 15.8547 44.368 15.8373C44.3546 15.8198 44.3417 15.8011 44.3294 15.7813C44.317 15.7616 44.3051 15.7407 44.2937 15.7185L44.0975 15.3378L43.5311 15.6274L43.5281 15.629L43.525 15.6306L43.5234 15.6275L43.5218 15.6244L43.3882 15.3652L43.3866 15.3621L43.3851 15.3591L43.3882 15.3575L43.3913 15.3559ZM44.352 15.2076L44.5297 15.5525C44.5373 15.5671 44.5453 15.5807 44.5537 15.5929C44.5621 15.6052 44.5708 15.6163 44.58 15.6261C44.5891 15.6359 44.5987 15.6444 44.6086 15.6519C44.6185 15.6593 44.6288 15.6655 44.6395 15.6705C44.65 15.6754 44.6612 15.6788 44.6728 15.6806C44.6844 15.6824 44.6967 15.6827 44.7094 15.6814C44.7223 15.68 44.7359 15.6771 44.75 15.6725C44.7642 15.6679 44.779 15.6617 44.7943 15.6539C44.8092 15.6463 44.8226 15.6381 44.8343 15.6294C44.8459 15.6208 44.8561 15.6117 44.8646 15.602C44.873 15.5926 44.8797 15.5826 44.885 15.5721C44.8902 15.5617 44.8939 15.5507 44.896 15.5393C44.8981 15.5277 44.8991 15.5158 44.8988 15.5034C44.8986 15.4911 44.8971 15.4783 44.8945 15.4652C44.8918 15.4522 44.8879 15.4386 44.8828 15.4247V15.4246C44.8776 15.4107 44.8713 15.3964 44.8638 15.3817L44.6861 15.0368L44.352 15.2076ZM44.2846 17.1952L45.7457 16.6091L45.7489 16.6078L45.7521 16.6065L45.7534 16.6097L45.7547 16.6129L46.1556 17.6047L46.1569 17.6079L46.1583 17.6111L46.155 17.6124L46.1518 17.6137L45.9013 17.7142L45.8981 17.7154L45.8949 17.7167L45.8936 17.7136L45.8923 17.7104V17.7103L45.6032 16.9952L45.2759 17.1266L45.5397 17.7793L45.541 17.7825L45.5423 17.7857L45.5391 17.787L45.5359 17.7883L45.2854 17.8888L45.2822 17.89L45.279 17.8913L45.2777 17.8881L45.2764 17.8849L45.0125 17.2322L44.656 17.3753L44.9543 18.1132L44.9556 18.1164L44.9568 18.1196L44.9536 18.1209L44.9504 18.1222L44.7 18.2227L44.6967 18.224L44.6935 18.2252L44.6922 18.222L44.6909 18.2189V18.2188L44.2807 17.2042L44.2795 17.201L44.2782 17.1978L44.2814 17.1965L44.2846 17.1952ZM43.4882 35.8605L43.551 35.9053L43.7995 35.5239L43.8014 35.521L43.8032 35.5181L43.8062 35.52L43.809 35.5219L44.0355 35.6683L44.0384 35.6701L44.0413 35.6721L44.0394 35.6749L44.0376 35.6778L43.3736 36.6969L43.3717 36.6997L43.3698 36.7027L43.367 36.7008L43.364 36.6989V36.6989L43.1643 36.5697C43.1169 36.6782 43.0806 36.7636 43.0605 36.8117C42.783 37.4745 42.5186 38.0751 42.2402 38.7451C41.988 39.352 41.6581 40.0694 41.3525 40.6124C41.2464 40.801 41.1471 40.9838 41.0485 41.1628C41.5312 40.7405 41.9951 40.2986 42.4389 39.8383C43.4494 38.7903 44.3567 37.6461 45.1465 36.4203C44.8958 35.8285 44.4696 35.2517 43.9935 35.0008C43.8759 35.0964 43.6751 35.4721 43.4882 35.8605ZM43.262 36.3488L43.383 36.1631L43.3552 36.1434C43.3226 36.2143 43.2913 36.2834 43.262 36.3488ZM49.3233 32.8986C49.1702 33.309 49.0061 33.715 48.8311 34.1164C48.5866 34.6768 48.1539 35.5558 47.8695 36.0932L47.8694 36.0931C48.0191 36.8434 48.0544 37.6507 47.8377 38.3915C47.5422 39.4011 47.0032 39.9198 46.4138 40.4653C45.465 41.3433 44.7264 41.0455 44.8098 42.2432C44.8658 43.0468 44.0542 43.0478 43.8929 42.987C43.6916 42.911 43.3949 42.422 43.3048 42.0199C41.5316 43.7163 39.5199 45.1364 37.3425 46.2428C33.827 48.0292 29.8788 49 25.8034 49C18.8921 49 12.6336 46.2584 8.10217 41.8259C3.56879 37.3916 0.764893 31.2659 0.764893 24.5C0.764893 17.7341 3.56879 11.6084 8.10217 7.17413C12.6336 2.74158 18.8921 0 25.8034 0C32.7147 0 38.9731 2.74158 43.5046 7.17413C48.038 11.6084 50.8418 17.7341 50.8418 24.5C50.8418 24.5317 50.8404 24.6445 50.8377 24.839C51.4935 24.854 52.0289 24.8927 52.2269 24.9784C52.7573 25.2081 52.7215 26.6944 52.4606 26.9664C52.1837 27.2551 51.2273 27.9032 51.1125 28.1218C51.5283 28.1401 51.7751 28.2268 51.8502 28.5747C52.1522 28.5557 52.3437 28.4972 52.5124 28.6972L52.8876 29.1018C53.0907 29.6014 51.9152 30.5721 51.5806 30.8367L50.7697 31.5572C50.6316 31.6732 50.4574 31.7922 50.3279 31.9015C50.0338 32.1494 49.6707 32.6585 49.3233 32.8986ZM47.488 34.8213C47.6853 34.4379 47.7851 34.207 47.9849 33.7489C48.0778 33.5358 48.1675 33.3214 48.2539 33.1058C48.0599 33.1123 47.8543 33.115 47.651 33.1179C47.5656 33.3253 47.4839 33.5167 47.4058 33.6923C47.3244 33.8755 47.243 34.0526 47.1617 34.2238C47.2811 34.4021 47.3904 34.5989 47.488 34.8213ZM16.5627 39.7398C16.9883 39.9867 17.4216 40.2153 17.8617 40.4251C17.9258 40.4556 17.99 40.4858 18.0546 40.5157C18.0353 38.3926 18.0621 35.2271 17.9624 34.3522C17.7924 34.6316 17.6072 35.5554 17.5135 35.9499C17.4415 36.253 17.3877 36.5007 17.3315 36.8201L16.5627 39.7398ZM21.1834 7.36811C20.2492 7.60913 19.3368 7.92274 18.4548 8.30539C17.549 8.69843 16.6763 9.16395 15.8459 9.69798C16.2932 10.3441 16.7808 10.9308 17.4251 11.2661C18.4812 11.8156 20.4219 12.3541 20.6504 10.6685C20.683 10.4282 20.7366 10.3794 20.7596 10.1686C20.8793 9.07606 20.8703 8.32185 21.1834 7.36811ZM43.0905 19.1934C42.1739 16.3377 40.5503 13.8045 38.4189 11.7829C36.4667 9.93124 34.0886 8.50918 31.438 7.66159C31.9892 8.56293 32.3257 9.61085 32.3817 10.7343C32.4397 11.8972 32.0758 13.7076 31.4761 14.6494C31.2994 14.9271 31.1569 15.1762 30.9645 15.3602C30.3374 15.9596 29.7889 16.4818 29.0508 17.0277C28.6811 17.3012 28.7204 17.2878 28.6985 17.8778C28.6621 18.8587 28.884 19.981 29.499 20.6809C30.0851 21.3476 31.6345 22.0115 32.6461 22.3306C33.7871 22.6905 35.1256 23.2504 36.0167 23.7773C36.7927 24.2362 37.0461 24.8258 37.3417 24.8569C37.6392 24.8881 39.5357 24.8848 39.7254 24.8318C39.8574 24.7543 40.0525 24.2174 40.8265 23.8331C41.39 23.5532 41.7651 23.463 42.5059 23.4781C43.3882 23.4962 45.5285 23.5194 45.4754 22.281C45.4622 21.9741 45.2737 21.744 45.0979 21.6168C44.6483 21.2916 43.8503 21.7287 43.2994 21.6742C42.809 21.6257 42.8578 21.5596 42.5831 21.3799C42.4165 21.2708 39.5104 21.1913 39.2687 21.2329C39.1097 21.2603 38.993 21.2859 38.8135 21.2993C38.9412 20.9864 39.9629 20.8578 40.2735 20.8506C40.4687 20.8462 40.6607 20.851 40.8564 20.8387C40.6768 20.2299 39.34 20.1877 38.7916 20.3324C38.687 20.36 38.8506 20.3431 38.7046 20.3385L38.6454 20.3196C38.7843 20.1174 39.2066 19.9717 39.5298 19.9569C40.5425 19.9108 41.5836 21.0718 42.3179 20.5338C42.4214 19.6908 42.1496 19.6972 42.8606 19.3217C42.9378 19.2809 43.0141 19.2374 43.0905 19.1934ZM45.3829 37.3157C44.6537 38.382 43.8356 39.3855 42.938 40.3165C41.9451 41.3462 40.8556 42.2862 39.6821 43.1235C39.2312 43.6186 38.9913 43.6833 38.2051 44.3172C37.9997 44.4827 37.6509 44.7021 37.3843 44.8452C37.0765 45.0103 36.884 45.0383 36.6453 44.9621C35.0183 45.7874 33.3039 46.4213 31.5381 46.855C29.6678 47.3143 27.742 47.5492 25.8034 47.5492C24.3834 47.5492 22.9927 47.4262 21.6419 47.1906C21.6311 47.1889 21.6204 47.187 21.6099 47.1849C16.7872 46.3367 12.4736 44.052 9.14846 40.7996C4.88374 36.628 2.24593 30.8652 2.24593 24.5C2.24593 23.0141 2.39309 21.5344 2.68325 20.0812C2.973 18.6304 3.40634 17.205 3.97922 15.8254L4.00997 15.838C3.95901 15.5206 3.93598 15.1617 4.04618 14.7364C4.13218 14.4043 4.19849 14.1171 4.28268 13.8535C2.62513 17.0516 1.69068 20.6689 1.69068 24.5C1.69068 31.0104 4.38818 36.9042 8.74945 41.1703C13.1126 45.4381 19.1419 48.0778 25.8034 48.0778C29.7314 48.0778 33.5361 47.1425 36.923 45.4214C40.2059 43.7532 43.0958 41.3482 45.3246 38.3426C45.3996 38.0281 45.4239 37.6874 45.3829 37.3157ZM46.6732 33.6324C46.7037 33.5656 46.7337 33.4984 46.7712 33.4141C46.813 33.32 46.8529 33.2289 46.8908 33.1409C46.603 33.1592 46.374 33.1937 46.2695 33.2636C46.4101 33.3822 46.545 33.5034 46.6732 33.6324ZM10.4313 7.03524C12.5688 5.23421 15.0017 3.83818 17.606 2.89232C20.2105 1.94634 22.9843 1.45077 25.8034 1.45077C32.3064 1.45077 38.1949 4.03018 42.4583 8.20041C46.723 12.372 49.3608 18.1348 49.3608 24.5C49.3608 24.575 49.3596 24.6867 49.3571 24.8348C49.5424 24.8329 49.7297 24.8316 49.9155 24.8312C49.9159 24.8026 49.9161 24.6919 49.9161 24.5C49.9161 17.9896 47.2186 12.0958 42.8573 7.82977C38.4942 3.56191 32.4648 0.922221 25.8034 0.922221C19.1419 0.922221 13.1126 3.56191 8.74945 7.82977C7.24562 9.30074 5.93958 10.9653 4.87384 12.782C5.39845 12.152 6.12341 11.6534 6.86724 11.3215L7.26326 11.1252C7.29601 10.3425 7.48617 9.813 7.81874 9.25166C8.34493 8.36352 9.32719 7.52136 10.4334 7.03757L10.4313 7.03524ZM11.3167 41.7983C12.0818 42.4118 12.8884 42.9778 13.7317 43.4915C13.974 43.2795 14.2119 43.0656 14.4509 42.8356C15.3501 41.9702 15.4783 40.5614 15.7287 39.0192C15.9669 37.5514 16.2913 36.0941 16.4761 34.6236C16.595 33.6775 16.4823 33.08 15.8887 32.7146C15.5563 32.5099 14.3086 32.1921 13.8509 32.2236C13.5513 32.6135 13.4025 33.5889 13.2544 34.1549C12.8872 35.5584 12.4066 36.8766 12.3109 38.3611C12.2614 39.1289 12.1265 39.8218 11.8748 40.4936C11.7142 40.9225 11.514 41.3678 11.3167 41.7983ZM19.1374 45.8923C19.2209 45.9171 19.3047 45.9415 19.3886 45.9655L19.4251 45.1555C19.3423 44.9949 19.4072 44.2105 19.4074 43.8068C19.4077 43.5024 19.4649 43.2339 19.3194 43.1389C19.1777 43.2029 19.2602 43.0414 19.2047 43.3239C19.0965 43.8751 19.1288 44.9689 19.1274 45.5776C19.1272 45.6806 19.134 45.7884 19.1374 45.8923ZM20.0992 46.1564C20.4239 46.2379 20.7516 46.3122 21.0816 46.38L21.0793 43.676C21.0805 43.0504 21.1087 42.9342 20.804 42.5526C20.3392 42.5071 20.2117 42.953 20.1241 43.339C19.9674 44.0292 20.1289 45.353 20.0992 46.1564ZM22.3697 46.607C23.4897 46.772 24.6363 46.8576 25.8034 46.8576C27.4365 46.8576 29.057 46.687 30.6382 46.3527C30.5408 46.0623 30.5838 45.6767 30.584 45.3141C30.5846 44.3264 30.5829 44.7508 30.5839 43.7632C30.5846 42.869 30.7314 41.9171 29.6121 41.7596C28.0295 41.537 27.5242 41.921 27.5114 40.8878C27.5035 40.2504 27.4934 35.1652 27.5532 35.0137C28.0575 34.8282 27.9594 35.4184 28.0022 35.8136C28.1308 37.0019 28.0393 38.2968 28.2991 39.4347C28.5008 40.318 28.7475 40.6218 29.6928 40.6778C30.2677 40.7118 31.1983 40.15 31.5243 39.8833C32.5151 39.073 33.1061 38.2627 33.378 36.4926C33.4922 35.7496 33.5783 34.8982 33.6257 34.1326C33.6513 33.7194 33.6435 33.2445 33.6443 32.8256C33.6452 32.3227 33.5725 32.0787 33.3251 31.8278C33.0866 31.7218 29.9447 32.8972 28.1047 31.1782C27.7331 30.831 27.3114 30.5031 27.1659 29.9722C26.9294 29.1089 28.1361 29.4509 28.5843 29.4942C30.242 29.6548 31.9526 29.688 33.5898 29.3515C33.9901 29.2692 34.057 29.1575 34.4269 29.2847C34.5053 29.8321 34.4332 30.2709 34.4131 30.8203C34.3952 31.3107 34.4088 31.898 34.4259 32.3917C34.4778 33.8814 35.1854 33.548 35.9225 32.9368C36.2478 32.6671 36.2826 32.2932 36.2955 31.7369C36.3077 31.2142 36.3094 30.6905 36.3097 30.1677C36.3101 29.6446 36.3099 29.1217 36.3136 28.5989C36.3191 27.7985 36.2222 27.9041 35.7502 27.5713C35.4266 27.3431 35.2417 27.0571 35.1932 26.5129C35.1337 25.8446 35.1228 25.9085 34.4696 25.6631C33.6281 25.347 32.5107 25.3155 31.6115 25.3593C29.3017 25.4719 27.6063 26.1599 25.9499 26.0435C25.8517 25.8879 25.5919 25.7387 25.6982 25.452C25.8479 25.0481 26.7157 25.0599 27.0643 24.9787C27.3131 24.9207 27.5263 24.8221 27.7679 24.7636C28.7515 24.5257 29.633 24.1696 29.9925 23.3617C30.4998 22.2216 28.225 22.2101 27.6983 19.345L27.6243 18.7756C27.6077 18.7076 27.6084 18.7239 27.585 18.6675C27.581 18.6579 27.5685 18.6522 27.5653 18.6317C27.5621 18.6108 27.5527 18.6067 27.5442 18.5958C27.3433 18.6597 27.0334 18.9951 26.8882 19.1433C26.6885 19.3472 26.4974 19.4824 26.2864 19.6774C26.0749 19.8729 25.9359 20.0372 25.7108 20.2342C25.5111 20.4089 25.2839 20.5465 25.0521 20.7143C23.5717 21.7862 22.6762 21.8777 24.1567 22.9538C24.511 23.2114 25.3851 24.0342 24.1149 23.9213C22.1827 23.7496 19.9298 22.9959 18.0034 23.3716C17.3355 23.5019 16.857 23.7772 16.4066 24.0855C15.9437 24.4023 15.7271 24.8109 15.5299 25.4779C15.1664 26.7069 14.727 30.2266 15.6536 31.3778C15.8178 31.582 16.0133 31.7342 16.2626 31.9077C16.5355 32.0977 16.7048 32.1194 17.0572 32.2535C17.458 32.4061 17.4822 32.4144 17.6937 32.0373C17.9357 31.6055 18.0178 30.6063 18.0275 30.079C18.0556 28.5426 18.3415 29.2354 20.0053 29.5262C21.342 29.7597 22.7557 29.7862 24.0919 29.5576C24.4479 29.4967 25.8188 29.0941 25.5989 29.8809C25.5489 30.0598 25.2717 30.4917 25.1877 30.6093C24.318 31.8259 22.9533 32.1861 22.0037 32.1963C20.6103 32.2115 19.7288 31.4733 19.4797 31.5835C19.034 31.822 19.2548 33.2091 19.289 33.7414C19.4367 36.0338 19.7752 38.5702 21.2449 40.2766C21.5306 40.6082 21.46 40.5986 21.9839 40.7611C22.4082 40.8927 22.6 40.856 23.0424 40.7705C23.4073 40.7 23.6326 40.5042 23.8017 40.2973C24.8359 39.0313 24.1961 36.8616 24.6307 36.2727L24.9105 36.3198C25.0307 36.6119 24.9528 39.3159 24.9518 39.885C24.9489 41.5813 25.2434 41.8078 23.4757 41.9648C23.0977 41.9983 23.0646 42.0075 22.8627 42.1916C22.2671 42.7346 22.3716 43.625 22.3716 44.4168C22.3716 45.5544 22.3682 45.5476 22.3697 46.607ZM31.873 46.0562C32.2134 45.9645 32.5518 45.8651 32.8877 45.7581C32.8782 45.4772 32.9069 45.1305 32.9069 44.8089C32.9069 43.9723 33.1346 42.4826 32.2019 42.5323C31.6673 42.7837 32.0005 44.9841 31.873 46.0562ZM33.5629 45.5314C33.6122 45.514 33.6614 45.4965 33.7105 45.4788C33.66 44.7784 33.7127 43.6337 33.7138 43.1374C33.6089 43.194 33.6523 43.1531 33.6196 43.2819C33.5554 43.535 33.5586 44.4583 33.5482 44.7216C33.5328 45.1161 33.5431 45.3706 33.5629 45.5314ZM34.0181 45.3654C34.6413 45.1308 35.2549 44.8691 35.8569 44.5809C35.1071 44.1813 34.9515 43.9998 34.2503 43.1878C34.1348 43.0541 34.2118 43.1069 34.0627 43.036C34.0565 43.0482 34.0513 43.0638 34.0483 43.0745C34.0452 43.0852 34.0386 43.1001 34.0353 43.1135L34.013 45.1803C34.013 45.2434 34.0153 45.3054 34.0181 45.3654ZM26.7316 11.3425C26.7561 11.0875 26.4941 11.0432 26.2588 11.0855C26.2835 11.2756 26.505 11.3868 26.7316 11.3425ZM25.1929 12.1726C25.4149 11.8378 25.4701 11.4875 26.1464 11.5413C26.3679 11.5589 26.5679 11.7592 26.9334 11.7641C27.5629 11.7724 27.7238 10.8361 26.5056 10.5485C25.8364 10.3904 24.9623 10.4364 24.409 10.791C24.0567 11.0167 24.1183 11.3951 24.3744 11.668C24.5805 11.8876 24.7391 12.171 25.1929 12.1726ZM27.3692 10.2136C27.6875 10.191 27.6152 10.1207 27.7629 9.93041C28.5103 9.79106 28.9527 10.5569 29.3115 10.8503C29.6762 11.1485 29.9346 10.6738 29.0013 9.54257C28.2737 8.66061 27.4454 7.97252 26.1383 7.43306C25.7006 7.25245 24.4954 7.08379 23.9434 7.19502C23.3385 7.31687 23.3169 7.70985 23.5643 7.76833C23.9205 7.85248 23.6059 7.61923 24.6454 7.96114C25.1904 8.14042 26.3625 9.01992 26.7811 9.53324C26.9326 9.71905 27.2005 10.0992 27.3692 10.2136ZM39.0031 31.4299C39.2133 31.4869 39.6294 32.039 39.9369 32.3344C40.3757 32.7561 40.7697 32.9716 40.9901 33.1744C40.8737 33.4586 40.3157 33.9349 40.0675 34.1434C39.85 34.3263 39.2479 34.9087 39.0496 34.9958C39.0279 34.5264 38.921 31.6732 39.0031 31.4299ZM39.0817 29.7608C39.2433 29.8158 39.6503 30.0883 39.7797 30.1835C40.7167 30.8729 41.1832 30.9426 42.3439 30.9523C42.2671 31.2107 41.7756 32.2105 41.6311 32.3619C41.3575 32.2987 40.362 31.4561 40.1715 31.2729C39.9614 31.0709 39.1633 30.1541 39.0817 29.7608ZM49.5508 31.8288C49.5587 31.5579 49.6959 31.5709 50.2042 31.2546C50.7967 30.8859 52.0186 30.1323 52.392 29.6446L52.4347 29.6738C52.4879 29.7493 51.26 30.7734 51.1355 30.876C50.84 31.1198 50.0406 31.8279 49.5508 31.8288ZM52.3023 29.0359C52.2198 29.1657 51.5041 29.7074 51.2927 29.854C50.9048 30.123 50.5865 30.3152 50.1633 30.5636C49.9176 30.7077 49.8026 30.7697 49.6032 30.9187C49.4403 31.0406 49.2578 31.1829 49.0687 31.3013C48.9558 31.372 47.7105 31.9353 47.8785 31.4237C47.9827 31.107 48.5439 30.7769 48.9049 30.6113C49.2097 30.4715 50.1484 29.9844 50.3547 29.792C50.4783 29.6766 50.4266 29.6535 50.5821 29.5402C50.8316 29.3585 51.4712 29.0285 51.7884 28.9069C51.9347 28.8508 52.507 28.7137 52.3023 29.0359ZM34.3509 41.5408L34.3512 34.5688C34.35 34.2025 34.3495 34.2586 34.6191 34.1179C34.7939 34.0266 34.926 33.9653 35.1349 33.892C35.5544 33.7449 35.9037 33.6567 36.3892 33.6581C36.6087 33.9205 36.566 33.9096 36.576 34.3525C36.5821 34.6212 36.6077 34.8695 36.6153 35.1346C36.6304 35.6592 36.6974 37.2299 36.5473 37.6981C36.4381 38.0388 36.4035 38.0171 36.2427 38.2655C36.0964 38.4916 35.6134 39.1618 35.7248 39.4497C36.0811 39.602 36.1472 39.1798 36.4846 38.6357C36.7013 38.2864 36.9469 37.9626 37.2018 37.6508C38.4887 36.0758 39.0396 35.5321 40.5818 34.2204C41.0497 33.8225 41.7596 32.984 42.1212 32.3552C42.4759 31.7383 42.4897 31.5262 42.9885 30.7335C43.1092 30.5416 43.1924 30.3514 43.3033 30.1771C43.8211 29.363 44.8915 29.5691 45.9252 29.724C46.4532 29.803 46.9833 29.8168 47.5371 29.8221C49.1009 29.8372 50.4888 28.6007 51.5104 28.7021L50.213 29.4793C49.7916 29.7583 49.3727 30.0571 48.8592 30.2635C47.2558 30.9082 46.3229 30.2902 45.5119 31.2006C44.8581 31.9344 43.0453 35.5954 42.5368 36.7365C42.1365 37.6347 41.6173 38.8061 41.0617 39.4922C40.3141 40.4155 39.8559 40.9288 38.9321 41.641C38.5539 41.9325 38.1567 42.3228 37.7841 42.6329C37.4417 42.9178 37.049 43.4535 36.5605 43.5548C35.9276 43.686 35.4684 43.2126 35.1097 42.9386C34.6174 42.5626 34.3586 42.4611 34.3481 42.1109C34.3427 41.9291 34.3509 41.7257 34.3509 41.5408ZM36.447 27.4034C37.1975 27.3414 40.8344 27.3955 41.8936 27.3949C42.6097 27.3946 43.785 27.3104 44.3073 27.6764C45.1546 28.2702 44.7665 28.6928 44.0346 29.1201C43.4483 29.4625 42.8861 29.7802 42.0739 29.8651C40.4779 30.032 39.9454 29.7218 38.8447 29.0663C37.7975 28.4428 37.4105 28.1728 36.447 27.4034ZM35.7246 25.9774C36.2507 25.6525 36.9532 25.7585 37.6938 25.7601L50.8183 25.7495C51.222 25.7493 51.512 25.6799 51.7662 25.9117C52.0173 26.1406 51.868 26.4699 51.7577 26.6138C51.2789 27.2375 48.2473 27.0055 48.0184 27.0056L36.9063 27.0057C36.5705 27.0049 36.2022 27.0301 35.9307 26.913C35.7192 26.8217 35.7415 26.8021 35.7183 26.5485C35.6995 26.3446 35.6961 26.1803 35.7246 25.9774ZM9.30106 25.0336C9.37687 25.2091 9.47517 26.6223 9.77277 27.4367C9.90007 27.7849 9.99041 28.1726 10.1259 28.5241C10.2599 28.8723 10.3974 29.1859 10.5669 29.5195C10.9781 30.329 11.6943 31.464 12.2984 32.1064C12.4278 32.244 12.5646 32.3127 12.6722 32.4744C12.7831 32.6411 12.8236 32.9118 12.6342 33.0158C12.2071 33.2505 11.2368 32.0493 11.0609 31.7697C10.6785 31.1618 10.3184 30.7009 10.0051 29.942C9.72919 29.2736 9.48396 28.5062 9.38103 27.6942C9.31923 27.206 9.07523 25.3735 9.30106 25.0336ZM14.233 27.4115C12.8176 26.4927 11.7213 23.5749 12.789 21.9637C13.3467 21.1223 14.6178 20.9353 15.6386 20.8569L19.1463 20.4406C20.3888 20.1967 21.4295 19.7399 22.6103 19.3274C22.7785 19.2687 22.9259 19.1937 23.088 19.1521C23.0855 19.9197 22.9902 20.31 22.6547 20.8531C22.4312 21.2151 21.7522 21.4078 21.2876 21.6227C20.3684 22.0481 19.0497 22.4247 18.068 22.6925C17.3398 22.8911 17.1117 22.9206 16.5701 23.3331C15.9801 23.7826 15.9639 23.7178 15.4838 24.3874C15.2142 24.7634 14.9049 25.2898 14.6887 25.7276C14.4172 26.2775 14.4261 26.8569 14.233 27.4115ZM44.2364 19.0995C44.7946 18.9626 45.1801 19.1799 45.6028 19.5446C46.583 20.3903 47.9566 21.2165 47.0796 23.1332C46.8758 23.5786 46.6447 23.9913 46.3479 24.2769C46.2078 24.4116 45.9881 24.5783 45.7978 24.6873C45.4543 24.8841 45.5047 24.8587 45.0435 24.8565C43.8096 24.8506 42.5032 24.9015 41.2798 24.8508C41.4195 24.5425 42.3893 24.0207 42.9268 23.9124C43.631 23.7705 44.4414 23.7333 45.0324 23.4435C47.1079 22.4259 45.8624 20.2135 45.4372 20.2403C45.2891 20.2497 44.6363 20.8054 43.3568 20.5705C43.1389 20.5305 42.8443 20.5066 42.74 20.2927C43.0693 20.1911 43.4533 20.1508 43.5185 19.971C43.4552 19.9217 43.5165 19.9499 43.4171 19.9263C43.3004 19.8985 42.9076 19.9589 42.7455 19.7532C43.5399 19.3895 44.3575 19.644 44.6438 19.4481C44.6522 19.1608 44.5629 19.2397 44.3076 19.1375L44.2364 19.0995ZM15.4687 16.8948C17.0549 16.8486 18.6046 17.0507 20.1069 17.0139C20.5161 17.0039 21.3127 16.9338 21.6762 17.0144C21.7131 17.3941 21.3928 17.4468 21.0951 17.5499C16.5222 19.132 12.0297 17.1862 9.38724 22.6253C8.68565 24.0694 8.55894 24.5752 8.43275 26.1582C8.23503 28.6373 9.14969 30.9966 10.3483 33.0481C10.612 33.4993 10.959 33.9934 11.2577 34.3636C11.7357 34.956 12.1543 35.2322 12.1219 35.6785C11.7593 35.7356 11.4985 35.4359 11.272 35.2633C9.21424 33.6946 9.74184 34.2335 8.02179 32.1371C6.79184 30.6381 6.05897 28.7406 5.83893 26.6874C5.71415 25.5228 6.09752 23.5601 6.45107 22.4964C7.74985 18.5818 11.5349 17.0094 15.4687 16.8948ZM4.99059 19.9879C4.88016 19.4993 5.86067 17.9213 6.09148 17.6012C6.66378 16.8073 7.06771 16.4368 7.8949 15.8692C8.90282 15.1775 10.9039 14.8326 12.234 14.8614C12.4799 14.8667 13.5722 15.0055 13.7414 15.0906C13.609 15.2222 12.5389 15.2392 12.2364 15.2745C10.1117 15.5221 7.73304 16.3256 6.34052 17.8937C5.77965 18.5252 5.69816 18.7288 5.33735 19.4638C5.29188 19.5564 5.23775 19.6572 5.19077 19.7522C5.0937 19.9485 5.09803 19.9362 4.99059 19.9879ZM4.348 17.542L4.51982 17.1252C4.52357 17.1149 4.5275 17.1033 4.53107 17.0929C4.59299 16.9115 4.62105 16.7497 4.75087 16.596L4.79639 16.5251C4.97208 16.1176 5.25867 15.8183 5.47326 15.5476C5.62821 15.3522 5.6807 15.3134 5.86366 15.1536C6.08047 14.9642 5.96828 15.0097 6.32599 14.8038C6.93807 14.1799 8.46971 13.6282 9.59925 13.3906C11.8871 12.9093 13.7554 13.2126 15.9192 13.8233C16.2249 13.937 16.4855 14.0393 16.7671 14.1517C17.0485 14.2641 17.3786 14.3411 17.6625 14.4464C18.2072 14.6483 18.7989 14.8937 19.3755 15.0715C19.5487 15.125 19.6651 15.1618 19.8425 15.2126C20.0969 15.2854 21.0868 15.5252 21.2202 15.6135L20.9288 15.7023C19.9908 15.8302 18.4859 15.4621 17.5819 15.2504C15.7156 14.8132 13.5411 14.2808 11.5852 14.4171C9.44459 14.5662 7.02178 15.2879 5.62915 16.7059C5.32985 17.0575 4.81127 17.4997 4.23634 18.0756L4.348 17.542ZM22.5821 14.3712C22.3471 14.4105 22.3017 14.2828 22.2168 14.1235C21.9865 13.6919 21.7691 12.9303 22.119 12.603C22.6065 12.1466 22.8658 13.8968 22.5821 14.3712ZM4.51508 15.6741C3.96035 13.4047 6.04462 11.846 7.72659 11.3903C9.31185 10.9608 11.0076 11.2499 12.4631 11.9817L13.691 12.6665C13.373 12.6269 12.7551 12.3883 12.3705 12.2938C10.9427 11.9429 9.3672 12.0244 8.06245 12.5476C7.15377 12.9121 6.58229 13.2521 6.00736 13.8143C5.75563 14.0604 5.49693 14.3853 5.24725 14.7123C5.04256 14.9804 4.89305 15.1524 4.72434 15.4541C4.60986 15.6588 4.69065 15.6088 4.51508 15.6741ZM12.9048 10.4123C13.1084 10.661 13.708 11.2002 13.7487 11.5024C13.0779 11.0739 12.4338 10.1899 11.8738 9.56469C11.337 8.96524 10.5653 8.46728 9.7214 8.36749L9.33627 8.28071C10.286 7.71394 11.6117 8.84386 12.0156 9.2928C12.3463 9.66051 12.6122 10.0551 12.9048 10.4123ZM19.2618 13.8386C19.3341 14.2158 18.1446 13.6799 17.9001 13.5875C16.3284 12.993 16.5717 12.9934 15.3832 12.1699C14.1282 11.3003 13.052 9.83628 11.9148 8.78299C11.0495 7.9815 10.421 7.98571 10.0194 7.79937C11.1157 7.27911 12.3152 7.93004 12.9791 8.41831C13.7823 9.00889 14.4057 9.60852 15.0295 10.2563C16.8314 12.1279 16.5799 12.0704 18.6953 13.4476C18.8748 13.5645 19.2429 13.7402 19.2618 13.8386ZM23.9128 15.7317C23.745 15.7154 23.7152 15.6721 23.622 15.6084C23.6193 15.5103 23.6161 15.469 23.6361 15.3686C23.6525 15.2857 23.6288 15.3939 23.6626 15.2767L23.7664 15.2041C23.7766 15.2027 23.8551 15.1881 23.8691 15.1841C24.0996 15.1488 24.293 15.1636 24.4957 15.1884C24.7339 15.2177 24.875 15.2969 25.0733 15.2862C25.0862 15.0637 24.8358 14.8116 24.7159 14.7306C24.5821 14.6403 24.1838 14.569 23.9828 14.5431C23.945 14.0313 24.724 14.224 24.846 13.7089C24.874 13.5911 24.8733 13.5509 24.7399 13.5396C24.6637 13.5332 24.7302 13.5299 24.6437 13.5493C24.6098 13.5569 24.5155 13.5995 24.4503 13.6161C24.2961 13.6553 24.1756 13.6376 24.0146 13.6622C23.5518 13.733 23.6921 13.9255 23.2872 13.6675C23.2383 13.0472 23.5721 12.5539 23.4859 11.7627C23.4084 11.0529 23.0782 10.8073 22.6088 10.5506C22.094 10.2692 22.044 9.68228 22.2256 9.01467C22.4575 8.16253 23.2095 8.02644 22.9398 7.7395C22.656 7.43756 21.7171 8.5579 21.8403 7.88837C21.8465 7.85417 21.8784 7.76553 21.8931 7.72392C22.1624 6.96252 22.7064 6.42388 23.5645 6.25406C24.7732 6.01491 25.5999 6.02804 26.6677 6.50821C27.9632 7.09079 28.8341 7.88265 29.7566 8.8759C30.29 9.45008 30.3039 9.79788 30.6633 9.7023C30.8004 8.49855 29.1088 6.68615 28.0401 6.01054C27.8435 5.8863 27.6196 5.84323 27.6382 5.5585C27.9097 5.52781 28.6171 5.83663 28.8502 5.94576C29.2103 6.11447 29.5132 6.4477 29.7532 6.65854C30.1897 7.04224 30.9195 8.03444 31.087 8.54582C31.3621 9.38576 31.3584 10.5173 31.1614 11.4081C31.0308 11.9989 30.9571 12.1259 30.6814 12.549C29.7241 14.0184 29.7442 13.0402 30.0491 12.7049C31.1221 11.5245 31.0553 10.5239 30.2558 11.4296C29.6221 12.1475 29.3249 12.1943 28.6689 11.2995C28.8187 10.8238 28.8061 10.9411 28.3135 10.6627C28.1799 10.5872 28.1005 10.4794 27.894 10.4726C27.7003 10.4661 27.5832 10.5425 27.5912 10.7317C27.6061 11.0789 28.4134 11.6719 28.5918 12.0398C28.7894 12.4474 28.6754 13.6161 28.6807 14.1755C28.6894 15.099 28.904 15.4303 28.3448 16.0633C27.8248 16.6519 26.3371 17.4336 25.2347 17.5868C24.6319 17.6707 23.7623 17.531 23.5768 16.9885C23.2751 16.1058 24.6135 16.4303 24.8269 15.9621C24.7418 15.6041 24.2908 15.7998 23.9128 15.7317Z" fill="#672C1D"/>
</svg>
