<svg width="407" height="306" viewBox="0 0 407 306" fill="none" xmlns="http://www.w3.org/2000/svg">
<mask id="mask0_145_682" style="mask-type:alpha" maskUnits="userSpaceOnUse" x="35" y="0" width="436" height="541">
<path d="M430.025 43.897C412.766 37.2563 386.916 44.2782 369.965 49.2224C347.447 55.7904 328.654 63.934 315.214 83.9849C306.29 97.2983 302.214 111.513 307.182 126.852C316.255 154.866 306.834 174.964 285.191 195.099C253.556 224.528 209.833 235.022 171.541 252.633C134.167 269.823 106.145 296.477 88.2725 333.861C72.8369 366.147 72.5328 392.877 83.236 425.925C91.2464 450.658 99.2568 475.392 107.267 500.126" stroke="#EFEFEF" stroke-width="81" stroke-linecap="round"/>
</mask>
<g mask="url(#mask0_145_682)">
<path d="M72.9787 134.833L68.043 119.593" stroke="#EFEFEF" stroke-width="4.8058"/>
<path d="M42.7151 119.375L57.9551 114.439" stroke="#EFEFEF" stroke-width="4.8058"/>
<path d="M63.1071 104.352L58.1714 89.1123" stroke="#EFEFEF" stroke-width="4.8058"/>
<path d="M73.1951 109.504L88.4351 104.568" stroke="#EFEFEF" stroke-width="4.8058"/>
<path d="M132.415 115.584L127.479 100.344" stroke="#EFEFEF" stroke-width="4.8058"/>
<path d="M102.151 100.126L117.391 95.1904" stroke="#EFEFEF" stroke-width="4.8058"/>
<path d="M122.543 85.1033L117.607 69.8633" stroke="#EFEFEF" stroke-width="4.8058"/>
<path d="M132.631 90.2551L147.871 85.3193" stroke="#EFEFEF" stroke-width="4.8058"/>
<path d="M191.851 96.3337L186.915 81.0938" stroke="#EFEFEF" stroke-width="4.8058"/>
<path d="M161.587 80.8762L176.827 75.9404" stroke="#EFEFEF" stroke-width="4.8058"/>
<path d="M181.979 65.8533L177.043 50.6133" stroke="#EFEFEF" stroke-width="4.8058"/>
<path d="M192.067 71.0051L207.307 66.0693" stroke="#EFEFEF" stroke-width="4.8058"/>
<path d="M251.286 77.0847L246.351 61.8447" stroke="#EFEFEF" stroke-width="4.8058"/>
<path d="M221.023 61.6281L236.263 56.6924" stroke="#EFEFEF" stroke-width="4.8058"/>
<path d="M241.415 46.6042L236.479 31.3643" stroke="#EFEFEF" stroke-width="4.8058"/>
<path d="M251.503 51.756L266.743 46.8203" stroke="#EFEFEF" stroke-width="4.8058"/>
<path d="M310.722 57.8357L305.787 42.5957" stroke="#EFEFEF" stroke-width="4.8058"/>
<path d="M280.459 42.3791L295.699 37.4434" stroke="#EFEFEF" stroke-width="4.8058"/>
<path d="M300.851 27.3552L295.915 12.1152" stroke="#EFEFEF" stroke-width="4.8058"/>
<path d="M310.939 32.507L326.179 27.5713" stroke="#EFEFEF" stroke-width="4.8058"/>
<path d="M370.158 38.5867L365.223 23.3467" stroke="#EFEFEF" stroke-width="4.8058"/>
<path d="M339.895 23.1301L355.135 18.1943" stroke="#EFEFEF" stroke-width="4.8058"/>
<path d="M360.287 8.1062L355.351 -7.13379" stroke="#EFEFEF" stroke-width="4.8058"/>
<path d="M370.375 13.258L385.615 8.32227" stroke="#EFEFEF" stroke-width="4.8058"/>
<path d="M399.331 3.88006L414.571 -1.05566" stroke="#EFEFEF" stroke-width="4.8058"/>
<path d="M43.1569 245.522L38.2212 230.282" stroke="#EFEFEF" stroke-width="4.8058"/>
<path d="M33.2853 215.042L28.3496 199.802" stroke="#EFEFEF" stroke-width="4.8058"/>
<path d="M43.3733 220.194L58.6133 215.258" stroke="#EFEFEF" stroke-width="4.8058"/>
<path d="M102.593 226.272L97.6572 211.032" stroke="#EFEFEF" stroke-width="4.8058"/>
<path d="M72.3293 210.815L87.5693 205.879" stroke="#EFEFEF" stroke-width="4.8058"/>
<path d="M92.7214 195.792L87.7856 180.552" stroke="#EFEFEF" stroke-width="4.8058"/>
<path d="M102.809 200.944L118.049 196.008" stroke="#EFEFEF" stroke-width="4.8058"/>
<path d="M162.029 207.023L157.093 191.783" stroke="#EFEFEF" stroke-width="4.8058"/>
<path d="M131.765 191.566L147.005 186.63" stroke="#EFEFEF" stroke-width="4.8058"/>
<path d="M152.157 176.543L147.222 161.303" stroke="#EFEFEF" stroke-width="4.8058"/>
<path d="M162.245 181.695L177.485 176.759" stroke="#EFEFEF" stroke-width="4.8058"/>
<path d="M221.465 187.774L216.529 172.534" stroke="#EFEFEF" stroke-width="4.8058"/>
<path d="M191.201 172.317L206.441 167.381" stroke="#EFEFEF" stroke-width="4.8058"/>
<path d="M211.593 157.294L206.658 142.054" stroke="#EFEFEF" stroke-width="4.8058"/>
<path d="M221.681 162.445L236.921 157.51" stroke="#EFEFEF" stroke-width="4.8058"/>
<path d="M280.901 168.524L275.965 153.284" stroke="#EFEFEF" stroke-width="4.8058"/>
<path d="M250.637 153.067L265.877 148.131" stroke="#EFEFEF" stroke-width="4.8058"/>
<path d="M271.029 138.044L266.093 122.804" stroke="#EFEFEF" stroke-width="4.8058"/>
<path d="M281.117 143.195L296.357 138.26" stroke="#EFEFEF" stroke-width="4.8058"/>
<path d="M340.337 149.275L335.401 134.035" stroke="#EFEFEF" stroke-width="4.8058"/>
<path d="M310.073 133.818L325.313 128.882" stroke="#EFEFEF" stroke-width="4.8058"/>
<path d="M330.465 118.795L325.529 103.555" stroke="#EFEFEF" stroke-width="4.8058"/>
<path d="M340.553 123.946L355.793 119.011" stroke="#EFEFEF" stroke-width="4.8058"/>
<path d="M399.773 130.026L394.837 114.786" stroke="#EFEFEF" stroke-width="4.8058"/>
<path d="M369.509 114.569L384.749 109.633" stroke="#EFEFEF" stroke-width="4.8058"/>
<path d="M389.901 99.5457L384.965 84.3057" stroke="#EFEFEF" stroke-width="4.8058"/>
<path d="M399.989 104.697L415.229 99.7617" stroke="#EFEFEF" stroke-width="4.8058"/>
<path d="M62.9001 306.481L57.9644 291.241" stroke="#EFEFEF" stroke-width="4.8058"/>
<path d="M72.988 311.633L88.228 306.697" stroke="#EFEFEF" stroke-width="4.8058"/>
<path d="M132.208 317.713L127.272 302.473" stroke="#EFEFEF" stroke-width="4.8058"/>
<path d="M101.944 302.255L117.184 297.319" stroke="#EFEFEF" stroke-width="4.8058"/>
<path d="M122.336 287.232L117.4 271.992" stroke="#EFEFEF" stroke-width="4.8058"/>
<path d="M132.424 292.384L147.664 287.448" stroke="#EFEFEF" stroke-width="4.8058"/>
<path d="M191.644 298.464L186.708 283.224" stroke="#EFEFEF" stroke-width="4.8058"/>
<path d="M161.38 283.006L176.62 278.07" stroke="#EFEFEF" stroke-width="4.8058"/>
<path d="M181.772 267.983L176.836 252.743" stroke="#EFEFEF" stroke-width="4.8058"/>
<path d="M191.86 273.135L207.1 268.199" stroke="#EFEFEF" stroke-width="4.8058"/>
<path d="M251.079 279.214L246.144 263.974" stroke="#EFEFEF" stroke-width="4.8058"/>
<path d="M220.816 263.756L236.056 258.82" stroke="#EFEFEF" stroke-width="4.8058"/>
<path d="M241.208 248.733L236.272 233.493" stroke="#EFEFEF" stroke-width="4.8058"/>
<path d="M251.296 253.885L266.536 248.949" stroke="#EFEFEF" stroke-width="4.8058"/>
<path d="M310.515 259.965L305.58 244.725" stroke="#EFEFEF" stroke-width="4.8058"/>
<path d="M280.252 244.508L295.492 239.572" stroke="#EFEFEF" stroke-width="4.8058"/>
<path d="M300.644 229.484L295.708 214.244" stroke="#EFEFEF" stroke-width="4.8058"/>
<path d="M369.951 240.716L365.015 225.476" stroke="#EFEFEF" stroke-width="4.8058"/>
<path d="M339.687 225.259L354.927 220.323" stroke="#EFEFEF" stroke-width="4.8058"/>
<path d="M360.079 210.235L355.144 194.995" stroke="#EFEFEF" stroke-width="4.8058"/>
<path d="M370.167 215.387L385.407 210.451" stroke="#EFEFEF" stroke-width="4.8058"/>
<path d="M399.124 206.009L414.364 201.073" stroke="#EFEFEF" stroke-width="4.8058"/>
<path d="M330.258 320.925L325.322 305.685" stroke="#EFEFEF" stroke-width="4.8058"/>
<path d="M389.694 301.675L384.758 286.435" stroke="#EFEFEF" stroke-width="4.8058"/>
<path d="M399.782 306.826L415.022 301.891" stroke="#EFEFEF" stroke-width="4.8058"/>
<path d="M58.0676 190.177L53.1318 174.938" stroke="#EFEFEF" stroke-width="4.8058"/>
<path d="M27.804 174.72L43.0439 169.784" stroke="#EFEFEF" stroke-width="4.8058"/>
<path d="M48.196 159.697L43.2603 144.457" stroke="#EFEFEF" stroke-width="4.8058"/>
<path d="M58.2839 164.849L73.5239 159.913" stroke="#EFEFEF" stroke-width="4.8058"/>
<path d="M117.504 170.927L112.568 155.688" stroke="#EFEFEF" stroke-width="4.8058"/>
<path d="M87.24 155.47L102.48 150.534" stroke="#EFEFEF" stroke-width="4.8058"/>
<path d="M107.632 140.447L102.696 125.207" stroke="#EFEFEF" stroke-width="4.8058"/>
<path d="M117.72 145.599L132.96 140.663" stroke="#EFEFEF" stroke-width="4.8058"/>
<path d="M176.94 151.677L172.004 136.438" stroke="#EFEFEF" stroke-width="4.8058"/>
<path d="M146.677 136.221L161.917 131.285" stroke="#EFEFEF" stroke-width="4.8058"/>
<path d="M167.069 121.198L162.133 105.958" stroke="#EFEFEF" stroke-width="4.8058"/>
<path d="M177.156 126.35L192.396 121.414" stroke="#EFEFEF" stroke-width="4.8058"/>
<path d="M236.376 132.428L231.44 117.188" stroke="#EFEFEF" stroke-width="4.8058"/>
<path d="M206.112 116.972L221.352 112.036" stroke="#EFEFEF" stroke-width="4.8058"/>
<path d="M226.504 101.949L221.568 86.709" stroke="#EFEFEF" stroke-width="4.8058"/>
<path d="M236.592 107.101L251.832 102.165" stroke="#EFEFEF" stroke-width="4.8058"/>
<path d="M295.812 113.179L290.876 97.9395" stroke="#EFEFEF" stroke-width="4.8058"/>
<path d="M265.548 97.7228L280.788 92.7871" stroke="#EFEFEF" stroke-width="4.8058"/>
<path d="M285.94 82.7L281.004 67.46" stroke="#EFEFEF" stroke-width="4.8058"/>
<path d="M296.028 87.8517L311.268 82.916" stroke="#EFEFEF" stroke-width="4.8058"/>
<path d="M355.248 93.9304L350.312 78.6904" stroke="#EFEFEF" stroke-width="4.8058"/>
<path d="M324.984 78.4728L340.224 73.5371" stroke="#EFEFEF" stroke-width="4.8058"/>
<path d="M345.376 63.45L340.44 48.21" stroke="#EFEFEF" stroke-width="4.8058"/>
<path d="M355.464 68.6017L370.704 63.666" stroke="#EFEFEF" stroke-width="4.8058"/>
<path d="M384.42 59.2238L399.66 54.2881" stroke="#EFEFEF" stroke-width="4.8058"/>
<path d="M404.812 44.2009L399.876 28.9609" stroke="#EFEFEF" stroke-width="4.8058"/>
<path d="M28.4626 275.538L43.7026 270.603" stroke="#EFEFEF" stroke-width="4.8058"/>
<path d="M87.6818 281.616L82.7461 266.376" stroke="#EFEFEF" stroke-width="4.8058"/>
<path d="M57.4182 266.159L72.6582 261.224" stroke="#EFEFEF" stroke-width="4.8058"/>
<path d="M77.8102 251.136L72.8745 235.896" stroke="#EFEFEF" stroke-width="4.8058"/>
<path d="M87.8982 256.288L103.138 251.353" stroke="#EFEFEF" stroke-width="4.8058"/>
<path d="M147.118 262.367L142.182 247.127" stroke="#EFEFEF" stroke-width="4.8058"/>
<path d="M116.854 246.91L132.094 241.975" stroke="#EFEFEF" stroke-width="4.8058"/>
<path d="M137.246 231.887L132.311 216.647" stroke="#EFEFEF" stroke-width="4.8058"/>
<path d="M147.334 237.039L162.574 232.104" stroke="#EFEFEF" stroke-width="4.8058"/>
<path d="M206.554 243.118L201.618 227.878" stroke="#EFEFEF" stroke-width="4.8058"/>
<path d="M176.29 227.661L191.53 222.726" stroke="#EFEFEF" stroke-width="4.8058"/>
<path d="M196.682 212.638L191.747 197.398" stroke="#EFEFEF" stroke-width="4.8058"/>
<path d="M206.77 217.79L222.01 212.854" stroke="#EFEFEF" stroke-width="4.8058"/>
<path d="M265.99 223.868L261.054 208.628" stroke="#EFEFEF" stroke-width="4.8058"/>
<path d="M235.726 208.411L250.966 203.476" stroke="#EFEFEF" stroke-width="4.8058"/>
<path d="M256.118 193.388L251.183 178.148" stroke="#EFEFEF" stroke-width="4.8058"/>
<path d="M266.206 198.54L281.446 193.604" stroke="#EFEFEF" stroke-width="4.8058"/>
<path d="M325.426 204.619L320.49 189.379" stroke="#EFEFEF" stroke-width="4.8058"/>
<path d="M295.162 189.162L310.402 184.227" stroke="#EFEFEF" stroke-width="4.8058"/>
<path d="M315.554 174.138L310.619 158.898" stroke="#EFEFEF" stroke-width="4.8058"/>
<path d="M325.642 179.291L340.882 174.355" stroke="#EFEFEF" stroke-width="4.8058"/>
<path d="M384.862 185.37L379.926 170.13" stroke="#EFEFEF" stroke-width="4.8058"/>
<path d="M354.598 169.912L369.838 164.977" stroke="#EFEFEF" stroke-width="4.8058"/>
<path d="M374.99 154.889L370.055 139.649" stroke="#EFEFEF" stroke-width="4.8058"/>
<path d="M385.078 160.041L400.318 155.105" stroke="#EFEFEF" stroke-width="4.8058"/>
<path d="M226.297 304.078L221.361 288.838" stroke="#EFEFEF" stroke-width="4.8058"/>
<path d="M236.385 309.23L251.625 304.294" stroke="#EFEFEF" stroke-width="4.8058"/>
<path d="M295.604 315.309L290.668 300.069" stroke="#EFEFEF" stroke-width="4.8058"/>
<path d="M265.341 299.852L280.581 294.916" stroke="#EFEFEF" stroke-width="4.8058"/>
<path d="M285.733 284.829L280.797 269.589" stroke="#EFEFEF" stroke-width="4.8058"/>
<path d="M295.821 289.981L311.061 285.045" stroke="#EFEFEF" stroke-width="4.8058"/>
<path d="M355.04 296.06L350.104 280.82" stroke="#EFEFEF" stroke-width="4.8058"/>
<path d="M324.777 280.603L340.017 275.667" stroke="#EFEFEF" stroke-width="4.8058"/>
<path d="M345.169 265.58L340.233 250.34" stroke="#EFEFEF" stroke-width="4.8058"/>
<path d="M355.257 270.732L370.497 265.796" stroke="#EFEFEF" stroke-width="4.8058"/>
<path d="M384.213 261.353L399.453 256.417" stroke="#EFEFEF" stroke-width="4.8058"/>
<path d="M404.605 246.33L399.669 231.09" stroke="#EFEFEF" stroke-width="4.8058"/>
</g>
</svg>
