<svg width="68" height="77" viewBox="0 0 68 77" fill="none" xmlns="http://www.w3.org/2000/svg">
<path d="M34 77L39.1962 64.25H28.8038L34 77Z" fill="#672C1D"/>
<rect width="68" height="65" rx="32.5" fill="white"/>
<path fill-rule="evenodd" clip-rule="evenodd" d="M51.4436 41.9161C51.6326 41.7384 52.2984 41.306 52.7468 41.3371C52.9012 41.3477 53.2148 41.5717 53.3358 41.672C53.5103 41.8168 53.6301 41.9793 53.7874 42.1836C54.2908 42.8375 54.6809 43.9277 54.6996 45.0082C54.73 46.7589 53.7367 47.7061 52.4658 48.3928C51.7889 48.7587 51.3024 49.3163 51.4384 50.1444C51.4773 50.3808 51.465 50.8565 51.1013 50.5692C50.8802 50.3945 50.5285 49.5666 50.743 49.1583C51.361 47.982 53.7761 47.5051 52.909 44.1889C52.7595 43.6171 52.6548 43.2944 52.3406 42.8847C52.1961 42.6963 52.072 42.5412 51.9296 42.3779L51.4436 41.9161ZM24.0063 50.0235L23.3064 51.4291L23.3049 51.4322L23.3033 51.4353L23.3002 51.4338L23.2971 51.4323L22.644 51.1096C22.6217 51.0985 22.6005 51.087 22.5804 51.075C22.5603 51.0629 22.5414 51.0504 22.5237 51.0375C22.506 51.0245 22.4894 51.0111 22.4739 50.997C22.464 50.9881 22.4546 50.979 22.4456 50.9696C22.3295 51.1465 22.1848 51.3515 22.0003 51.6002C21.9014 51.7335 21.7982 51.8853 21.6927 52.0449C22.9913 52.7523 24.3678 53.3393 25.8065 53.791C25.7279 52.9563 25.8173 51.8901 25.7904 51.0583C25.6531 50.9863 25.5051 50.9448 25.4011 50.847L25.1377 50.4958C25.0992 50.3901 25.0779 49.9303 25.0655 49.277C24.8978 49.2028 24.7306 49.1259 24.5641 49.0465C24.1611 48.8544 23.7666 48.6491 23.3814 48.4312L23.28 48.8164C23.0516 49.4991 22.9908 49.8459 22.857 50.1973C22.8617 50.198 22.8663 50.1988 22.8709 50.1996C22.8915 50.2033 22.9124 50.2082 22.9336 50.2144C22.9547 50.2204 22.9761 50.2278 22.9979 50.2364C23.0197 50.245 23.0418 50.2549 23.0641 50.2659L23.449 50.4561L23.7318 49.888L23.7334 49.8849L23.7349 49.8817L23.738 49.8833L23.7411 49.8848L24.0032 50.0143L24.0063 50.0158L24.0094 50.0173L24.0078 50.0204L24.0063 50.0235ZM23.3218 50.7114L22.9733 50.5391C22.9584 50.5318 22.9439 50.5257 22.9299 50.5208C22.9159 50.5159 22.9022 50.5122 22.8889 50.5097C22.8757 50.5073 22.8629 50.506 22.8505 50.5058C22.8382 50.5058 22.8262 50.5069 22.8145 50.5092C22.8031 50.5115 22.7921 50.5153 22.7817 50.5207C22.7712 50.5262 22.7613 50.5332 22.7518 50.5418C22.7422 50.5505 22.7331 50.5609 22.7245 50.5729C22.7158 50.585 22.7077 50.5987 22.7 50.6141C22.6925 50.6291 22.6866 50.6436 22.6824 50.6575C22.6781 50.6714 22.6754 50.6846 22.6743 50.6974C22.6732 50.71 22.6737 50.7221 22.6757 50.7336C22.6777 50.7451 22.6813 50.756 22.6865 50.7664H22.6864C22.6916 50.777 22.698 50.7873 22.7056 50.797C22.7132 50.8068 22.7219 50.8162 22.7318 50.8251C22.7418 50.8341 22.753 50.8427 22.7654 50.8509C22.7779 50.859 22.7916 50.8668 22.8064 50.8741L23.1549 51.0464L23.3218 50.7114ZM18.0113 47.4983L17.8588 47.6487L17.8564 47.6511L17.8539 47.6536L17.8515 47.6511L17.849 47.6487L17.094 46.8888H17.0939L17.0915 46.8863L17.089 46.8839L17.0915 46.8815L17.094 46.879L17.2858 46.6898V46.6898L17.2883 46.6874L17.2908 46.6849L17.2932 46.6874L17.2957 46.6898L17.8401 47.2377L18.0909 46.9904L17.594 46.4903L17.5915 46.4878L17.5891 46.4854L17.5916 46.483L17.594 46.4806L17.7859 46.2913L17.7868 46.2904C17.4159 46.0676 17.0185 45.7643 16.6446 45.4485L16.3747 45.6621L16.6586 46.0182L16.6607 46.021L16.6629 46.0236L16.6602 46.0258L16.6575 46.028L16.446 46.1952L16.4433 46.1974L16.4406 46.1995L16.4385 46.1968L16.4363 46.1941L15.6778 45.2428L15.6757 45.24L15.6735 45.2373L15.6762 45.2352L15.6789 45.2331L15.8904 45.0658L15.8931 45.0636L15.8958 45.0615L15.898 45.0642L15.9001 45.0669H15.9002L16.1827 45.4213L16.4071 45.2438C15.9333 44.8268 15.5185 44.4136 15.2759 44.1574C14.3424 43.1714 13.6809 42.3877 12.9603 40.8857C12.375 39.6655 11.8421 38.0907 11.622 36.6333C11.5133 35.9132 11.534 35.2158 11.6133 34.5799L11.4104 34.5955L11.407 34.5958L11.4036 34.5961L11.4033 34.5926L11.403 34.5892V34.5891L11.3089 33.3779L11.3086 33.3745L11.3084 33.371L11.3118 33.3707L11.3153 33.3705L11.5845 33.3497L11.5879 33.3494L11.5914 33.3492L11.5917 33.3526L11.592 33.3561L11.627 33.8073L11.7421 33.7984C11.9342 32.8489 12.2029 32.1119 12.2309 31.762C11.3897 30.8313 10.9414 30.0434 10.677 28.7768C10.5607 28.22 10.5533 27.6713 10.6005 27.167C10.5133 27.5139 10.4348 27.8629 10.3647 28.2137C10.0836 29.6217 9.94098 31.057 9.94098 32.5C9.94098 38.6736 12.499 44.2625 16.6347 48.3079C16.8001 48.4697 16.9684 48.6287 17.1388 48.7856C17.1821 48.7202 17.2254 48.6538 17.2686 48.5864C17.3995 48.3822 17.7299 47.9291 18.0113 47.4983ZM17.8064 46.3021L18.2927 46.7914L18.47 46.6166C18.4704 46.6132 18.4707 46.6098 18.4709 46.6066C18.2695 46.5507 18.0436 46.4432 17.8064 46.3021ZM11.6832 34.1113L11.6508 34.1138L11.661 34.245C11.6682 34.2002 11.6756 34.1555 11.6832 34.1113ZM12.0519 31.647C12.0517 31.6564 12.0506 31.6654 12.0487 31.674C12.0468 31.6826 12.0441 31.6908 12.0406 31.6986C12.0371 31.7064 12.0327 31.7138 12.0276 31.7208C12.0226 31.7277 12.0166 31.7343 12.0099 31.7404C12.0033 31.7465 11.9963 31.7518 11.9891 31.7563C11.9818 31.7609 11.9744 31.7646 11.9667 31.7675C11.959 31.7704 11.951 31.7726 11.9428 31.7739C11.9346 31.7753 11.9261 31.7758 11.9174 31.7756C11.908 31.7753 11.8989 31.7742 11.8904 31.7724C11.8818 31.7706 11.8735 31.768 11.8657 31.7646C11.8578 31.7612 11.8503 31.757 11.8433 31.7521C11.8364 31.7472 11.8298 31.7414 11.8237 31.7349C11.8175 31.7284 11.8121 31.7215 11.8076 31.7143C11.803 31.7071 11.7994 31.6995 11.7964 31.6914C11.7934 31.6835 11.7913 31.6751 11.79 31.6664C11.7886 31.6578 11.7881 31.6488 11.7884 31.6394C11.7886 31.6303 11.7897 31.6216 11.7915 31.6133C11.7934 31.605 11.796 31.597 11.7994 31.5894C11.8028 31.5818 11.807 31.5745 11.8119 31.5677C11.8169 31.5608 11.8227 31.5543 11.8291 31.5482C11.8356 31.542 11.8425 31.5367 11.8498 31.5322C11.8571 31.5277 11.8647 31.5239 11.8728 31.521C11.8808 31.5181 11.8892 31.5159 11.8979 31.5147C11.9066 31.5133 11.9156 31.5128 11.9251 31.5131C11.9337 31.5133 11.9422 31.5144 11.9503 31.5162C11.9585 31.518 11.9663 31.5206 11.9739 31.524C11.9814 31.5273 11.9886 31.5315 11.9955 31.5364C12.0025 31.5413 12.0091 31.547 12.0154 31.5535C12.0217 31.56 12.0272 31.5668 12.0319 31.5739C12.0366 31.5811 12.0405 31.5886 12.0435 31.5964C12.0466 31.6042 12.0488 31.6124 12.0502 31.6208C12.0516 31.6292 12.0521 31.638 12.0519 31.647ZM22.0716 16.1287C22.0414 16.1482 22.0109 16.1654 21.98 16.1802C21.9491 16.1951 21.9178 16.2076 21.8863 16.2179C21.8777 16.2207 21.869 16.2233 21.8603 16.2258C22.0675 16.5134 22.2648 16.8189 22.4637 17.1236C23.3282 16.5669 24.2365 16.0821 25.1789 15.6732C26.245 15.2107 27.3562 14.845 28.4986 14.5821C28.6287 14.3119 28.7692 14.1036 28.9541 13.9488C30.2575 12.8576 30.3118 13.1603 31.3189 12.7748L31.2953 11.4485L31.2952 11.445L31.2952 11.4416L31.2986 11.4415L31.3021 11.4415L32.3752 11.4225L32.3787 11.4224L32.3822 11.4224L32.3822 11.4258L32.3823 11.4293L32.3871 11.6982L32.3871 11.7016L32.3872 11.7051L32.3837 11.7051L32.3803 11.7052L31.6065 11.7189L31.6128 12.0704L32.3191 12.0579L32.3225 12.0578L32.326 12.0578L32.326 12.0612L32.3261 12.0647L32.3309 12.3336L32.331 12.3371L32.331 12.3405L32.3276 12.3406L32.3241 12.3406L31.6178 12.3531L31.6235 12.6716C32.1584 12.5217 32.6764 12.5398 33.2845 12.5495L33.2826 12.5431C33.2727 12.5086 33.2649 12.4728 33.2592 12.4358C33.2535 12.3988 33.2499 12.3606 33.2484 12.321C33.2469 12.2815 33.2475 12.2407 33.2502 12.1988C33.2528 12.1565 33.2574 12.1156 33.2639 12.0763C33.2705 12.037 33.2789 11.9992 33.2893 11.9631C33.2996 11.9269 33.3119 11.8922 33.326 11.8591C33.3402 11.826 33.3563 11.7944 33.3743 11.7643C33.3924 11.7344 33.4118 11.7061 33.4327 11.6798C33.4535 11.6534 33.4758 11.6289 33.4996 11.6062C33.5233 11.5835 33.5485 11.5626 33.5751 11.5436C33.6017 11.5246 33.6297 11.5074 33.6591 11.4921C33.6886 11.4767 33.7189 11.4635 33.7499 11.4526C33.7809 11.4416 33.8128 11.4329 33.8455 11.4263C33.8782 11.4198 33.9116 11.4154 33.9459 11.4133C33.9801 11.4112 34.0152 11.4112 34.051 11.4135C34.0845 11.4156 34.1172 11.4196 34.1489 11.4254C34.1807 11.4311 34.2115 11.4387 34.2413 11.4482C34.2711 11.4576 34.3 11.4689 34.328 11.482C34.3559 11.4951 34.383 11.51 34.409 11.5268C34.4351 11.5435 34.4597 11.5617 34.4829 11.5813C34.5061 11.601 34.5279 11.622 34.5482 11.6444C34.5685 11.6669 34.5873 11.6908 34.6048 11.7161C34.6222 11.7414 34.6382 11.7681 34.6527 11.7962L34.6543 11.7992L34.6559 11.8024L34.6527 11.804L34.6496 11.8055L34.3796 11.939L34.3764 11.9405L34.3733 11.9421L34.3718 11.939L34.3703 11.9358C34.3621 11.9191 34.3531 11.9032 34.3434 11.8882C34.3337 11.8733 34.3232 11.8592 34.3119 11.8459C34.3007 11.8327 34.2886 11.8204 34.2759 11.8089C34.2631 11.7974 34.2495 11.7868 34.2352 11.7771C34.2209 11.7675 34.2059 11.7588 34.1903 11.7512C34.1747 11.7436 34.1584 11.737 34.1415 11.7316C34.1245 11.7261 34.107 11.7216 34.0887 11.7182C34.0705 11.7149 34.0517 11.7126 34.0321 11.7114C33.9886 11.7087 33.9477 11.7117 33.9092 11.7205C33.8709 11.7293 33.835 11.7438 33.8016 11.7641C33.7849 11.7743 33.7691 11.7856 33.7539 11.798C33.7389 11.8105 33.7246 11.8241 33.7112 11.8388C33.6978 11.8535 33.6852 11.8695 33.6734 11.8864C33.6616 11.9035 33.6507 11.9217 33.6406 11.9409C33.6304 11.9601 33.6214 11.9805 33.6133 12.0018C33.6053 12.0229 33.5983 12.0452 33.5924 12.0683C33.5864 12.0914 33.5816 12.1156 33.5777 12.1408C33.5739 12.1659 33.5712 12.1919 33.5695 12.2188C33.5678 12.2456 33.5672 12.2714 33.5679 12.2965C33.5685 12.3215 33.5703 12.3458 33.5733 12.3695C33.5763 12.393 33.5804 12.4157 33.5856 12.4376C33.5909 12.4596 33.5974 12.4808 33.605 12.5013C33.6119 12.5199 33.6196 12.5375 33.628 12.5543C33.87 12.5624 34.0863 12.5968 34.2893 12.6481C34.2914 12.6457 34.2935 12.6432 34.2957 12.6408C34.3072 12.6273 34.3181 12.6131 34.3283 12.5978L34.3302 12.595L34.3322 12.5921L34.335 12.594L34.3379 12.5959L34.5152 12.7134C34.8226 12.8128 35.108 12.9457 35.4193 13.0751L35.4246 13.0773L35.6793 11.593L35.6798 11.5895L35.6804 11.5861L35.6839 11.5867L35.6873 11.5873L36.7452 11.7674L36.7487 11.768L36.7521 11.7686L36.7515 11.772L36.7509 11.7754L36.7055 12.0405L36.7049 12.0439L36.7043 12.0473L36.7008 12.0467L36.6974 12.0462L35.9346 11.9163L35.8752 12.2628L36.5714 12.3814L36.5749 12.382L36.5783 12.3825L36.5777 12.3859L36.5771 12.3893L36.5316 12.6545L36.5311 12.6579L36.5305 12.6613L36.527 12.6607L36.5236 12.6601L35.8274 12.5416L35.7626 12.919L36.5498 13.0531L36.5532 13.0536L36.5566 13.0542L36.556 13.0576L36.5554 13.061L36.51 13.3262L36.5094 13.3296L36.5088 13.3329L36.5054 13.3324L36.5019 13.3318L35.6851 13.1927C36.4809 13.5665 37.1841 14.0964 37.7583 14.7429C40.8689 15.5739 43.6536 17.1554 45.8969 19.283C48.0842 21.3576 49.7571 23.9518 50.716 26.8763C50.8234 26.836 50.9362 26.8035 51.0569 26.7829C51.5259 26.7027 51.9054 26.7952 52.2443 26.9739C52.2512 26.9669 52.2583 26.9599 52.2655 26.9529C52.291 26.9288 52.3183 26.9062 52.3474 26.8851C52.3767 26.864 52.4078 26.8445 52.4408 26.8264C52.4738 26.8085 52.5087 26.792 52.5454 26.777C52.5821 26.7621 52.6207 26.7487 52.6612 26.7369C52.7021 26.7248 52.7422 26.7152 52.7815 26.7078C52.8208 26.7005 52.8593 26.6954 52.8969 26.6927C52.9346 26.6901 52.9715 26.6897 53.0076 26.6916C53.0437 26.6935 53.079 26.6978 53.1135 26.7044C53.148 26.711 53.1812 26.7195 53.2132 26.73C53.2451 26.7405 53.2759 26.753 53.3055 26.7674C53.3351 26.7819 53.3634 26.7984 53.3904 26.8167C53.4175 26.8351 53.4433 26.8554 53.4678 26.8777C53.4923 26.9 53.5151 26.9238 53.5361 26.9492C53.557 26.9745 53.5762 27.0013 53.5935 27.0297C53.6108 27.058 53.6264 27.0879 53.6402 27.1192C53.6539 27.1506 53.6659 27.1834 53.676 27.2177C53.6855 27.2498 53.6929 27.2817 53.6984 27.3134C53.7038 27.345 53.7072 27.3765 53.7084 27.4076C53.7097 27.4387 53.709 27.4697 53.7062 27.5004C53.7034 27.5311 53.6985 27.5615 53.6917 27.5915C53.6848 27.6217 53.6761 27.651 53.6655 27.6793C53.655 27.7078 53.6425 27.7354 53.6284 27.7621C53.6141 27.7887 53.5981 27.8146 53.5801 27.8395C53.5623 27.8644 53.5425 27.8885 53.521 27.9118L53.5186 27.9143L53.5162 27.9169L53.5137 27.9145L53.5111 27.9121L53.2928 27.7051L53.2903 27.7027L53.2878 27.7003L53.2902 27.6978L53.2926 27.6953C53.3056 27.682 53.3175 27.6681 53.3283 27.6538C53.3391 27.6396 53.3489 27.6249 53.3574 27.6099C53.366 27.5948 53.3736 27.5794 53.38 27.5634C53.3864 27.5476 53.3918 27.5312 53.396 27.5145C53.4003 27.4978 53.4033 27.4808 53.4052 27.4636C53.407 27.4464 53.4076 27.4289 53.407 27.4112C53.4064 27.3935 53.4045 27.3755 53.4015 27.3573C53.3984 27.3391 53.3941 27.3206 53.3885 27.3019C53.3824 27.2811 53.3751 27.2613 53.3667 27.2427C53.3582 27.224 53.3486 27.2064 53.3379 27.19C53.3272 27.1736 53.3154 27.1582 53.3023 27.1439C53.2894 27.1297 53.2753 27.1164 53.2599 27.1042C53.2445 27.092 53.2284 27.081 53.2116 27.0712C53.1947 27.0613 53.177 27.0527 53.1586 27.0452C53.1401 27.0376 53.1207 27.0313 53.1007 27.0261C53.0807 27.0209 53.0598 27.0169 53.0381 27.014C53.0164 27.0111 52.9941 27.0096 52.9714 27.0093C52.9486 27.0091 52.9252 27.0102 52.9014 27.0125C52.8775 27.0149 52.8531 27.0186 52.8281 27.0236C52.8032 27.0285 52.7777 27.0349 52.7515 27.0425C52.7389 27.0462 52.7265 27.0501 52.7145 27.0542C52.7023 27.0584 52.6904 27.0627 52.679 27.0672L52.6783 27.0674H52.6777H52.6599C52.6086 27.0888 52.5627 27.1143 52.5225 27.1439C52.8292 27.3553 53.1112 27.6238 53.4117 27.8736C53.9063 28.2846 54.6194 29.0516 54.7837 29.9961C54.9302 30.8378 54.8447 31.5107 54.5691 32.2707C54.4622 32.5654 54.3353 32.6685 54.2663 32.8525C54.5502 32.8603 55.0673 32.8519 55.6657 32.8434C55.6667 32.7612 55.6672 32.6468 55.6672 32.5C55.6672 26.3264 53.1092 20.7375 48.9735 16.6921C44.8364 12.6454 39.1198 10.1424 32.8041 10.1424C30.063 10.1424 27.369 10.6231 24.8427 11.5407C22.7881 12.2869 20.843 13.3224 19.0721 14.6234C19.1846 14.6166 19.2968 14.6148 19.4084 14.6181C19.9821 14.6352 20.45 14.8315 20.8545 15.1367C20.8563 15.1306 20.8581 15.1245 20.8601 15.1184C20.8701 15.0874 20.8823 15.0569 20.8969 15.0271C20.9113 14.9973 20.9279 14.9688 20.9463 14.9416C20.9646 14.9146 20.985 14.8886 21.0075 14.8639C21.0298 14.8393 21.0541 14.816 21.0803 14.794C21.1055 14.7729 21.1325 14.7529 21.1614 14.7342V14.7341L21.165 14.7318C21.1933 14.7136 21.2219 14.6974 21.2508 14.6832C21.2798 14.6691 21.3091 14.657 21.3386 14.6469C21.3683 14.6368 21.3983 14.6287 21.4286 14.6227C21.4589 14.6166 21.4895 14.6126 21.5204 14.6106C21.5514 14.6087 21.5821 14.6087 21.6124 14.6107C21.6426 14.6127 21.6727 14.6168 21.7025 14.6228C21.7323 14.6288 21.7617 14.6368 21.7908 14.6468C21.8199 14.6568 21.8487 14.6689 21.8771 14.6828L21.8803 14.6844L21.8834 14.6859L21.8818 14.6891L21.8802 14.6922L21.7429 14.9594L21.7413 14.9625L21.7398 14.9656L21.7367 14.964L21.7335 14.9625C21.7169 14.9538 21.7002 14.9464 21.6835 14.9401C21.6668 14.9339 21.6499 14.9287 21.633 14.9248C21.616 14.9208 21.5989 14.918 21.5818 14.9164C21.5647 14.9147 21.5475 14.9143 21.5301 14.9149C21.5129 14.9156 21.4956 14.9175 21.4786 14.9206C21.4615 14.9238 21.4445 14.9282 21.4277 14.9338C21.4108 14.9394 21.394 14.9463 21.3773 14.9544C21.3605 14.9625 21.344 14.9719 21.3276 14.9824C21.3094 14.9942 21.2925 15.0068 21.2768 15.0201C21.2613 15.0335 21.2471 15.0477 21.2343 15.0625C21.2215 15.0775 21.21 15.0932 21.2 15.1096C21.19 15.126 21.1812 15.1433 21.1739 15.1614C21.1665 15.1795 21.1605 15.1981 21.1558 15.217C21.1511 15.2359 21.1478 15.2552 21.1458 15.275C21.1438 15.2947 21.1432 15.315 21.1438 15.3357C21.1444 15.3524 21.1458 15.3693 21.1482 15.3865C21.3252 15.5543 21.4905 15.7424 21.6484 15.9435C21.66 15.9449 21.6716 15.9458 21.6833 15.9463C21.7028 15.947 21.7222 15.9461 21.7414 15.9437C21.7606 15.9414 21.7797 15.9374 21.7986 15.9319C21.8174 15.9264 21.8362 15.9193 21.8549 15.9107C21.8723 15.9025 21.8896 15.8931 21.9066 15.8824L21.9102 15.88C21.9266 15.8695 21.942 15.8582 21.9563 15.8463C21.9705 15.8345 21.9836 15.822 21.9956 15.8089C22.0076 15.7959 22.0186 15.7822 22.0283 15.7678C22.0381 15.7535 22.0468 15.7385 22.0545 15.7229L22.0555 15.7209C22.0627 15.7059 22.0689 15.6906 22.0742 15.675C22.0797 15.6588 22.0842 15.6422 22.0875 15.6252C22.0909 15.6083 22.0932 15.5909 22.0945 15.5733C22.0958 15.5557 22.0959 15.5377 22.0951 15.5194L22.0949 15.516L22.0948 15.5126L22.0982 15.5124L22.1017 15.5123L22.4027 15.4972L22.4063 15.497L22.4098 15.4968L22.4099 15.5004L22.41 15.5039C22.4118 15.5665 22.406 15.6271 22.3924 15.6857C22.3856 15.7149 22.3769 15.7438 22.3662 15.7721C22.3556 15.8004 22.343 15.8283 22.3285 15.8556C22.3139 15.8829 22.2977 15.9091 22.2797 15.9341C22.2621 15.9587 22.2427 15.9823 22.2216 16.0048V16.0049L22.2207 16.0059C22.1993 16.0287 22.1761 16.0503 22.1513 16.0707C22.1266 16.0912 22.1 16.1105 22.0716 16.1287ZM23.3044 15.3345L22.6192 13.9217L22.6177 13.9186L22.6162 13.9155L22.6193 13.914L22.6224 13.9126L23.5889 13.4474L23.592 13.4459L23.5951 13.4444L23.5966 13.4475L23.5981 13.4506L23.7155 13.6928H23.7156L23.717 13.6959L23.7186 13.699L23.7155 13.7005L23.7123 13.702L23.0155 14.0374L23.1691 14.3539L23.8051 14.0478L23.8082 14.0463L23.8113 14.0448L23.8128 14.0479L23.8144 14.051L23.9318 14.2932L23.9333 14.2963L23.9348 14.2994L23.9317 14.3009L23.9286 14.3024L23.2926 14.6085L23.4598 14.9534L24.1789 14.6072L24.182 14.6058L24.1851 14.6043L24.1866 14.6074L24.1881 14.6105L24.3056 14.8526L24.3071 14.8557L24.3086 14.8589L24.3055 14.8604L24.3023 14.8619L23.3136 15.3378L23.3105 15.3392L23.3074 15.3407L23.3059 15.3376L23.3044 15.3345ZM25.4189 14.3805L24.9464 13.176L24.5212 13.3416L24.5179 13.3428L24.5147 13.3441L24.5134 13.3409L24.5122 13.3376L24.4139 13.0871L24.4127 13.0839L24.4114 13.0807L24.4146 13.0794L24.4178 13.0782L25.5537 12.636L25.557 12.6348L25.5602 12.6335L25.5615 12.6367L25.5628 12.64L25.661 12.8905L25.6623 12.8936L25.6635 12.8968L25.6603 12.8981L25.6571 12.8994L25.2339 13.0641L25.7064 14.2686L25.7076 14.2718L25.7089 14.275L25.7057 14.2763L25.7024 14.2775L25.4279 14.3844L25.4247 14.3857L25.4215 14.3869L25.4202 14.3837L25.4189 14.3805ZM27.4316 12.8303C27.4225 12.8327 27.4135 12.8343 27.4047 12.8349C27.3959 12.8356 27.3873 12.8354 27.3787 12.8343C27.3702 12.8332 27.3618 12.8312 27.3536 12.8284C27.3456 12.8255 27.3375 12.8217 27.3297 12.8171C27.3219 12.8125 27.3149 12.8074 27.3085 12.8018C27.302 12.7962 27.2963 12.7902 27.2912 12.7837C27.2862 12.7772 27.2818 12.7701 27.2781 12.7627C27.2745 12.7552 27.2715 12.7473 27.2693 12.7389C27.2668 12.7299 27.2652 12.721 27.2645 12.7122C27.2638 12.7035 27.2639 12.6948 27.2649 12.6864C27.2659 12.6779 27.2678 12.6697 27.2705 12.6615C27.2733 12.6535 27.2769 12.6456 27.2813 12.6378C27.2858 12.6301 27.2909 12.623 27.2965 12.6166C27.3022 12.6101 27.3085 12.6044 27.3153 12.5993C27.3221 12.5942 27.3296 12.5897 27.3375 12.5859C27.3455 12.5822 27.354 12.5791 27.3631 12.5766C27.3719 12.5743 27.3805 12.5728 27.389 12.5721C27.3975 12.5715 27.406 12.5717 27.4143 12.5727C27.4226 12.5738 27.4308 12.5757 27.4388 12.5784C27.4468 12.5812 27.4547 12.5848 27.4624 12.5892C27.4702 12.5937 27.4773 12.5988 27.4837 12.6044C27.4902 12.61 27.496 12.6163 27.5012 12.6231C27.5062 12.6299 27.5107 12.6373 27.5145 12.6452C27.5183 12.6531 27.5214 12.6617 27.5239 12.6707C27.5261 12.679 27.5275 12.6874 27.5282 12.6957C27.5287 12.7039 27.5284 12.7121 27.5274 12.7204C27.5263 12.7285 27.5244 12.7366 27.5217 12.7446C27.5189 12.7526 27.5153 12.7606 27.5109 12.7685C27.5065 12.7764 27.5016 12.7836 27.4961 12.7901C27.4905 12.7967 27.4844 12.8025 27.4778 12.8077C27.4712 12.8129 27.464 12.8174 27.4563 12.8211C27.4485 12.8249 27.4403 12.8279 27.4316 12.8303ZM29.2872 13.2766L29.0713 11.7223L29.0708 11.7189L29.0703 11.7155L29.0738 11.715L29.0772 11.7145L29.7994 11.615C29.8241 11.6116 29.8482 11.6092 29.8715 11.608C29.8948 11.6067 29.9175 11.6064 29.9395 11.6071C29.9615 11.6079 29.9828 11.6098 30.0035 11.6126C30.0241 11.6155 30.0441 11.6195 30.0634 11.6244C30.0828 11.6294 30.1013 11.6358 30.119 11.6434C30.1367 11.6511 30.1535 11.6601 30.1694 11.6704C30.1854 11.6807 30.2004 11.6924 30.2145 11.7053C30.2287 11.7183 30.242 11.7325 30.2544 11.7481C30.2667 11.7637 30.2781 11.7809 30.2883 11.7998C30.2987 11.8186 30.3079 11.8391 30.316 11.8611C30.3241 11.8831 30.3312 11.9066 30.3373 11.9318C30.3432 11.9568 30.3482 11.9836 30.3522 12.012C30.3561 12.0403 30.3586 12.0675 30.3597 12.0933C30.3608 12.1193 30.3603 12.1439 30.3585 12.1673C30.3567 12.1907 30.3534 12.213 30.3487 12.2341C30.344 12.2551 30.3377 12.2749 30.3301 12.2934C30.3224 12.312 30.3136 12.3295 30.3035 12.346C30.2934 12.3625 30.2822 12.3779 30.2697 12.3923C30.2572 12.4067 30.2435 12.4201 30.2286 12.4324C30.2138 12.4448 30.1977 12.4561 30.1804 12.4663C30.146 12.4867 30.1079 12.5037 30.066 12.5173C30.0241 12.5309 29.9784 12.5411 29.9289 12.5479L29.5034 12.6066L29.5906 13.2348L29.5912 13.2382L29.5916 13.2416L29.5882 13.2421L29.5847 13.2426L29.295 13.2825L29.2916 13.2829L29.2881 13.2834L29.2876 13.28L29.2872 13.2766ZM29.4642 12.3242L29.8496 12.2711C29.866 12.2689 29.8814 12.2658 29.8958 12.262C29.9103 12.2582 29.9236 12.2536 29.936 12.2482C29.9482 12.2429 29.9595 12.2367 29.9698 12.2298C29.9801 12.223 29.9894 12.2153 29.9977 12.2069C30.0059 12.1987 30.0128 12.1893 30.0183 12.179C30.0238 12.1687 30.0281 12.1572 30.0311 12.1448C30.0341 12.1321 30.0358 12.1184 30.0361 12.1037C30.0364 12.0889 30.0354 12.0729 30.0331 12.056C30.0308 12.0393 30.0274 12.024 30.0231 12.0102C30.0189 11.9963 30.0135 11.9838 30.0072 11.9727C30.001 11.9617 29.9938 11.952 29.9856 11.9436C29.9775 11.9352 29.9683 11.9282 29.9582 11.9224C29.948 11.9166 29.9369 11.9118 29.9251 11.9079C29.9134 11.9041 29.9008 11.9013 29.8875 11.8995C29.8742 11.8976 29.86 11.8968 29.8452 11.897C29.8303 11.8972 29.8146 11.8984 29.7982 11.9007L29.4128 11.9538L29.4642 12.3242ZM37.6916 13.5846L38.0215 12.334L37.5799 12.2184L37.5766 12.2175L37.5733 12.2166L37.5741 12.2133L37.575 12.21V12.2099L37.6437 11.9498L37.6445 11.9464L37.6454 11.9431L37.6488 11.944L37.6521 11.9449L38.8316 12.2536L38.8349 12.2545L38.8383 12.2554L38.8375 12.2588L38.8366 12.2621L38.7679 12.5222L38.767 12.5255L38.7662 12.5289L38.7628 12.528L38.7595 12.5271L38.3201 12.4121L37.9901 13.6628L37.9892 13.6661L37.9884 13.6695L37.985 13.6686L37.9816 13.6677L37.6966 13.5931L37.6932 13.5922L37.6898 13.5914L37.6907 13.588L37.6916 13.5847V13.5846ZM40.2551 13.4885C40.2463 13.485 40.2382 13.4809 40.2307 13.4762C40.2232 13.4714 40.2164 13.4661 40.2103 13.4601C40.2041 13.4542 40.1986 13.4476 40.1939 13.4404C40.1891 13.4332 40.1849 13.4254 40.1815 13.417C40.1781 13.4086 40.1754 13.4004 40.1737 13.3921C40.1719 13.3838 40.171 13.3755 40.1709 13.3673C40.1708 13.359 40.1715 13.3508 40.173 13.3427C40.1746 13.3346 40.177 13.3265 40.1803 13.3184C40.1838 13.3097 40.1879 13.3017 40.1925 13.2942C40.1973 13.2867 40.2026 13.2799 40.2085 13.2738C40.2144 13.2676 40.2209 13.2621 40.2279 13.2573C40.235 13.2524 40.2427 13.2482 40.2509 13.2447C40.2591 13.2413 40.2674 13.2386 40.2758 13.2368C40.2842 13.2351 40.2927 13.2342 40.3013 13.2342C40.3097 13.2342 40.3183 13.2351 40.3271 13.2369C40.3357 13.2386 40.3444 13.2413 40.3531 13.2447C40.3615 13.2481 40.3694 13.2521 40.3766 13.2566C40.3838 13.2612 40.3904 13.2665 40.3964 13.2723C40.4025 13.2781 40.4078 13.2845 40.4126 13.2915V13.2915C40.4173 13.2985 40.4215 13.3061 40.425 13.3143C40.4285 13.3224 40.4312 13.3307 40.4329 13.3391C40.4347 13.3475 40.4356 13.3559 40.4356 13.3644C40.4356 13.3729 40.4347 13.3814 40.4329 13.3901C40.4311 13.3987 40.4285 13.4074 40.425 13.4161C40.4218 13.4241 40.4179 13.4316 40.4134 13.4386C40.4088 13.4455 40.4037 13.452 40.3979 13.4579C40.3921 13.4638 40.3857 13.4692 40.3787 13.4739C40.3716 13.4787 40.364 13.4829 40.3558 13.4866C40.3474 13.4903 40.3391 13.4931 40.3307 13.495C40.3224 13.4969 40.314 13.498 40.3056 13.4982C40.2972 13.4983 40.2887 13.4976 40.2803 13.4959C40.2719 13.4944 40.2635 13.4919 40.2551 13.4885ZM41.483 14.9234L42.1829 13.5178L42.1845 13.5147L42.186 13.5116L42.1891 13.5132L42.1922 13.5147L42.8453 13.8374C42.8676 13.8484 42.8888 13.86 42.9089 13.872C42.929 13.884 42.9479 13.8965 42.9656 13.9095C42.9833 13.9224 42.9999 13.9359 43.0154 13.9499C43.0308 13.9639 43.0451 13.9783 43.0582 13.9933C43.0715 14.0083 43.0832 14.0239 43.0935 14.0401C43.1038 14.0564 43.1126 14.0733 43.1199 14.0907C43.1272 14.1082 43.1331 14.1263 43.1375 14.1449C43.1418 14.1635 43.1448 14.1827 43.1462 14.2025C43.1476 14.2223 43.1472 14.2429 43.1451 14.2643C43.143 14.2856 43.139 14.3077 43.1333 14.3304C43.1276 14.3532 43.1201 14.3766 43.1109 14.4008C43.1017 14.4249 43.0907 14.4498 43.0779 14.4755C43.0651 14.5011 43.0519 14.525 43.0381 14.5469C43.0244 14.5689 43.0101 14.5891 42.9953 14.6074C42.9806 14.6258 42.9653 14.6424 42.9495 14.6571C42.9337 14.6718 42.9174 14.6847 42.9005 14.6957C42.8837 14.7068 42.8664 14.7163 42.8489 14.7243C42.8312 14.7322 42.8133 14.7387 42.7948 14.7436C42.7764 14.7485 42.7575 14.7519 42.7382 14.7537C42.7189 14.7556 42.6992 14.7559 42.6792 14.7547C42.6592 14.7535 42.639 14.751 42.6184 14.7474C42.5978 14.7437 42.5769 14.7388 42.5557 14.7327C42.5346 14.7265 42.5131 14.7191 42.4913 14.7105C42.4696 14.702 42.4475 14.6922 42.4252 14.6811L42.0404 14.4909L41.7575 15.0591L41.756 15.0621L41.7544 15.0652L41.7513 15.0637L41.7482 15.0621L41.4861 14.9326L41.483 14.9311L41.4799 14.9296L41.4814 14.9265L41.483 14.9234ZM42.1675 14.2356L42.5161 14.4078C42.5309 14.4152 42.5454 14.4213 42.5594 14.4262C42.5735 14.4311 42.5871 14.4348 42.6004 14.4373C42.6135 14.4398 42.6264 14.441 42.6387 14.4411C42.6511 14.4412 42.6631 14.4401 42.6748 14.4378C42.6862 14.4356 42.6971 14.4317 42.7076 14.4263C42.7181 14.4208 42.728 14.4138 42.7375 14.4052C42.7471 14.3965 42.7562 14.3861 42.7649 14.374C42.7735 14.362 42.7817 14.3483 42.7893 14.3329C42.7968 14.3178 42.8027 14.3034 42.807 14.2895C42.8112 14.2757 42.8139 14.2624 42.815 14.2496C42.8161 14.237 42.8156 14.2249 42.8135 14.2134C42.8116 14.202 42.808 14.1909 42.8029 14.1805C42.7977 14.17 42.7913 14.1598 42.7837 14.15C42.7761 14.1402 42.7674 14.1308 42.7575 14.1219C42.7475 14.1129 42.7363 14.1043 42.7239 14.0961C42.7114 14.0879 42.6977 14.0802 42.6829 14.0728L42.3343 13.9005L42.1675 14.2356ZM43.2878 15.8936L44.1469 14.5785L44.1488 14.5756L44.1507 14.5727L44.1536 14.5746L44.1565 14.5765L45.0562 15.1597L45.059 15.1615L45.062 15.1634L45.06 15.1663L45.0581 15.1692L44.9109 15.3946L44.909 15.3975L44.9071 15.4004L44.9043 15.3985L44.9013 15.3966L44.2527 14.9762L44.0602 15.2709L44.6522 15.6546L44.6551 15.6565L44.658 15.6584L44.6562 15.6613L44.6542 15.6642L44.5069 15.8897L44.5051 15.8925L44.5032 15.8954L44.5003 15.8936L44.4974 15.8916L43.9054 15.5079L43.6956 15.8288L44.3651 16.2628L44.3679 16.2647L44.3709 16.2665L44.369 16.2694L44.367 16.2723L44.2198 16.4977L44.2179 16.5006L44.216 16.5035L44.2132 16.5016L44.2102 16.4998L43.2899 15.9031L43.287 15.9013L43.2841 15.8994L43.286 15.8965L43.2878 15.8936ZM45.4078 17.4319C45.3794 17.41 45.3531 17.3869 45.3288 17.3628C45.3045 17.3386 45.2822 17.3134 45.262 17.2871C45.2418 17.2607 45.2236 17.2332 45.2075 17.2047C45.1914 17.1761 45.1774 17.1464 45.1654 17.1157C45.1533 17.0849 45.1436 17.0536 45.1362 17.022C45.1288 16.9903 45.1237 16.9581 45.121 16.9256C45.1181 16.8931 45.1177 16.86 45.1195 16.8265C45.1213 16.793 45.1255 16.7591 45.1318 16.7247C45.1383 16.6903 45.1471 16.656 45.1584 16.6219C45.1698 16.5878 45.1835 16.5538 45.1997 16.52C45.2158 16.4862 45.2344 16.4526 45.2555 16.419C45.2764 16.3855 45.2999 16.3521 45.3258 16.3189C45.3519 16.2853 45.3788 16.2541 45.4063 16.2252C45.4338 16.1964 45.4621 16.1698 45.491 16.1457C45.52 16.1216 45.5497 16.0997 45.5801 16.0802C45.6105 16.0608 45.6417 16.0437 45.6735 16.0289C45.7054 16.0141 45.7374 16.0016 45.7695 15.9915C45.8016 15.9815 45.8339 15.9736 45.8663 15.9681C45.8988 15.9627 45.9313 15.9594 45.9641 15.9586C45.9968 15.9578 46.0297 15.9592 46.0627 15.9629C46.0957 15.9667 46.1281 15.9728 46.1599 15.9811C46.1918 15.9894 46.2231 16.0001 46.2539 16.0129C46.2846 16.0258 46.3148 16.0409 46.3443 16.0583C46.3738 16.0757 46.4028 16.0954 46.4312 16.1172C46.4577 16.1378 46.4825 16.1594 46.5055 16.1819C46.5285 16.2044 46.5497 16.2279 46.5691 16.2524C46.5884 16.2769 46.606 16.3024 46.6217 16.3289C46.6375 16.3555 46.6514 16.3829 46.6635 16.4114C46.6756 16.4398 46.6858 16.4687 46.6939 16.4979C46.702 16.5271 46.7081 16.5567 46.7123 16.5866C46.7164 16.6165 46.7186 16.6468 46.7187 16.6775C46.7189 16.7081 46.717 16.7392 46.7132 16.7706L46.7128 16.774L46.7124 16.7775L46.7088 16.777L46.7054 16.7766L46.4067 16.7359L46.4032 16.7354L46.3998 16.735L46.4003 16.7315L46.4008 16.7281C46.4035 16.7096 46.405 16.6914 46.4054 16.6737C46.4058 16.6558 46.405 16.6383 46.4032 16.621C46.4013 16.6038 46.3984 16.5869 46.3943 16.5703C46.3902 16.5536 46.3849 16.5372 46.3785 16.5212C46.3721 16.5051 46.3646 16.4896 46.356 16.4746C46.3474 16.4595 46.3376 16.445 46.3267 16.431C46.3158 16.417 46.3037 16.4036 46.2906 16.3906C46.2774 16.3776 46.263 16.3651 46.2476 16.3532C46.2303 16.3398 46.2128 16.3281 46.195 16.3179C46.1772 16.3077 46.1591 16.299 46.1408 16.2919C46.1225 16.2849 46.1038 16.2793 46.0848 16.2753C46.0659 16.2712 46.0467 16.2687 46.0271 16.2678C46.0075 16.2669 45.988 16.2673 45.9685 16.2692C45.9491 16.2711 45.9296 16.2743 45.9102 16.279C45.8908 16.2837 45.8715 16.2898 45.8521 16.2972C45.8329 16.3047 45.8135 16.3136 45.7942 16.324C45.7749 16.3343 45.756 16.346 45.7374 16.359C45.7187 16.3722 45.7004 16.3866 45.6825 16.4024C45.6645 16.4182 45.6469 16.4355 45.6296 16.4541H45.6295C45.6123 16.4726 45.5953 16.4927 45.5786 16.5141C45.5622 16.5351 45.5471 16.5563 45.5336 16.5775C45.52 16.5985 45.5077 16.6196 45.4969 16.6408C45.4861 16.662 45.4767 16.6831 45.4686 16.7042C45.4606 16.7254 45.454 16.7465 45.4488 16.7677C45.4436 16.7888 45.4397 16.8096 45.4372 16.8302C45.4348 16.8507 45.4337 16.871 45.434 16.8908C45.4343 16.9107 45.436 16.9303 45.4389 16.9495C45.442 16.9687 45.4464 16.9877 45.4522 17.0064C45.4579 17.0249 45.4651 17.0429 45.4737 17.0601C45.4823 17.0774 45.4924 17.094 45.5039 17.11C45.5155 17.126 45.5283 17.1413 45.5427 17.1559C45.557 17.1705 45.5728 17.1845 45.59 17.1978C45.6055 17.2098 45.6213 17.2205 45.6371 17.2299C45.6531 17.2393 45.6692 17.2476 45.6856 17.2545C45.7019 17.2615 45.7186 17.2672 45.7354 17.2717C45.7522 17.2762 45.7694 17.2794 45.7866 17.2814C45.804 17.2834 45.8213 17.2843 45.8385 17.2841C45.8557 17.2839 45.873 17.2826 45.8901 17.2801C45.9074 17.2777 45.9245 17.2742 45.9415 17.2696C45.9586 17.2649 45.9757 17.2591 45.9927 17.2523V17.2522L45.9959 17.251L45.9992 17.2497L46.0005 17.2529L46.0018 17.2561L46.1156 17.5341L46.117 17.5373L46.1183 17.5406L46.115 17.5419L46.1117 17.5431C46.0823 17.5544 46.0528 17.5636 46.0231 17.5709C45.9935 17.5781 45.9636 17.5834 45.9336 17.5867C45.9036 17.59 45.8734 17.5914 45.843 17.5907C45.8126 17.5901 45.7821 17.5874 45.7515 17.5829C45.721 17.5783 45.6907 17.5717 45.661 17.5631C45.6314 17.5545 45.6022 17.5439 45.5735 17.5313C45.5449 17.5187 45.5167 17.5041 45.4891 17.4875C45.4615 17.471 45.4344 17.4524 45.4078 17.4319ZM46.5513 18.35L47.6848 17.2606L47.6873 17.2582L47.6898 17.2557L47.6922 17.2583L47.6946 17.2608L48.4398 18.0302L48.4422 18.0327L48.4447 18.0352L48.4421 18.0376L48.4396 18.04L48.2453 18.2268L48.2428 18.2291L48.2403 18.2315L48.2379 18.229L48.2355 18.2265L47.6982 17.6718L47.4442 17.9159L47.9347 18.4223L47.937 18.4247L47.9395 18.4272L47.937 18.4296L47.9345 18.432L47.7401 18.6188L47.7377 18.6212L47.7352 18.6235L47.7328 18.6211L47.7304 18.6186L47.2399 18.1122L46.9633 18.3781L47.5178 18.9506L47.5202 18.9531L47.5226 18.9556L47.5201 18.958L47.5176 18.9604L47.3233 19.1471L47.3208 19.1495L47.3183 19.1519L47.3159 19.1494L47.3135 19.1469L46.5511 18.3598L46.5487 18.3572L46.5463 18.3548L46.5487 18.3524L46.5513 18.35ZM48.1369 20.0395L49.1474 19.2276L48.8607 18.8736L48.8585 18.8709L48.8564 18.8682L48.8591 18.8661L48.8618 18.8639L49.072 18.695L49.0747 18.6929L49.0773 18.6907L49.0795 18.6934L49.0817 18.6961L49.8473 19.6418L49.8495 19.6444L49.8516 19.6471L49.8489 19.6493L49.8462 19.6514L49.6361 19.8203L49.6334 19.8225L49.6307 19.8246L49.6285 19.822L49.6263 19.8193L49.3411 19.467L48.3306 20.2788L48.3279 20.2809L48.3252 20.2831L48.323 20.2804L48.3209 20.2777L48.1358 20.0491L48.1336 20.0465L48.1315 20.0438L48.1342 20.0416L48.1369 20.0395ZM50.2576 21.4554C50.2525 21.4476 50.2482 21.4396 50.2448 21.4314C50.2415 21.4232 50.239 21.4149 50.2374 21.4066L50.2373 21.4063V21.4062C50.2358 21.3979 50.2352 21.3895 50.2354 21.381C50.2356 21.3724 50.2368 21.3637 50.2388 21.3548C50.2408 21.3461 50.2435 21.3378 50.2468 21.33C50.2502 21.3222 50.2542 21.3149 50.2588 21.3081C50.2635 21.3013 50.2689 21.295 50.2749 21.2892C50.2809 21.2835 50.2876 21.2782 50.2949 21.2735C50.3028 21.2684 50.3108 21.2642 50.319 21.2608C50.3271 21.2574 50.3354 21.2548 50.3437 21.2532C50.3521 21.2515 50.3605 21.2508 50.3692 21.2509C50.3777 21.251 50.3864 21.252 50.3952 21.2538C50.4039 21.2557 50.4122 21.2583 50.4201 21.2617C50.428 21.265 50.4354 21.2692 50.4424 21.2741C50.4494 21.279 50.4559 21.2847 50.462 21.2911C50.468 21.2975 50.4736 21.3046 50.4787 21.3125C50.4836 21.3201 50.4878 21.3278 50.491 21.3357C50.4943 21.3436 50.4967 21.3517 50.4982 21.3598C50.4997 21.368 50.5004 21.3763 50.5003 21.3848C50.5001 21.3932 50.4991 21.4019 50.4973 21.4106C50.4954 21.4193 50.4928 21.4276 50.4894 21.4354C50.486 21.4432 50.4818 21.4507 50.4769 21.4576C50.472 21.4646 50.4663 21.471 50.4598 21.4771C50.4535 21.4831 50.4463 21.4887 50.4384 21.4938C50.4311 21.4985 50.4235 21.5024 50.4159 21.5055C50.4081 21.5087 50.4002 21.5109 50.392 21.5125C50.3839 21.5139 50.3755 21.5146 50.3671 21.5145C50.3586 21.5143 50.3498 21.5134 50.341 21.5117C50.3321 21.51 50.3237 21.5075 50.3158 21.5043C50.3078 21.501 50.3003 21.4971 50.2934 21.4924C50.2864 21.4877 50.2799 21.4823 50.274 21.4761C50.268 21.47 50.2625 21.4631 50.2576 21.4554ZM50.392 23.3559L51.7932 22.6393L51.7963 22.6378L51.7994 22.6362L51.801 22.6393L51.8026 22.6424L52.1355 23.2885C52.1469 23.3106 52.1571 23.3324 52.166 23.3539C52.175 23.3754 52.1827 23.3967 52.1893 23.4175C52.1958 23.4385 52.2011 23.4592 52.2053 23.4796C52.2094 23.5 52.2122 23.5201 52.2139 23.5398C52.2155 23.5597 52.2156 23.5792 52.2142 23.5983C52.2128 23.6174 52.2098 23.6362 52.2053 23.6547C52.2008 23.673 52.1947 23.6911 52.1872 23.7086C52.1796 23.7261 52.1705 23.7433 52.1597 23.7602C52.1491 23.777 52.1366 23.7933 52.1221 23.8092C52.1076 23.8251 52.0913 23.8405 52.0731 23.8555C52.055 23.8703 52.035 23.8848 52.0132 23.8988C51.9913 23.9127 51.9677 23.9262 51.9421 23.9393C51.9165 23.9524 51.8916 23.9637 51.8675 23.9733C51.8432 23.9829 51.8197 23.9907 51.797 23.9967C51.7742 24.0027 51.7519 24.007 51.7304 24.0095C51.709 24.012 51.6882 24.0127 51.6681 24.0116C51.6481 24.0106 51.6285 24.008 51.6096 24.004C51.5907 24 51.5723 23.9945 51.5545 23.9875C51.5367 23.9805 51.5195 23.9721 51.5029 23.9622C51.4862 23.9523 51.4702 23.9408 51.4548 23.928C51.4395 23.9153 51.4246 23.9013 51.4102 23.8861C51.3959 23.871 51.382 23.8547 51.3687 23.8373C51.3553 23.8198 51.3425 23.8011 51.3301 23.7813C51.3177 23.7616 51.3058 23.7407 51.2944 23.7185L51.0982 23.3378L50.5318 23.6274L50.5288 23.629L50.5257 23.6306L50.5242 23.6275L50.5225 23.6244L50.389 23.3652L50.3874 23.3621L50.3858 23.3591L50.3889 23.3575L50.392 23.3559ZM51.3528 23.2076L51.5304 23.5525C51.538 23.5671 51.546 23.5807 51.5544 23.5929C51.5628 23.6052 51.5716 23.6163 51.5808 23.6261C51.5899 23.6359 51.5994 23.6444 51.6094 23.6519C51.6192 23.6593 51.6296 23.6655 51.6402 23.6705C51.6508 23.6754 51.6619 23.6788 51.6735 23.6806C51.6852 23.6824 51.6974 23.6827 51.7102 23.6814C51.7231 23.68 51.7366 23.6771 51.7507 23.6725C51.765 23.6679 51.7797 23.6617 51.795 23.6539C51.8099 23.6463 51.8233 23.6381 51.8351 23.6294C51.8467 23.6208 51.8568 23.6117 51.8653 23.602C51.8737 23.5926 51.8805 23.5826 51.8857 23.5721C51.891 23.5617 51.8947 23.5507 51.8967 23.5393C51.8989 23.5277 51.8998 23.5158 51.8996 23.5034C51.8993 23.4911 51.8978 23.4783 51.8952 23.4652C51.8925 23.4522 51.8886 23.4386 51.8835 23.4247V23.4246C51.8784 23.4107 51.872 23.3964 51.8645 23.3817L51.6868 23.0368L51.3528 23.2076ZM51.2853 25.1952L52.7465 24.6091L52.7496 24.6078L52.7528 24.6065L52.7541 24.6097L52.7554 24.6129L53.1564 25.6047L53.1576 25.6079L53.159 25.6111L53.1557 25.6124L53.1525 25.6137L52.9021 25.7142L52.8988 25.7154L52.8957 25.7167L52.8944 25.7136L52.893 25.7104V25.7103L52.604 24.9952L52.2766 25.1266L52.5405 25.7793L52.5418 25.7825L52.5431 25.7857L52.5398 25.787L52.5366 25.7883L52.2861 25.8888L52.2829 25.89L52.2797 25.8913L52.2784 25.8881L52.2771 25.8849L52.0132 25.2322L51.6567 25.3753L51.955 26.1132L51.9563 26.1164L51.9576 26.1196L51.9544 26.1209L51.9511 26.1222L51.7007 26.2227L51.6975 26.224L51.6942 26.2252L51.693 26.222L51.6917 26.2189V26.2188L51.2815 25.2042L51.2802 25.201L51.2789 25.1978L51.2821 25.1965L51.2853 25.1952ZM50.4889 43.8605L50.5517 43.9053L50.8002 43.5239L50.8021 43.521L50.804 43.5181L50.8069 43.52L50.8098 43.5219L51.0362 43.6683L51.0392 43.6701L51.042 43.6721L51.0402 43.6749L51.0383 43.6778L50.3743 44.6969L50.3724 44.6997L50.3706 44.7027L50.3677 44.7008L50.3648 44.6989V44.6989L50.165 44.5697C50.1177 44.6782 50.0813 44.7636 50.0612 44.8117C49.7837 45.4745 49.5193 46.0751 49.2409 46.7451C48.9887 47.352 48.6588 48.0694 48.3532 48.6124C48.2471 48.801 48.1479 48.9838 48.0492 49.1628C48.5319 48.7405 48.9959 48.2986 49.4397 47.8383C50.4501 46.7903 51.3574 45.6461 52.1473 44.4203C51.8965 43.8285 51.4703 43.2517 50.9942 43.0008C50.8766 43.0964 50.6758 43.4721 50.4889 43.8605ZM50.2627 44.3488L50.3837 44.1631L50.356 44.1434C50.3233 44.2143 50.2921 44.2834 50.2627 44.3488ZM56.324 40.8986C56.171 41.309 56.0068 41.715 55.8318 42.1164C55.5874 42.6768 55.1546 43.5558 54.8703 44.0932L54.8701 44.0931C55.0198 44.8434 55.0551 45.6507 54.8384 46.3915C54.543 47.4011 54.0039 47.9198 53.4145 48.4653C52.4657 49.3433 51.7271 49.0455 51.8105 50.2432C51.8665 51.0468 51.0549 51.0478 50.8936 50.987C50.6924 50.911 50.3956 50.422 50.3055 50.0199C48.5323 51.7163 46.5206 53.1364 44.3432 54.2428C40.8277 56.0292 36.8795 57 32.8041 57C25.8928 57 19.6343 54.2584 15.1029 49.8259C10.5695 45.3916 7.76562 39.2659 7.76562 32.5C7.76562 25.7341 10.5695 19.6084 15.1029 15.1741C19.6343 10.7416 25.8928 8 32.8041 8C39.7154 8 45.9739 10.7416 50.5053 15.1741C55.0387 19.6084 57.8426 25.7341 57.8426 32.5C57.8426 32.5317 57.8412 32.6445 57.8384 32.839C58.4942 32.854 59.0296 32.8927 59.2276 32.9784C59.758 33.2081 59.7222 34.6944 59.4613 34.9664C59.1844 35.2551 58.228 35.9032 58.1132 36.1218C58.5291 36.1401 58.7758 36.2268 58.851 36.5747C59.1529 36.5557 59.3445 36.4972 59.5131 36.6972L59.8884 37.1018C60.0914 37.6014 58.9159 38.5721 58.5813 38.8367L57.7705 39.5572C57.6323 39.6732 57.4582 39.7922 57.3286 39.9015C57.0345 40.1494 56.6714 40.6585 56.324 40.8986ZM54.4887 42.8213C54.6861 42.4379 54.7858 42.207 54.9856 41.7489C55.0785 41.5358 55.1683 41.3214 55.2547 41.1058C55.0607 41.1123 54.855 41.115 54.6517 41.1179C54.5663 41.3253 54.4846 41.5167 54.4065 41.6923C54.3251 41.8755 54.2438 42.0526 54.1624 42.2238C54.2819 42.4021 54.3911 42.5989 54.4887 42.8213ZM23.5634 47.7398C23.989 47.9867 24.4224 48.2153 24.8625 48.4251C24.9265 48.4556 24.9908 48.4858 25.0554 48.5157C25.036 46.3926 25.0628 43.2271 24.9631 42.3522C24.7932 42.6316 24.6079 43.5554 24.5142 43.9499C24.4422 44.253 24.3884 44.5007 24.3322 44.8201L23.5634 47.7398ZM28.1842 15.3681C27.2499 15.6091 26.3375 15.9227 25.4555 16.3054C24.5497 16.6984 23.677 17.1639 22.8467 17.698C23.2939 18.3441 23.7815 18.9308 24.4258 19.2661C25.4819 19.8156 27.4226 20.3541 27.6511 18.6685C27.6837 18.4282 27.7373 18.3794 27.7604 18.1686C27.88 17.0761 27.871 16.3218 28.1842 15.3681ZM50.0912 27.1934C49.1747 24.3377 47.551 21.8045 45.4196 19.7829C43.4674 17.9312 41.0893 16.5092 38.4388 15.6616C38.9899 16.5629 39.3264 17.6108 39.3825 18.7343C39.4405 19.8972 39.0765 21.7076 38.4768 22.6494C38.3001 22.9271 38.1576 23.1762 37.9652 23.3602C37.3382 23.9596 36.7896 24.4818 36.0516 25.0277C35.6818 25.3012 35.7211 25.2878 35.6992 25.8778C35.6629 26.8587 35.8847 27.981 36.4998 28.6809C37.0858 29.3476 38.6352 30.0115 39.6469 30.3306C40.7878 30.6905 42.1263 31.2504 43.0174 31.7773C43.7935 32.2362 44.0468 32.8258 44.3424 32.8569C44.6399 32.8881 46.5364 32.8848 46.7261 32.8318C46.8581 32.7543 47.0532 32.2174 47.8272 31.8331C48.3908 31.5532 48.7658 31.463 49.5066 31.4781C50.3889 31.4962 52.5292 31.5194 52.4762 30.281C52.463 29.9741 52.2744 29.744 52.0986 29.6168C51.649 29.2916 50.8511 29.7287 50.3002 29.6742C49.8097 29.6257 49.8585 29.5596 49.5839 29.3799C49.4172 29.2708 46.5111 29.1913 46.2694 29.2329C46.1104 29.2603 45.9938 29.2859 45.8143 29.2993C45.9419 28.9864 46.9636 28.8578 47.2743 28.8506C47.4695 28.8462 47.6615 28.851 47.8572 28.8387C47.6776 28.2299 46.3407 28.1877 45.7923 28.3324C45.6877 28.36 45.8513 28.3431 45.7053 28.3385L45.6461 28.3196C45.785 28.1174 46.2074 27.9717 46.5305 27.9569C47.5432 27.9108 48.5844 29.0718 49.3187 28.5338C49.4221 27.6908 49.1503 27.6972 49.8613 27.3217C49.9385 27.2809 50.0148 27.2374 50.0912 27.1934ZM52.3836 45.3157C51.6545 46.382 50.8364 47.3855 49.9387 48.3165C48.9458 49.3462 47.8563 50.2862 46.6828 51.1235C46.232 51.6186 45.992 51.6833 45.2058 52.3172C45.0004 52.4827 44.6516 52.7021 44.385 52.8452C44.0772 53.0103 43.8847 53.0383 43.6461 52.9621C42.019 53.7874 40.3047 54.4213 38.5389 54.855C36.6685 55.3143 34.7427 55.5492 32.8041 55.5492C31.3841 55.5492 29.9934 55.4262 28.6426 55.1906C28.6318 55.1889 28.6211 55.187 28.6106 55.1849C23.7879 54.3367 19.4743 52.052 16.1492 48.7996C11.8845 44.628 9.24666 38.8652 9.24666 32.5C9.24666 31.0141 9.39382 29.5344 9.68398 28.0812C9.97373 26.6304 10.4071 25.205 10.9799 23.8254L11.0107 23.838C10.9597 23.5206 10.9367 23.1617 11.0469 22.7364C11.1329 22.4043 11.1992 22.1171 11.2834 21.8535C9.62587 25.0516 8.69141 28.6689 8.69141 32.5C8.69141 39.0104 11.3889 44.9042 15.7502 49.1703C20.1133 53.4381 26.1427 56.0778 32.8041 56.0778C36.7322 56.0778 40.5368 55.1425 43.9237 53.4214C47.2067 51.7532 50.0965 49.3482 52.3253 46.3426C52.4003 46.0281 52.4247 45.6874 52.3836 45.3157ZM53.6739 41.6324C53.7044 41.5656 53.7344 41.4984 53.7719 41.4141C53.8137 41.32 53.8536 41.2289 53.8915 41.1409C53.6038 41.1592 53.3747 41.1937 53.2702 41.2636C53.4108 41.3822 53.5458 41.5034 53.6739 41.6324ZM17.432 15.0352C19.5695 13.2342 22.0024 11.8382 24.6067 10.8923C27.2112 9.94634 29.9851 9.45077 32.8041 9.45077C39.3071 9.45077 45.1956 12.0302 49.459 16.2004C53.7237 20.372 56.3615 26.1348 56.3615 32.5C56.3615 32.575 56.3603 32.6867 56.3578 32.8348C56.5431 32.8329 56.7304 32.8316 56.9162 32.8312C56.9166 32.8026 56.9168 32.6919 56.9168 32.5C56.9168 25.9896 54.2193 20.0958 49.858 15.8298C45.4949 11.5619 39.4655 8.92222 32.8041 8.92222C26.1427 8.92222 20.1133 11.5619 15.7502 15.8298C14.2464 17.3007 12.9403 18.9653 11.8746 20.782C12.3992 20.152 13.1241 19.6534 13.868 19.3215L14.264 19.1252C14.2967 18.3425 14.4869 17.813 14.8195 17.2517C15.3457 16.3635 16.3279 15.5214 17.4341 15.0376L17.432 15.0352ZM18.3174 49.7983C19.0826 50.4118 19.8891 50.9778 20.7325 51.4915C20.9748 51.2795 21.2126 51.0656 21.4516 50.8356C22.3508 49.9702 22.479 48.5614 22.7294 47.0192C22.9677 45.5514 23.292 44.0941 23.4769 42.6236C23.5958 41.6775 23.4831 41.08 22.8894 40.7146C22.557 40.5099 21.3093 40.1921 20.8516 40.2236C20.552 40.6135 20.4032 41.5889 20.2551 42.1549C19.8879 43.5584 19.4073 44.8766 19.3117 46.3611C19.2622 47.1289 19.1272 47.8218 18.8756 48.4936C18.7149 48.9225 18.5148 49.3678 18.3174 49.7983ZM26.1381 53.8923C26.2216 53.9171 26.3054 53.9415 26.3894 53.9655L26.4259 53.1555C26.343 52.9949 26.4079 52.2105 26.4082 51.8068C26.4084 51.5024 26.4656 51.2339 26.3202 51.1389C26.1785 51.2029 26.2609 51.0414 26.2055 51.3239C26.0973 51.8751 26.1295 52.9689 26.1281 53.5776C26.1279 53.6806 26.1347 53.7884 26.1381 53.8923ZM27.1 54.1564C27.4246 54.2379 27.7523 54.3122 28.0824 54.38L28.0801 51.676C28.0812 51.0504 28.1094 50.9342 27.8047 50.5526C27.3399 50.5071 27.2124 50.953 27.1248 51.339C26.9682 52.0292 27.1296 53.353 27.1 54.1564ZM29.3705 54.607C30.4904 54.772 31.637 54.8576 32.8041 54.8576C34.4373 54.8576 36.0578 54.687 37.639 54.3527C37.5415 54.0623 37.5846 53.6767 37.5847 53.3141C37.5854 52.3264 37.5837 52.7508 37.5846 51.7632C37.5854 50.869 37.7321 49.9171 36.6128 49.7596C35.0302 49.537 34.5249 49.921 34.5122 48.8878C34.5043 48.2504 34.4941 43.1652 34.5539 43.0137C35.0582 42.8282 34.9601 43.4184 35.0029 43.8136C35.1316 45.0019 35.0401 46.2968 35.2999 47.4347C35.5016 48.318 35.7483 48.6218 36.6936 48.6778C37.2684 48.7118 38.199 48.15 38.525 47.8833C39.5159 47.073 40.1068 46.2627 40.3787 44.4926C40.4929 43.7496 40.579 42.8982 40.6264 42.1326C40.652 41.7194 40.6442 41.2445 40.645 40.8256C40.646 40.3227 40.5732 40.0787 40.3258 39.8278C40.0873 39.7218 36.9455 40.8972 35.1054 39.1782C34.7338 38.831 34.3122 38.5031 34.1667 37.9722C33.9301 37.1089 35.1368 37.4509 35.585 37.4942C37.2427 37.6548 38.9533 37.688 40.5906 37.3515C40.9909 37.2692 41.0578 37.1575 41.4276 37.2847C41.506 37.8321 41.4339 38.2709 41.4138 38.8203C41.3959 39.3107 41.4095 39.898 41.4267 40.3917C41.4786 41.8814 42.1862 41.548 42.9233 40.9368C43.2486 40.6671 43.2834 40.2932 43.2963 39.7369C43.3084 39.2142 43.3101 38.6905 43.3104 38.1677C43.3108 37.6446 43.3107 37.1217 43.3143 36.5989C43.3199 35.7985 43.223 35.9041 42.7509 35.5713C42.4273 35.3431 42.2424 35.0571 42.1939 34.5129C42.1344 33.8446 42.1236 33.9085 41.4704 33.6631C40.6288 33.347 39.5114 33.3155 38.6122 33.3593C36.3024 33.4719 34.607 34.1599 32.9506 34.0435C32.8524 33.8879 32.5926 33.7387 32.6989 33.452C32.8487 33.0481 33.7164 33.0599 34.065 32.9787C34.3138 32.9207 34.5271 32.8221 34.7686 32.7636C35.7522 32.5257 36.6338 32.1696 36.9932 31.3617C37.5005 30.2216 35.2257 30.2101 34.6991 27.345L34.625 26.7756C34.6084 26.7076 34.6091 26.7239 34.5858 26.6675C34.5817 26.6579 34.5692 26.6522 34.5661 26.6317C34.5628 26.6108 34.5534 26.6067 34.5449 26.5958C34.344 26.6597 34.0341 26.9951 33.889 27.1433C33.6893 27.3472 33.4981 27.4824 33.2871 27.6774C33.0757 27.8729 32.9366 28.0372 32.7115 28.2342C32.5118 28.4089 32.2846 28.5465 32.0528 28.7143C30.5724 29.7862 29.677 29.8777 31.1574 30.9538C31.5117 31.2114 32.3858 32.0342 31.1156 31.9213C29.1834 31.7496 26.9306 30.9959 25.0041 31.3716C24.3362 31.5019 23.8577 31.7772 23.4074 32.0855C22.9445 32.4023 22.7279 32.8109 22.5306 33.4779C22.1671 34.7069 21.7277 38.2266 22.6543 39.3778C22.8186 39.582 23.014 39.7342 23.2633 39.9077C23.5362 40.0977 23.7056 40.1194 24.0579 40.2535C24.4587 40.4061 24.483 40.4144 24.6944 40.0373C24.9364 39.6055 25.0186 38.6063 25.0282 38.079C25.0564 36.5426 25.3422 37.2354 27.0061 37.5262C28.3427 37.7597 29.7565 37.7862 31.0926 37.5576C31.4486 37.4967 32.8195 37.0941 32.5996 37.8809C32.5496 38.0598 32.2724 38.4917 32.1884 38.6093C31.3187 39.8259 29.954 40.1861 29.0044 40.1963C27.611 40.2115 26.7295 39.4733 26.4805 39.5835C26.0348 39.822 26.2555 41.2091 26.2898 41.7414C26.4375 44.0338 26.776 46.5702 28.2457 48.2766C28.5313 48.6082 28.4607 48.5986 28.9846 48.7611C29.409 48.8927 29.6008 48.856 30.0432 48.7705C30.408 48.7 30.6333 48.5042 30.8024 48.2973C31.8366 47.0313 31.1968 44.8616 31.6315 44.2727L31.9112 44.3198C32.0314 44.6119 31.9535 47.3159 31.9526 47.885C31.9496 49.5813 32.2441 49.8078 30.4764 49.9648C30.0984 49.9983 30.0653 50.0075 29.8634 50.1916C29.2678 50.7346 29.3723 51.625 29.3723 52.4168C29.3723 53.5544 29.3689 53.5476 29.3705 54.607ZM38.8737 54.0562C39.2142 53.9645 39.5525 53.8651 39.8884 53.7581C39.879 53.4772 39.9076 53.1305 39.9076 52.8089C39.9076 51.9723 40.1353 50.4826 39.2027 50.5323C38.668 50.7837 39.0013 52.9841 38.8737 54.0562ZM40.5637 53.5314C40.6129 53.514 40.6621 53.4965 40.7112 53.4788C40.6607 52.7784 40.7135 51.6337 40.7146 51.1374C40.6097 51.194 40.6531 51.1531 40.6204 51.2819C40.5562 51.535 40.5593 52.4583 40.549 52.7216C40.5335 53.1161 40.5438 53.3706 40.5637 53.5314ZM41.0189 53.3654C41.6421 53.1308 42.2556 52.8691 42.8576 52.5809C42.1078 52.1813 41.9523 51.9998 41.251 51.1878C41.1355 51.0541 41.2125 51.1069 41.0634 51.036C41.0572 51.0482 41.0521 51.0638 41.049 51.0745C41.046 51.0852 41.0393 51.1001 41.036 51.1135L41.0137 53.1803C41.0137 53.2434 41.016 53.3054 41.0189 53.3654ZM33.7324 19.3425C33.7568 19.0875 33.4948 19.0432 33.2596 19.0855C33.2843 19.2756 33.5058 19.3868 33.7324 19.3425ZM32.1936 20.1726C32.4157 19.8378 32.4709 19.4875 33.1471 19.5413C33.3686 19.5589 33.5686 19.7592 33.9341 19.7641C34.5637 19.7724 34.7245 18.8361 33.5064 18.5485C32.8371 18.3904 31.9631 18.4364 31.4097 18.791C31.0574 19.0167 31.119 19.3951 31.3751 19.668C31.5812 19.8876 31.7399 20.171 32.1936 20.1726ZM34.3699 18.2136C34.6882 18.191 34.6159 18.1207 34.7637 17.9304C35.5111 17.7911 35.9534 18.5569 36.3123 18.8503C36.6769 19.1485 36.9353 18.6738 36.0021 17.5426C35.2744 16.6606 34.4461 15.9725 33.139 15.4331C32.7013 15.2524 31.4962 15.0838 30.9441 15.195C30.3393 15.3169 30.3176 15.7099 30.565 15.7683C30.9213 15.8525 30.6066 15.6192 31.6461 15.9611C32.1912 16.1404 33.3632 17.0199 33.7818 17.5332C33.9334 17.719 34.2013 18.0992 34.3699 18.2136ZM46.0039 39.4299C46.2141 39.4869 46.6302 40.039 46.9376 40.3344C47.3765 40.7561 47.7704 40.9716 47.9908 41.1744C47.8744 41.4586 47.3164 41.9349 47.0682 42.1434C46.8507 42.3263 46.2486 42.9087 46.0504 42.9958C46.0286 42.5264 45.9217 39.6732 46.0039 39.4299ZM46.0825 37.7608C46.244 37.8158 46.6511 38.0883 46.7804 38.1835C47.7175 38.8729 48.1839 38.9426 49.3447 38.9523C49.2678 39.2107 48.7763 40.2105 48.6319 40.3619C48.3582 40.2987 47.3627 39.4561 47.1722 39.2729C46.9621 39.0709 46.1641 38.1541 46.0825 37.7608ZM56.5515 39.8288C56.5594 39.5579 56.6966 39.5709 57.205 39.2546C57.7974 38.8859 59.0193 38.1323 59.3927 37.6446L59.4354 37.6738C59.4886 37.7493 58.2607 38.7734 58.1363 38.876C57.8407 39.1198 57.0413 39.8279 56.5515 39.8288ZM59.3031 37.0359C59.2205 37.1657 58.5048 37.7074 58.2934 37.854C57.9056 38.123 57.5873 38.3152 57.164 38.5636C56.9184 38.7077 56.8033 38.7697 56.604 38.9187C56.441 39.0406 56.2586 39.1829 56.0695 39.3013C55.9566 39.372 54.7112 39.9353 54.8793 39.4237C54.9834 39.107 55.5447 38.7769 55.9057 38.6113C56.2105 38.4715 57.1491 37.9844 57.3554 37.792C57.479 37.6766 57.4273 37.6535 57.5828 37.5402C57.8323 37.3585 58.4719 37.0285 58.7891 36.9069C58.9354 36.8508 59.5077 36.7137 59.3031 37.0359ZM41.3516 49.5408L41.352 42.5688C41.3507 42.2025 41.3503 42.2586 41.6198 42.1179C41.7946 42.0266 41.9267 41.9653 42.1356 41.892C42.5551 41.7449 42.9044 41.6567 43.3899 41.6581C43.6094 41.9205 43.5667 41.9096 43.5767 42.3525C43.5828 42.6212 43.6084 42.8695 43.616 43.1346C43.6311 43.6592 43.6981 45.2299 43.5481 45.6981C43.4389 46.0388 43.4042 46.0171 43.2434 46.2655C43.0971 46.4916 42.6141 47.1618 42.7255 47.4497C43.0818 47.602 43.1479 47.1798 43.4853 46.6357C43.702 46.2864 43.9477 45.9626 44.2025 45.6508C45.4894 44.0758 46.0403 43.5321 47.5825 42.2204C48.0504 41.8225 48.7603 40.984 49.1219 40.3552C49.4767 39.7383 49.4905 39.5262 49.9893 38.7335C50.1099 38.5416 50.1932 38.3514 50.3041 38.1771C50.8218 37.363 51.8922 37.5691 52.9259 37.724C53.4539 37.803 53.9841 37.8168 54.5379 37.8221C56.1017 37.8372 57.4895 36.6007 58.5111 36.7021L57.2137 37.4793C56.7923 37.7583 56.3734 38.0571 55.86 38.2635C54.2565 38.9082 53.3237 38.2902 52.5126 39.2006C51.8589 39.9344 50.0461 43.5954 49.5375 44.7365C49.1373 45.6347 48.6181 46.8061 48.0625 47.4922C47.3148 48.4155 46.8566 48.9288 45.9328 49.641C45.5546 49.9325 45.1575 50.3228 44.7848 50.6329C44.4424 50.9178 44.0497 51.4535 43.5612 51.5548C42.9283 51.686 42.4691 51.2126 42.1104 50.9386C41.6182 50.5626 41.3593 50.4611 41.3489 50.1109C41.3434 49.9291 41.3516 49.7257 41.3516 49.5408ZM43.4478 35.4034C44.1983 35.3414 47.8351 35.3955 48.8943 35.3949C49.6105 35.3946 50.7857 35.3104 51.3081 35.6764C52.1554 36.2702 51.7672 36.6928 51.0354 37.1201C50.4491 37.4625 49.8868 37.7802 49.0746 37.8651C47.4786 38.032 46.9461 37.7218 45.8454 37.0663C44.7982 36.4428 44.4113 36.1728 43.4478 35.4034ZM42.7253 33.9774C43.2514 33.6525 43.9539 33.7585 44.6945 33.7601L57.819 33.7495C58.2227 33.7493 58.5128 33.6799 58.767 33.9117C59.018 34.1406 58.8688 34.4699 58.7584 34.6138C58.2796 35.2375 55.2481 35.0055 55.0191 35.0056L43.9071 35.0057C43.5713 35.0049 43.2029 35.0301 42.9314 34.913C42.7199 34.8217 42.7422 34.8021 42.719 34.5485C42.7002 34.3446 42.6968 34.1803 42.7253 33.9774ZM16.3018 33.0336C16.3776 33.2091 16.4759 34.6223 16.7735 35.4367C16.9008 35.7849 16.9911 36.1726 17.1266 36.5241C17.2607 36.8723 17.3982 37.1859 17.5676 37.5195C17.9788 38.329 18.695 39.464 19.2991 40.1064C19.4285 40.244 19.5653 40.3127 19.6729 40.4744C19.7838 40.6411 19.8243 40.9118 19.6349 41.0158C19.2079 41.2505 18.2375 40.0493 18.0616 39.7697C17.6793 39.1618 17.3191 38.7009 17.0058 37.942C16.7299 37.2736 16.4847 36.5062 16.3818 35.6942C16.32 35.206 16.076 33.3735 16.3018 33.0336ZM21.2337 35.4115C19.8184 34.4927 18.722 31.5749 19.7898 29.9637C20.3474 29.1223 21.6185 28.9353 22.6393 28.8569L26.147 28.4406C27.3895 28.1967 28.4303 27.7399 29.6111 27.3274C29.7792 27.2687 29.9266 27.1937 30.0887 27.1521C30.0862 27.9197 29.991 28.31 29.6555 28.8531C29.4319 29.2151 28.7529 29.4078 28.2883 29.6227C27.3691 30.0481 26.0505 30.4247 25.0687 30.6925C24.3405 30.8911 24.1124 30.9206 23.5709 31.3331C22.9808 31.7826 22.9647 31.7178 22.4845 32.3874C22.2149 32.7634 21.9056 33.2898 21.6894 33.7276C21.4179 34.2775 21.4268 34.8569 21.2337 35.4115ZM51.2371 27.0995C51.7954 26.9626 52.1808 27.1799 52.6035 27.5446C53.5837 28.3903 54.9574 29.2165 54.0803 31.1332C53.8765 31.5786 53.6454 31.9913 53.3486 32.2769C53.2086 32.4116 52.9888 32.5783 52.7985 32.6873C52.455 32.8841 52.5054 32.8587 52.0443 32.8565C50.8103 32.8506 49.5039 32.9015 48.2805 32.8508C48.4202 32.5425 49.39 32.0207 49.9276 31.9124C50.6317 31.7705 51.4422 31.7333 52.0331 31.4435C54.1087 30.4259 52.8631 28.2135 52.438 28.2403C52.2898 28.2497 51.637 28.8054 50.3576 28.5705C50.1396 28.5305 49.8451 28.5066 49.7407 28.2927C50.07 28.1911 50.454 28.1508 50.5192 27.971C50.456 27.9217 50.5173 27.9499 50.4178 27.9263C50.3011 27.8985 49.9083 27.9589 49.7462 27.7532C50.5406 27.3895 51.3582 27.644 51.6445 27.4481C51.6529 27.1608 51.5636 27.2397 51.3084 27.1375L51.2371 27.0995ZM22.4694 24.8948C24.0556 24.8486 25.6053 25.0507 27.1076 25.0139C27.5168 25.0039 28.3135 24.9338 28.677 25.0144C28.7138 25.3941 28.3935 25.4468 28.0958 25.5499C23.5229 27.132 19.0304 25.1862 16.388 30.6253C15.6864 32.0694 15.5597 32.5752 15.4335 34.1582C15.2358 36.6373 16.1504 38.9966 17.349 41.0481C17.6127 41.4993 17.9597 41.9934 18.2584 42.3636C18.7364 42.956 19.1551 43.2322 19.1227 43.6785C18.76 43.7356 18.4992 43.4359 18.2728 43.2633C16.215 41.6946 16.7426 42.2335 15.0225 40.1371C13.7926 38.6381 13.0597 36.7406 12.8397 34.6874C12.7149 33.5228 13.0983 31.5601 13.4518 30.4964C14.7506 26.5818 18.5357 25.0094 22.4694 24.8948ZM11.9913 27.9879C11.8809 27.4993 12.8614 25.9213 13.0922 25.6012C13.6645 24.8073 14.0684 24.4368 14.8956 23.8692C15.9036 23.1775 17.9046 22.8326 19.2347 22.8614C19.4806 22.8667 20.573 23.0055 20.7421 23.0906C20.6097 23.2222 19.5397 23.2392 19.2372 23.2745C17.1124 23.5221 14.7338 24.3256 13.3413 25.8937C12.7804 26.5252 12.6989 26.7288 12.3381 27.4638C12.2926 27.5564 12.2385 27.6572 12.1915 27.7522C12.0944 27.9485 12.0988 27.9362 11.9913 27.9879ZM11.3487 25.542L11.5206 25.1252C11.5243 25.1149 11.5282 25.1033 11.5318 25.0929C11.5937 24.9115 11.6218 24.7497 11.7516 24.596L11.7971 24.5251C11.9728 24.1176 12.2594 23.8183 12.474 23.5476C12.6289 23.3522 12.6814 23.3134 12.8644 23.1536C13.0812 22.9642 12.969 23.0097 13.3267 22.8038C13.9388 22.1799 15.4704 21.6282 16.6 21.3906C18.8879 20.9093 20.7562 21.2126 22.92 21.8233C23.2257 21.937 23.4862 22.0393 23.7678 22.1517C24.0492 22.2641 24.3793 22.3411 24.6633 22.4464C25.2079 22.6483 25.7997 22.8937 26.3762 23.0715C26.5495 23.125 26.6659 23.1618 26.8433 23.2126C27.0976 23.2854 28.0875 23.5252 28.2209 23.6135L27.9296 23.7023C26.9915 23.8302 25.4866 23.4621 24.5826 23.2504C22.7163 22.8132 20.5419 22.2808 18.5859 22.4171C16.4453 22.5662 14.0225 23.2879 12.6299 24.7059C12.3306 25.0575 11.812 25.4997 11.2371 26.0756L11.3487 25.542ZM29.5828 22.3712C29.3479 22.4105 29.3025 22.2828 29.2175 22.1235C28.9873 21.6919 28.7699 20.9303 29.1197 20.603C29.6073 20.1466 29.8666 21.8968 29.5828 22.3712ZM11.5158 23.6741C10.9611 21.4047 13.0454 19.846 14.7273 19.3903C16.3126 18.9608 18.0084 19.2499 19.4638 19.9817L20.6917 20.6665C20.3737 20.6269 19.7558 20.3883 19.3712 20.2938C17.9435 19.9429 16.3679 20.0244 15.0632 20.5476C14.1545 20.9121 13.583 21.2521 13.0081 21.8143C12.7564 22.0604 12.4977 22.3853 12.248 22.7123C12.0433 22.9804 11.8938 23.1524 11.7251 23.4541C11.6106 23.6588 11.6914 23.6088 11.5158 23.6741ZM19.9055 18.4123C20.1092 18.661 20.7088 19.2002 20.7494 19.5024C20.0786 19.0739 19.4346 18.1899 18.8746 17.5647C18.3377 16.9652 17.5661 16.4673 16.7221 16.3675L16.337 16.2807C17.2868 15.7139 18.6124 16.8439 19.0163 17.2928C19.3471 17.6605 19.613 18.0551 19.9055 18.4123ZM26.2625 21.8386C26.3348 22.2158 25.1454 21.6799 24.9008 21.5875C23.3292 20.993 23.5724 20.9934 22.3839 20.1699C21.129 19.3003 20.0527 17.8363 18.9155 16.783C18.0502 15.9815 17.4217 15.9857 17.0201 15.7994C18.1165 15.2791 19.3159 15.93 19.9799 16.4183C20.783 17.0089 21.4064 17.6085 22.0302 18.2563C23.8321 20.1279 23.5807 20.0704 25.696 21.4476C25.8755 21.5645 26.2437 21.7402 26.2625 21.8386ZM30.9135 23.7317C30.7457 23.7154 30.7159 23.6721 30.6227 23.6084C30.62 23.5103 30.6169 23.469 30.6368 23.3686C30.6533 23.2857 30.6295 23.3939 30.6633 23.2767L30.7671 23.2041C30.7773 23.2027 30.8558 23.1881 30.8698 23.1841C31.1003 23.1488 31.2937 23.1636 31.4964 23.1884C31.7346 23.2177 31.8757 23.2969 32.0741 23.2862C32.0869 23.0637 31.8365 22.8116 31.7166 22.7306C31.5828 22.6403 31.1845 22.569 30.9836 22.5431C30.9457 22.0313 31.7247 22.224 31.8468 21.7089C31.8747 21.5911 31.8741 21.5509 31.7406 21.5396C31.6644 21.5332 31.731 21.5299 31.6444 21.5493C31.6106 21.5569 31.5162 21.5995 31.451 21.6161C31.2969 21.6553 31.1763 21.6376 31.0154 21.6622C30.5525 21.733 30.6928 21.9255 30.2879 21.6675C30.239 21.0472 30.5728 20.5539 30.4866 19.7627C30.4091 19.0529 30.0789 18.8073 29.6095 18.5506C29.0947 18.2692 29.0447 17.6823 29.2264 17.0147C29.4582 16.1625 30.2102 16.0264 29.9405 15.7395C29.6567 15.4376 28.7179 16.5579 28.841 15.8884C28.8473 15.8542 28.8791 15.7655 28.8938 15.7239C29.1631 14.9625 29.7071 14.4239 30.5653 14.2541C31.7739 14.0149 32.6006 14.028 33.6685 14.5082C34.964 15.0908 35.8349 15.8827 36.7574 16.8759C37.2907 17.4501 37.3046 17.7979 37.6641 17.7023C37.8011 16.4986 36.1096 14.6861 35.0408 14.0105C34.8443 13.8863 34.6203 13.8432 34.6389 13.5585C34.9104 13.5278 35.6179 13.8366 35.8509 13.9458C36.211 14.1145 36.514 14.4477 36.7539 14.6585C37.1905 15.0422 37.9202 16.0344 38.0877 16.5458C38.3628 17.3858 38.3591 18.5173 38.1621 19.4081C38.0315 19.9989 37.9578 20.1259 37.6822 20.549C36.7249 22.0184 36.7449 21.0402 37.0498 20.7049C38.1229 19.5245 38.056 18.5239 37.2565 19.4296C36.6228 20.1475 36.3256 20.1943 35.6697 19.2995C35.8194 18.8238 35.8068 18.9411 35.3142 18.6627C35.1807 18.5872 35.1012 18.4794 34.8947 18.4726C34.701 18.4661 34.5839 18.5425 34.592 18.7317C34.6068 19.0789 35.4142 19.6719 35.5926 20.0398C35.7902 20.4474 35.6762 21.6161 35.6814 22.1755C35.6901 23.099 35.9047 23.4303 35.3455 24.0633C34.8255 24.6519 33.3378 25.4336 32.2355 25.5868C31.6326 25.6707 30.763 25.531 30.5776 24.9885C30.2759 24.1058 31.6142 24.4303 31.8277 23.9621C31.7425 23.6041 31.2915 23.7998 30.9135 23.7317Z" fill="#672C1D"/>
</svg>
