<svg width="156" height="145" viewBox="0 0 156 145" fill="none" xmlns="http://www.w3.org/2000/svg">
<path fill-rule="evenodd" clip-rule="evenodd" d="M130.172 100.342C130.731 99.8165 132.701 98.537 134.028 98.629C134.485 98.6606 135.413 99.3231 135.77 99.62C136.287 100.048 136.641 100.529 137.107 101.134C138.596 103.068 139.75 106.294 139.805 109.49C139.895 114.67 136.956 117.472 133.196 119.504C131.194 120.586 129.754 122.236 130.157 124.686C130.272 125.385 130.235 126.793 129.16 125.943C128.506 125.426 127.465 122.977 128.1 121.769C129.928 118.288 137.073 116.877 134.508 107.066C134.065 105.375 133.756 104.42 132.826 103.208C132.398 102.65 132.031 102.191 131.61 101.708L130.172 100.342ZM48.998 124.328L46.9272 128.487L46.9227 128.496L46.918 128.505L46.909 128.501L46.8998 128.496L44.9674 127.541C44.9014 127.509 44.8387 127.475 44.7794 127.439C44.7199 127.403 44.664 127.366 44.6116 127.328C44.5593 127.29 44.51 127.25 44.4643 127.208C44.435 127.182 44.4071 127.155 44.3806 127.127C44.0371 127.651 43.6088 128.257 43.063 128.993C42.7704 129.387 42.4652 129.836 42.1529 130.309C45.9949 132.402 50.0675 134.138 54.3239 135.475C54.0913 133.005 54.3558 129.851 54.2763 127.39C53.87 127.177 53.4322 127.054 53.1244 126.765L52.3453 125.726C52.2313 125.413 52.1682 124.052 52.1316 122.12C51.6354 121.9 51.1409 121.673 50.6482 121.438C49.4559 120.869 48.2888 120.262 47.1492 119.617L46.849 120.757C46.1734 122.777 45.9935 123.803 45.5978 124.842C45.6115 124.845 45.6252 124.847 45.6389 124.849C45.6997 124.86 45.7616 124.875 45.8243 124.893C45.8867 124.911 45.9502 124.933 46.0146 124.958C46.0789 124.984 46.1443 125.013 46.2103 125.045L47.349 125.608L48.1858 123.927L48.1905 123.918L48.195 123.909L48.2042 123.913L48.2134 123.918L48.9886 124.301L48.9978 124.306L49.007 124.31L49.0025 124.319L48.998 124.328ZM46.9728 126.363L45.9417 125.854C45.8976 125.832 45.8548 125.814 45.8132 125.799C45.7718 125.785 45.7313 125.774 45.6921 125.767C45.6531 125.759 45.6151 125.756 45.5786 125.755C45.5422 125.755 45.5065 125.758 45.472 125.765C45.4382 125.772 45.4058 125.783 45.3749 125.799C45.3439 125.815 45.3144 125.836 45.2864 125.862C45.2581 125.887 45.2311 125.918 45.2056 125.954C45.1799 125.989 45.1558 126.03 45.1331 126.076C45.1111 126.12 45.0936 126.163 45.081 126.204C45.0683 126.245 45.0603 126.284 45.0572 126.322C45.0539 126.359 45.0555 126.395 45.0614 126.429C45.0673 126.463 45.0778 126.495 45.0931 126.526H45.0929C45.1084 126.558 45.1272 126.588 45.1496 126.617C45.1721 126.646 45.198 126.673 45.2272 126.7C45.2567 126.726 45.29 126.752 45.3267 126.776C45.3636 126.8 45.404 126.823 45.4479 126.845L46.4791 127.355L46.9728 126.363ZM31.2615 116.857L30.8103 117.302L30.803 117.309L30.7958 117.317L30.7887 117.309L30.7814 117.302L28.5475 115.054H28.5473L28.5402 115.047L28.5329 115.04L28.5402 115.032L28.5475 115.025L29.1151 114.465V114.465L29.1225 114.458L29.1298 114.451L29.1369 114.458L29.1442 114.465L30.755 116.086L31.497 115.355L30.0267 113.875L30.0195 113.868L30.0124 113.861L30.0196 113.853L30.0269 113.846L30.5945 113.286L30.5973 113.284C29.5 112.624 28.3242 111.727 27.2179 110.793L26.4194 111.425L27.2595 112.478L27.2658 112.487L27.2722 112.494L27.2642 112.501L27.2562 112.507L26.6305 113.002L26.6226 113.008L26.6144 113.015L26.6082 113.007L26.6018 112.999L24.3578 110.184L24.3514 110.176L24.345 110.168L24.3531 110.162L24.3611 110.156L24.9866 109.661L24.9948 109.654L25.0027 109.648L25.0091 109.656L25.0154 109.664H25.0155L25.8515 110.712L26.5155 110.187C25.1136 108.954 23.8865 107.731 23.1686 106.973C20.4068 104.056 18.4498 101.737 16.3178 97.2936C14.5862 93.6836 13.0095 89.0245 12.3585 84.7128C12.0368 82.5823 12.0982 80.5189 12.3327 78.6377L11.7325 78.684L11.7223 78.6846L11.7122 78.6855L11.7113 78.6753L11.7105 78.6651V78.665L11.4321 75.0815L11.4313 75.0714L11.4306 75.0612L11.4408 75.0603L11.451 75.0596L12.2476 74.9981L12.2576 74.9973L12.268 74.9966L12.2687 75.0068L12.2696 75.0172L12.3733 76.3519L12.7138 76.3257C13.2821 73.5164 14.0772 71.336 14.16 70.3009C11.6711 67.5473 10.3449 65.2163 9.56252 61.469C9.21866 59.8216 9.19664 58.1985 9.33617 56.7062C9.07844 57.7326 8.84601 58.7651 8.63872 59.8029C7.80696 63.9685 7.38511 68.2151 7.38511 72.4843C7.38511 90.749 14.9531 107.284 27.1888 119.252C27.6781 119.731 28.1759 120.202 28.6801 120.666C28.8081 120.472 28.9362 120.276 29.0641 120.077C29.4515 119.472 30.429 118.132 31.2615 116.857ZM30.6552 113.318L32.0939 114.766L32.6186 114.249C32.6196 114.239 32.6205 114.229 32.6212 114.219C32.0253 114.054 31.357 113.736 30.6552 113.318ZM12.5396 77.2515L12.4438 77.2589L12.4739 77.647C12.4951 77.5142 12.5171 77.3822 12.5396 77.2515ZM13.6303 69.9605C13.6296 69.9883 13.6264 70.015 13.6208 70.0404C13.6153 70.0658 13.6073 70.0903 13.5969 70.1133C13.5865 70.1364 13.5737 70.1583 13.5586 70.1789C13.5435 70.1994 13.526 70.2188 13.5061 70.2369C13.4865 70.255 13.4659 70.2707 13.4445 70.284C13.423 70.2975 13.401 70.3086 13.3783 70.3172C13.3556 70.3258 13.3319 70.3322 13.3074 70.3362C13.2832 70.3401 13.258 70.3417 13.2324 70.341C13.2047 70.3401 13.1778 70.337 13.1525 70.3317C13.127 70.3263 13.1026 70.3186 13.0794 70.3086C13.056 70.2984 13.0339 70.2859 13.0133 70.2714C12.9927 70.2569 12.9731 70.2398 12.9551 70.2207C12.9369 70.2015 12.9209 70.1811 12.9076 70.1597C12.8941 70.1385 12.8832 70.1159 12.8743 70.092C12.8657 70.0686 12.8592 70.0439 12.8554 70.0181C12.8514 69.9926 12.8499 69.9658 12.8507 69.938C12.8514 69.9113 12.8546 69.8855 12.8599 69.861C12.8655 69.8363 12.8733 69.8127 12.8833 69.7901C12.8934 69.7676 12.9057 69.7462 12.9204 69.7258C12.9352 69.7055 12.9521 69.6863 12.9712 69.6682C12.9904 69.65 13.0109 69.6343 13.0324 69.621C13.0539 69.6076 13.0766 69.5965 13.1003 69.5879C13.1241 69.5793 13.1489 69.5729 13.1747 69.5691C13.2003 69.5651 13.2272 69.5635 13.2551 69.5644C13.2808 69.5651 13.3057 69.5682 13.3298 69.5736C13.3539 69.5789 13.3771 69.5867 13.3995 69.5967C13.4217 69.6065 13.4432 69.619 13.4636 69.6335C13.4841 69.648 13.5036 69.6649 13.5224 69.6841C13.5411 69.7032 13.5574 69.7234 13.5712 69.7445C13.5851 69.7657 13.5965 69.7878 13.6056 69.811C13.6146 69.8341 13.6212 69.8581 13.6253 69.8831C13.6295 69.908 13.631 69.9339 13.6303 69.9605ZM43.2741 24.0492C43.1847 24.1069 43.0944 24.1576 43.003 24.2015C42.9115 24.2455 42.819 24.2826 42.7257 24.313C42.7002 24.3213 42.6746 24.3291 42.6489 24.3363C43.2618 25.1873 43.8457 26.091 44.434 26.9926C46.9916 25.3457 49.679 23.9111 52.4672 22.7015C55.6211 21.333 58.9088 20.2512 62.2887 19.4736C62.6735 18.674 63.0892 18.0576 63.6361 17.5998C67.4923 14.3713 67.6529 15.2669 70.6326 14.1263L70.5626 10.2024L70.5625 10.1922L70.5623 10.1821L70.5725 10.1819L70.5829 10.1817L73.7578 10.1256L73.768 10.1254L73.7782 10.1253L73.7784 10.1354L73.7786 10.1456L73.7928 10.9412L73.793 10.9514L73.7931 10.9616L73.7829 10.9617L73.7727 10.9619L71.4835 11.0025L71.502 12.0424L73.5916 12.0054L73.6018 12.0053L73.612 12.0051L73.6122 12.0153L73.6124 12.0256L73.6266 12.8212L73.6267 12.8314L73.6269 12.8416L73.6167 12.8418L73.6065 12.8419L71.5169 12.8789L71.5337 13.8211C73.1163 13.3777 74.6486 13.4312 76.4477 13.4599L76.4422 13.4411C76.413 13.3388 76.3898 13.2328 76.373 13.1234C76.3562 13.0141 76.3456 12.901 76.3411 12.7839C76.3366 12.667 76.3383 12.5464 76.3463 12.4222C76.3541 12.2971 76.3678 12.1762 76.387 12.06C76.4064 11.9436 76.4312 11.8319 76.4619 11.7249C76.4924 11.6178 76.5288 11.5153 76.5706 11.4172C76.6125 11.3193 76.6604 11.2257 76.7136 11.1368C76.767 11.0483 76.8245 10.9647 76.8862 10.8868C76.9479 10.8088 77.0139 10.7363 77.0841 10.6691C77.1543 10.6019 77.2289 10.5401 77.3075 10.4838C77.3862 10.4276 77.4691 10.3768 77.5561 10.3314C77.6434 10.2858 77.733 10.247 77.8247 10.2147C77.9164 10.1822 78.0107 10.1565 78.1076 10.137C78.2043 10.1177 78.3033 10.1047 78.4045 10.0985C78.5059 10.0921 78.6095 10.0923 78.7156 10.099C78.8147 10.1052 78.9113 10.117 79.0052 10.1341C79.0992 10.1511 79.1903 10.1736 79.2785 10.2016C79.3668 10.2295 79.4524 10.2629 79.535 10.3015C79.6177 10.3404 79.6978 10.3846 79.7747 10.4341C79.852 10.4837 79.9248 10.5375 79.9935 10.5955C80.0621 10.6536 80.1264 10.7159 80.1866 10.7822C80.2465 10.8487 80.3023 10.9193 80.354 10.9942C80.4054 11.069 80.4528 11.148 80.4956 11.2311L80.5004 11.2402L80.5051 11.2496L80.4958 11.2542L80.4866 11.2587L79.6877 11.6537L79.6784 11.6582L79.6692 11.6627L79.6647 11.6536L79.6602 11.6442C79.6359 11.5947 79.6094 11.5477 79.5806 11.5035C79.552 11.4593 79.5208 11.4175 79.4876 11.3784C79.4543 11.3393 79.4186 11.3027 79.3808 11.2687C79.343 11.2349 79.3028 11.2035 79.2605 11.1748C79.2182 11.1462 79.1738 11.1204 79.1276 11.098C79.0815 11.0755 79.0333 11.0562 78.9834 11.04C78.9331 11.0237 78.8811 11.0106 78.8272 11.0006C78.7733 10.9908 78.7175 10.984 78.6596 10.9804C78.531 10.9723 78.4099 10.9813 78.2962 11.0073C78.1826 11.0332 78.0764 11.0762 77.9778 11.1363C77.9284 11.1663 77.8814 11.1998 77.8367 11.2366C77.7921 11.2736 77.7499 11.3138 77.7103 11.3573C77.6707 11.4008 77.6332 11.4479 77.5984 11.4982C77.5635 11.5488 77.5311 11.6025 77.5013 11.6593C77.4713 11.7162 77.4445 11.7763 77.4207 11.8393C77.397 11.902 77.3764 11.9678 77.3587 12.0362C77.3412 12.1047 77.3268 12.1762 77.3153 12.2506C77.3041 12.3248 77.2959 12.4019 77.2909 12.4816C77.2859 12.5607 77.2843 12.6372 77.2862 12.7112C77.2879 12.7853 77.2933 12.8573 77.3022 12.9272C77.311 12.9968 77.3231 13.0642 77.3387 13.1289C77.3543 13.1938 77.3736 13.2567 77.3961 13.3173C77.4164 13.3722 77.4393 13.4245 77.4642 13.4742C78.18 13.498 78.8201 13.5997 79.4205 13.7517C79.4269 13.7444 79.4331 13.7371 79.4395 13.7299C79.4735 13.6902 79.5058 13.6479 79.5359 13.6028L79.5416 13.5944L79.5474 13.5859L79.5558 13.5916L79.5643 13.5971L80.089 13.9449C80.9984 14.2389 81.8428 14.632 82.7638 15.0148L82.7794 15.0213L83.5328 10.6299L83.5346 10.6197L83.5363 10.6097L83.5465 10.6114L83.5566 10.6132L86.6866 11.146L86.6968 11.1477L86.7068 11.1494L86.7051 11.1596L86.7034 11.1696L86.5689 11.954L86.5672 11.9642L86.5654 11.9742L86.5552 11.9725L86.5452 11.9707L84.2883 11.5866L84.1124 12.6116L86.1723 12.9624L86.1825 12.9642L86.1926 12.9659L86.1909 12.9759L86.1892 12.9859L86.0545 13.7705L86.0529 13.7805L86.0512 13.7905L86.0409 13.7888L86.0309 13.7872L83.971 13.4364L83.7793 14.5531L86.1084 14.9497L86.1184 14.9514L86.1285 14.9532L86.1267 14.9632L86.125 14.9732L85.9905 15.7577L85.9888 15.7677L85.9871 15.7777L85.977 15.776L85.9668 15.7743L83.5502 15.3629C85.9044 16.4687 87.9849 18.0366 89.6836 19.9492C98.8866 22.4078 107.125 27.0865 113.762 33.3813C120.233 39.5191 125.183 47.1941 128.02 55.8462C128.337 55.7271 128.671 55.6308 129.028 55.5698C130.416 55.3328 131.538 55.6064 132.541 56.1351C132.562 56.1142 132.583 56.0935 132.604 56.0729C132.679 56.0016 132.76 55.9346 132.846 55.8723C132.933 55.81 133.025 55.7521 133.122 55.6988C133.22 55.6456 133.323 55.5968 133.432 55.5526C133.54 55.5085 133.655 55.4688 133.775 55.4338C133.896 55.3982 134.014 55.3695 134.13 55.3478C134.247 55.326 134.361 55.3112 134.472 55.3032C134.583 55.2953 134.693 55.2941 134.799 55.2998C134.906 55.3055 135.011 55.3181 135.113 55.3376C135.215 55.3571 135.313 55.3823 135.408 55.4136C135.502 55.4445 135.593 55.4816 135.681 55.5242C135.768 55.5671 135.852 55.6158 135.932 55.67C136.012 55.7244 136.088 55.7846 136.161 55.8506C136.234 55.9163 136.301 55.987 136.363 56.0619C136.425 56.1368 136.482 56.2162 136.533 56.3002C136.584 56.3839 136.63 56.4723 136.671 56.565C136.712 56.6577 136.747 56.7547 136.777 56.8563C136.805 56.9512 136.827 57.0457 136.843 57.1394C136.859 57.233 136.869 57.3261 136.873 57.4183C136.877 57.5103 136.874 57.6018 136.866 57.6926C136.858 57.7834 136.844 57.8734 136.823 57.9623C136.803 58.0515 136.777 58.1382 136.746 58.2221C136.715 58.3064 136.678 58.388 136.636 58.4669C136.594 58.5457 136.546 58.6222 136.493 58.6961C136.441 58.7696 136.382 58.8409 136.318 58.9098L136.311 58.9174L136.304 58.9248L136.297 58.9179L136.289 58.9108L135.643 58.2983L135.636 58.2912L135.628 58.2841L135.635 58.2767L135.643 58.2693C135.681 58.2299 135.716 58.1888 135.748 58.1467C135.78 58.1046 135.809 58.061 135.834 58.0167C135.86 57.9721 135.882 57.9264 135.901 57.8792C135.92 57.8323 135.936 57.7839 135.949 57.7344C135.961 57.685 135.97 57.6348 135.976 57.5838C135.981 57.5329 135.983 57.4813 135.981 57.4288C135.979 57.3765 135.974 57.3233 135.965 57.2694C135.956 57.2156 135.943 57.1608 135.926 57.1054C135.908 57.0439 135.887 56.9854 135.862 56.9302C135.837 56.8749 135.808 56.8229 135.777 56.7744C135.745 56.7257 135.71 56.6802 135.671 56.638C135.633 56.5959 135.591 56.5567 135.546 56.5206C135.5 56.4845 135.453 56.4519 135.403 56.4229C135.353 56.3937 135.301 56.3682 135.246 56.3459C135.191 56.3236 135.134 56.3048 135.075 56.2894C135.016 56.2741 134.954 56.2622 134.89 56.2537C134.825 56.2452 134.76 56.2406 134.692 56.2399C134.625 56.2392 134.556 56.2423 134.485 56.2492C134.415 56.2563 134.342 56.2672 134.268 56.282C134.195 56.2967 134.119 56.3155 134.042 56.3381C134.004 56.349 133.968 56.3606 133.932 56.3727C133.896 56.3849 133.861 56.3977 133.827 56.411L133.825 56.4117H133.823H133.771C133.619 56.4749 133.483 56.5503 133.364 56.6379C134.272 57.2635 135.106 58.0579 135.995 58.7967C137.458 60.0129 139.568 62.2821 140.054 65.0765C140.487 67.5666 140.235 69.5573 139.419 71.8058C139.103 72.6779 138.728 72.9826 138.523 73.5272C139.363 73.5503 140.893 73.5252 142.664 73.5002C142.666 73.2569 142.668 72.9185 142.668 72.4843C142.668 54.2195 135.1 37.6845 122.865 25.716C110.625 13.7435 93.7118 6.33845 75.0267 6.33845C66.9168 6.33845 58.9467 7.76058 51.4723 10.4754C45.3938 12.6831 39.6391 15.7465 34.3998 19.5956C34.7327 19.5756 35.0648 19.5701 35.395 19.5799C37.0923 19.6305 38.4764 20.2111 39.673 21.1143C39.6784 21.0962 39.684 21.078 39.6897 21.0601C39.7193 20.9682 39.7555 20.8781 39.7985 20.79C39.8413 20.7018 39.8902 20.6176 39.9446 20.5371C39.9991 20.457 40.0594 20.3802 40.1258 20.3071C40.1918 20.2344 40.2637 20.1654 40.3414 20.1003C40.4159 20.0378 40.4958 19.9787 40.5811 19.9233V19.9231L40.5918 19.9164C40.6755 19.8624 40.7603 19.8145 40.8457 19.7726C40.9313 19.7308 41.018 19.6949 41.1055 19.665C41.1932 19.6352 41.282 19.6113 41.3716 19.5934C41.4612 19.5756 41.5518 19.5637 41.6433 19.5578C41.735 19.5521 41.8257 19.5521 41.9155 19.5582C42.0049 19.564 42.094 19.5759 42.182 19.5939C42.2701 19.6117 42.3573 19.6353 42.4432 19.6649C42.5294 19.6945 42.6146 19.7301 42.6987 19.7714L42.708 19.776L42.7172 19.7805L42.7126 19.7899L42.7079 19.799L42.3016 20.5898L42.2969 20.5989L42.2923 20.6081L42.2831 20.6034L42.2739 20.5987C42.2247 20.5732 42.1753 20.5513 42.1259 20.5326C42.0763 20.5141 42.0264 20.4989 41.9763 20.4872C41.926 20.4755 41.8756 20.4672 41.825 20.4623C41.7744 20.4575 41.7234 20.4561 41.6721 20.458C41.621 20.4601 41.57 20.4658 41.5196 20.4749C41.469 20.4843 41.4187 20.4972 41.369 20.5138C41.3191 20.5305 41.2693 20.5509 41.2199 20.5749C41.1704 20.5989 41.1213 20.6267 41.0729 20.6578C41.019 20.6925 40.9689 20.7298 40.9227 20.7693C40.8767 20.8089 40.8348 20.8508 40.7968 20.8948C40.7591 20.939 40.7251 20.9855 40.6953 21.0342C40.6656 21.0827 40.6398 21.1338 40.6181 21.1873C40.5963 21.2408 40.5785 21.2957 40.5646 21.3517C40.5507 21.4076 40.5408 21.4649 40.535 21.5233C40.5292 21.5817 40.5273 21.6417 40.5292 21.7029C40.531 21.7522 40.5351 21.8023 40.5421 21.8532C41.0658 22.3496 41.5548 22.9061 42.022 23.501C42.0562 23.5052 42.0907 23.5079 42.1252 23.5093C42.1829 23.5114 42.2402 23.509 42.2971 23.5019C42.3539 23.4948 42.4104 23.4831 42.4663 23.4668C42.5221 23.4506 42.5777 23.4296 42.6328 23.404C42.6845 23.38 42.7354 23.352 42.7859 23.3203L42.7966 23.3134C42.8451 23.2821 42.8906 23.2488 42.9328 23.2137C42.975 23.1787 43.0138 23.1418 43.0493 23.1031C43.0847 23.0644 43.1171 23.0238 43.146 22.9813C43.175 22.939 43.2008 22.8947 43.2235 22.8484L43.2263 22.8427C43.2476 22.7983 43.2661 22.7529 43.2817 22.7068C43.298 22.6588 43.3112 22.6096 43.3211 22.5594C43.3311 22.5093 43.3381 22.458 43.3419 22.4059C43.3455 22.3538 43.346 22.3006 43.3436 22.2465L43.3431 22.2364L43.3426 22.2263L43.3528 22.2258L43.363 22.2253L44.2537 22.1808L44.2641 22.1802L44.2745 22.1797L44.2749 22.1901L44.2752 22.2006C44.2806 22.3857 44.2632 22.5651 44.223 22.7384C44.2031 22.8249 44.1773 22.9102 44.1457 22.9941C44.1142 23.0779 44.0769 23.1602 44.0339 23.241C43.991 23.3218 43.943 23.3993 43.8897 23.4734C43.8376 23.5463 43.7802 23.616 43.7178 23.6827V23.6828L43.715 23.6858C43.6518 23.7531 43.5833 23.8172 43.5098 23.8776C43.4367 23.938 43.358 23.9952 43.2741 24.0492ZM46.9213 21.6994L44.8941 17.5196L44.8896 17.5105L44.8851 17.5013L44.8945 17.4969L44.9037 17.4925L47.7629 16.1163L47.7721 16.1118L47.7813 16.1075L47.7858 16.1167L47.7901 16.1258L48.1376 16.8423H48.1378L48.1421 16.8515L48.1466 16.8606L48.1375 16.8651L48.1281 16.8696L46.0666 17.8618L46.5209 18.7983L48.4026 17.8927L48.4118 17.8883L48.421 17.8838L48.4255 17.8931L48.43 17.9022L48.7775 18.6187L48.782 18.6279L48.7864 18.6371L48.7772 18.6415L48.768 18.646L46.8863 19.5516L47.3811 20.5718L49.5086 19.5478L49.5178 19.5435L49.527 19.539L49.5315 19.5481L49.5358 19.5575L49.8833 20.2738L49.8878 20.2829L49.8923 20.2923L49.8831 20.2968L49.8738 20.3011L46.9487 21.7091L46.9395 21.7134L46.9303 21.7179L46.9258 21.7087L46.9213 21.6994ZM53.1772 18.8769L51.7793 15.3135L50.5211 15.8033L50.5116 15.8069L50.5021 15.8107L50.4983 15.8012L50.4946 15.7916L50.2038 15.0504L50.2001 15.0409L50.1963 15.0314L50.206 15.0277L50.2154 15.0239L53.5761 13.7157L53.5858 13.7121L53.5951 13.7083L53.5989 13.718L53.6027 13.7275L53.8934 14.4687L53.8972 14.478L53.9009 14.4875L53.8913 14.4913L53.8818 14.4951L52.6297 14.9823L54.0277 18.5459L54.0314 18.5554L54.0352 18.5649L54.0257 18.5687L54.016 18.5723L53.2038 18.8884L53.1942 18.8922L53.1847 18.8959L53.1809 18.8864L53.1772 18.8769ZM59.1318 14.2905C59.1048 14.2978 59.0783 14.3024 59.0523 14.3043C59.0263 14.3064 59.0006 14.3057 58.9753 14.3024C58.95 14.2993 58.9254 14.2934 58.9011 14.285C58.8772 14.2765 58.8535 14.2653 58.8303 14.2515C58.8074 14.2378 58.7864 14.2228 58.7675 14.2064C58.7484 14.1899 58.7315 14.1719 58.7166 14.1527C58.7015 14.1334 58.6887 14.1127 58.6777 14.0906C58.667 14.0685 58.6582 14.045 58.6516 14.0203C58.6443 13.9935 58.6396 13.9671 58.6374 13.9412C58.6353 13.9155 58.6356 13.8898 58.6386 13.8649C58.6415 13.8399 58.6471 13.8154 58.6552 13.7914C58.6634 13.7675 58.6741 13.7441 58.6873 13.7213C58.7004 13.6983 58.7155 13.6772 58.7322 13.6584C58.749 13.6393 58.7675 13.6222 58.7876 13.6072C58.8079 13.5921 58.8299 13.5788 58.8535 13.5676C58.877 13.5566 58.9024 13.5474 58.9292 13.5402C58.955 13.5333 58.9805 13.5288 59.0058 13.5269C59.031 13.525 59.0559 13.5256 59.0805 13.5286C59.1051 13.5317 59.1294 13.5374 59.153 13.5455C59.1767 13.5536 59.2001 13.5643 59.223 13.5774C59.2461 13.5907 59.267 13.6056 59.2861 13.6223C59.3051 13.6389 59.3223 13.6574 59.3376 13.6776C59.3526 13.6976 59.3658 13.7195 59.3771 13.743C59.3883 13.7665 59.3975 13.7917 59.4048 13.8185C59.4114 13.8432 59.4156 13.8678 59.4175 13.8924C59.419 13.9167 59.4183 13.9411 59.4152 13.9654C59.4119 13.9896 59.4064 14.0136 59.3982 14.0372C59.3901 14.0609 59.3795 14.0845 59.3665 14.1078C59.3535 14.1312 59.3388 14.1524 59.3225 14.1717C59.3062 14.1912 59.288 14.2085 59.2686 14.2237C59.249 14.2391 59.2277 14.2524 59.2048 14.2634C59.1819 14.2746 59.1575 14.2836 59.1318 14.2905ZM64.6216 15.611L63.9829 11.0127L63.9815 11.0025L63.9801 10.9925L63.9903 10.9911L64.0004 10.9895L66.1371 10.6952C66.21 10.6852 66.2813 10.6781 66.3503 10.6743C66.4192 10.6705 66.4863 10.6696 66.5515 10.6719C66.6167 10.6741 66.6797 10.6796 66.7408 10.6881C66.8018 10.6966 66.861 10.7083 66.9182 10.723C66.9756 10.7378 67.0304 10.7566 67.0827 10.7793C67.1349 10.8019 67.1846 10.8285 67.2318 10.859C67.2789 10.8896 67.3235 10.9241 67.3652 10.9623C67.407 11.0006 67.4463 11.0429 67.4831 11.089C67.5197 11.1351 67.5533 11.186 67.5836 11.2418C67.6141 11.2976 67.6413 11.358 67.6654 11.4231C67.6895 11.4882 67.7105 11.5579 67.7283 11.6323C67.746 11.7064 67.7607 11.7856 67.7725 11.8696C67.7841 11.9533 67.7914 12.0338 67.7947 12.1102C67.7978 12.1871 67.7966 12.2599 67.7912 12.329C67.7859 12.3984 67.7762 12.4644 67.7621 12.5267C67.7483 12.5888 67.7297 12.6474 67.7072 12.7023C67.6845 12.7572 67.6583 12.809 67.6285 12.8578C67.5987 12.9065 67.5654 12.9523 67.5285 12.9949C67.4916 13.0374 67.451 13.0771 67.407 13.1135C67.363 13.1501 67.3155 13.1835 67.2644 13.2138C67.1626 13.2741 67.0498 13.3245 66.9257 13.3647C66.8018 13.405 66.6666 13.4352 66.5203 13.4552L65.2613 13.6287L65.5194 15.4873L65.5209 15.4973L65.5223 15.5075L65.5121 15.5089L65.5019 15.5103L64.6446 15.6284L64.6346 15.6298L64.6243 15.6312L64.6229 15.6211L64.6216 15.611ZM65.1453 12.7934L66.2856 12.6363C66.3341 12.6296 66.3797 12.6206 66.4224 12.6092C66.465 12.598 66.5045 12.5843 66.5411 12.5685C66.5773 12.5528 66.6108 12.5344 66.6413 12.5141C66.6718 12.4939 66.6991 12.4711 66.7238 12.4464C66.7478 12.4219 66.7683 12.3943 66.7846 12.3637C66.8011 12.3331 66.8137 12.2993 66.8226 12.2625C66.8314 12.2251 66.8364 12.1845 66.8373 12.141C66.8383 12.0971 66.8354 12.05 66.8284 11.9997C66.8215 11.9505 66.8116 11.9053 66.799 11.8642C66.7863 11.8233 66.7706 11.7863 66.7518 11.7534C66.7335 11.7207 66.7122 11.6921 66.6881 11.6674C66.664 11.6425 66.6368 11.6216 66.6069 11.6047C66.5766 11.5874 66.5439 11.5731 66.509 11.5617C66.4742 11.5503 66.4371 11.542 66.3978 11.5367C66.3582 11.5312 66.3163 11.5287 66.2724 11.5294C66.2284 11.5299 66.182 11.5336 66.1334 11.5403L64.9932 11.6974L65.1453 12.7934ZM89.4864 16.5224L90.4625 12.8223L89.156 12.4802L89.1461 12.4777L89.1363 12.4751L89.1389 12.4652L89.1415 12.4554V12.4552L89.3446 11.6855L89.3472 11.6757L89.3498 11.6658L89.3597 11.6684L89.3696 11.671L92.8592 12.5845L92.8691 12.5871L92.8791 12.5897L92.8765 12.5997L92.8739 12.6096L92.6708 13.3792L92.6682 13.3889L92.6656 13.3989L92.6557 13.3963L92.6458 13.3937L91.3458 13.0534L90.3696 16.7538L90.367 16.7634L90.3644 16.7734L90.3545 16.7708L90.3445 16.7683L89.5011 16.5474L89.4912 16.5448L89.4812 16.5423L89.4838 16.5324L89.4864 16.5226V16.5224ZM97.0705 16.238C97.0447 16.2277 97.0206 16.2154 96.9986 16.2014C96.9764 16.1874 96.9563 16.1716 96.9381 16.154C96.9199 16.1363 96.9036 16.1168 96.8896 16.0956C96.8754 16.0744 96.8631 16.0514 96.853 16.0265C96.8428 16.0017 96.835 15.9772 96.8298 15.9526C96.8246 15.9283 96.8218 15.9036 96.8214 15.8793C96.8211 15.8549 96.8234 15.8306 96.8279 15.8066C96.8325 15.7826 96.8397 15.7586 96.8494 15.7347C96.8596 15.709 96.8717 15.6852 96.8856 15.6631C96.8996 15.641 96.9152 15.6208 96.9327 15.6027C96.9502 15.5844 96.9695 15.5681 96.9903 15.5538C97.0112 15.5395 97.0339 15.527 97.0582 15.5167C97.0825 15.5065 97.1071 15.4986 97.1319 15.4934C97.1568 15.4882 97.182 15.4856 97.2073 15.4856C97.2322 15.4856 97.2577 15.4884 97.2835 15.4936C97.3092 15.4987 97.3348 15.5065 97.3606 15.5167C97.3854 15.5267 97.4087 15.5384 97.43 15.5519C97.4513 15.5655 97.471 15.5811 97.4887 15.5982C97.5066 15.6154 97.5225 15.6344 97.5366 15.655V15.6552C97.5506 15.6759 97.5629 15.6983 97.5733 15.7225C97.5835 15.7465 97.5915 15.7712 97.5967 15.7959C97.6019 15.8207 97.6045 15.8458 97.6045 15.8708C97.6045 15.8958 97.6019 15.9212 97.5965 15.9468C97.5913 15.9723 97.5835 15.9981 97.5733 16.0236C97.5638 16.0474 97.5522 16.0697 97.539 16.0902C97.5255 16.1108 97.5102 16.13 97.4931 16.1474C97.4759 16.1648 97.457 16.1807 97.4362 16.1949C97.4154 16.2089 97.3927 16.2215 97.3685 16.2323C97.3438 16.2432 97.319 16.2515 97.2944 16.2572C97.2698 16.2629 97.2449 16.266 97.2201 16.2665C97.1951 16.2669 97.1702 16.2648 97.1452 16.26C97.1204 16.2553 97.0955 16.2479 97.0705 16.238ZM100.703 20.4832L102.774 16.3247L102.779 16.3156L102.783 16.3064L102.793 16.3109L102.802 16.3154L104.734 17.2701C104.8 17.3028 104.863 17.337 104.922 17.3725C104.981 17.4081 105.037 17.4451 105.09 17.4834C105.142 17.5217 105.191 17.5616 105.237 17.603C105.283 17.6443 105.325 17.6871 105.364 17.7313C105.403 17.7757 105.438 17.822 105.468 17.8699C105.499 17.9181 105.525 17.968 105.546 18.0196C105.568 18.0713 105.585 18.1248 105.598 18.1799C105.611 18.2349 105.62 18.2919 105.624 18.3504C105.628 18.409 105.627 18.4699 105.621 18.5331C105.614 18.5961 105.603 18.6616 105.586 18.7287C105.569 18.7961 105.547 18.8655 105.52 18.9369C105.492 19.0082 105.46 19.082 105.422 19.158C105.384 19.2337 105.345 19.3043 105.304 19.3693C105.264 19.4344 105.221 19.4941 105.178 19.5483C105.134 19.6027 105.089 19.6517 105.042 19.6953C104.995 19.7388 104.947 19.7769 104.897 19.8095C104.848 19.8423 104.796 19.8705 104.744 19.8941C104.692 19.9176 104.639 19.9368 104.584 19.9513C104.53 19.9658 104.474 19.9758 104.417 19.9812C104.36 19.9867 104.302 19.9875 104.242 19.9841C104.183 19.9806 104.123 19.9732 104.063 19.9623C104.002 19.9515 103.94 19.937 103.877 19.9188C103.815 19.9007 103.751 19.8788 103.687 19.8534C103.622 19.828 103.557 19.799 103.491 19.7664L102.352 19.2037L101.515 20.8845L101.511 20.8936L101.506 20.9028L101.497 20.8981L101.488 20.8936L100.713 20.5105L100.703 20.506L100.694 20.5015L100.699 20.4924L100.703 20.4832ZM102.729 18.4482L103.76 18.9578C103.804 18.9796 103.846 18.9977 103.888 19.0122C103.93 19.0267 103.97 19.0376 104.009 19.045C104.048 19.0523 104.086 19.0561 104.123 19.0562C104.159 19.0564 104.195 19.0532 104.229 19.0464C104.263 19.0399 104.296 19.0285 104.326 19.0124C104.357 18.9963 104.387 18.9756 104.415 18.9501C104.443 18.9242 104.47 18.8934 104.496 18.8579C104.521 18.8221 104.546 18.7816 104.568 18.7361C104.59 18.6916 104.608 18.6488 104.621 18.6077C104.633 18.5668 104.641 18.5274 104.644 18.4896C104.647 18.4523 104.646 18.4166 104.64 18.3826C104.634 18.3487 104.623 18.3161 104.608 18.2854C104.593 18.2541 104.574 18.2239 104.552 18.1949C104.529 18.1659 104.503 18.1381 104.474 18.1118C104.445 18.0852 104.411 18.0599 104.375 18.0355C104.338 18.0113 104.297 17.9884 104.253 17.9666L103.222 17.457L102.729 18.4482ZM106.043 23.3536L108.585 19.4627L108.59 19.4542L108.596 19.4456L108.605 19.4513L108.613 19.4568L111.275 21.1821L111.283 21.1877L111.292 21.1932L111.286 21.2018L111.281 21.2103L110.845 21.8772L110.839 21.8859L110.834 21.8943L110.825 21.8888L110.817 21.8833L108.898 20.6393L108.328 21.5112L110.08 22.6466L110.088 22.6521L110.097 22.6576L110.091 22.6663L110.086 22.6747L109.65 23.3419L109.644 23.3503L109.639 23.3588L109.63 23.3534L109.622 23.3477L107.87 22.2123L107.25 23.1619L109.23 24.4458L109.239 24.4513L109.247 24.4568L109.242 24.4653L109.236 24.4739L108.8 25.1409L108.795 25.1494L108.789 25.158L108.781 25.1525L108.772 25.1469L106.049 23.3817L106.041 23.3762L106.032 23.3707L106.038 23.3621L106.043 23.3536ZM112.315 27.9046C112.231 27.8398 112.153 27.7716 112.081 27.7001C112.009 27.6287 111.943 27.5541 111.884 27.4762C111.824 27.3982 111.77 27.3169 111.722 27.2324C111.675 27.148 111.633 27.0601 111.598 26.9691C111.562 26.878 111.534 26.7854 111.512 26.6918C111.49 26.5981 111.475 26.503 111.466 26.4066C111.458 26.3105 111.457 26.2127 111.462 26.1136C111.468 26.0145 111.48 25.9142 111.499 25.8124C111.518 25.7105 111.544 25.6091 111.577 25.5083C111.611 25.4073 111.652 25.3068 111.699 25.2067C111.747 25.1069 111.802 25.0073 111.864 24.908C111.926 24.8089 111.996 24.7101 112.073 24.6117C112.15 24.5124 112.229 24.4201 112.311 24.3346C112.392 24.2493 112.476 24.1708 112.561 24.0995C112.647 24.028 112.735 23.9634 112.825 23.9057C112.915 23.8481 113.007 23.7975 113.101 23.7538C113.195 23.7101 113.29 23.6732 113.385 23.6433C113.48 23.6134 113.576 23.5903 113.672 23.5741C113.768 23.5578 113.864 23.5483 113.961 23.5458C114.058 23.5433 114.155 23.5477 114.253 23.5587C114.35 23.5699 114.446 23.5879 114.54 23.6124C114.635 23.6371 114.727 23.6685 114.818 23.7065C114.909 23.7446 114.998 23.7894 115.086 23.8408C115.173 23.8923 115.259 23.9505 115.343 24.0152C115.421 24.076 115.495 24.1398 115.563 24.2065C115.631 24.2731 115.693 24.3427 115.751 24.4151C115.808 24.4876 115.86 24.563 115.907 24.6414C115.953 24.72 115.994 24.8013 116.03 24.8854C116.066 24.9696 116.096 25.0549 116.12 25.1414C116.144 25.2277 116.162 25.3153 116.175 25.4037C116.187 25.4923 116.193 25.5819 116.193 25.6727C116.194 25.7633 116.188 25.8552 116.177 25.948L116.176 25.9582L116.175 25.9686L116.164 25.9672L116.154 25.9658L115.27 25.8455L115.26 25.8441L115.25 25.8427L115.251 25.8326L115.253 25.8224C115.261 25.7678 115.265 25.7139 115.267 25.6614C115.268 25.6086 115.265 25.5566 115.26 25.5057C115.255 25.4548 115.246 25.4047 115.234 25.3555C115.221 25.3063 115.206 25.2578 115.187 25.2103C115.168 25.1628 115.146 25.1167 115.12 25.0724C115.095 25.0278 115.066 24.9848 115.034 24.9436C115.001 24.9021 114.966 24.8622 114.927 24.8239C114.888 24.7854 114.845 24.7485 114.8 24.7132C114.749 24.6737 114.697 24.639 114.644 24.6088C114.591 24.5786 114.538 24.553 114.484 24.532C114.43 24.5111 114.374 24.4946 114.318 24.4827C114.262 24.4708 114.205 24.4634 114.147 24.4606C114.089 24.4579 114.032 24.4593 113.974 24.4648C113.917 24.4703 113.859 24.48 113.802 24.4938C113.744 24.5076 113.687 24.5256 113.63 24.5477C113.573 24.5698 113.515 24.5962 113.458 24.6267C113.401 24.6573 113.345 24.6918 113.29 24.7305C113.235 24.7694 113.181 24.812 113.128 24.8588C113.075 24.9056 113.022 24.9567 112.971 25.0118H112.971C112.92 25.0667 112.87 25.1259 112.82 25.1892C112.772 25.2516 112.727 25.3142 112.687 25.3767C112.647 25.4391 112.611 25.5016 112.579 25.5642C112.547 25.6267 112.519 25.6892 112.495 25.7517C112.471 25.8144 112.452 25.8769 112.436 25.9396C112.421 26.0019 112.409 26.0636 112.402 26.1245C112.395 26.1853 112.392 26.2452 112.393 26.3039C112.393 26.3626 112.398 26.4206 112.407 26.4776C112.416 26.5344 112.429 26.5905 112.446 26.6457C112.463 26.7006 112.485 26.7536 112.51 26.8048C112.536 26.8559 112.565 26.9051 112.599 26.9522C112.634 26.9995 112.672 27.0449 112.714 27.0881C112.756 27.1312 112.803 27.1727 112.854 27.212C112.9 27.2474 112.947 27.2792 112.994 27.307C113.041 27.335 113.089 27.3593 113.137 27.3799C113.185 27.4004 113.234 27.4173 113.284 27.4306C113.334 27.4439 113.385 27.4536 113.436 27.4595C113.487 27.4653 113.538 27.4679 113.589 27.4674C113.64 27.4669 113.691 27.4629 113.742 27.4557C113.793 27.4486 113.844 27.4381 113.894 27.4244C113.945 27.4106 113.995 27.3935 114.046 27.3733V27.3731L114.055 27.3693L114.065 27.3655L114.069 27.375L114.072 27.3845L114.409 28.2071L114.413 28.2165L114.417 28.2262L114.407 28.23L114.398 28.2336C114.311 28.267 114.223 28.2944 114.136 28.3158C114.048 28.3372 113.959 28.3529 113.871 28.3628C113.782 28.3724 113.693 28.3764 113.603 28.3745C113.513 28.3726 113.423 28.3649 113.332 28.3514C113.242 28.3377 113.152 28.3182 113.064 28.2927C112.977 28.2673 112.89 28.2359 112.805 28.1986C112.721 28.1615 112.637 28.1183 112.556 28.0693C112.474 28.0202 112.394 27.9653 112.315 27.9046ZM115.698 30.6209L119.052 27.3978L119.059 27.3907L119.066 27.3835L119.074 27.3909L119.081 27.3983L121.286 29.6748L121.292 29.682L121.3 29.6894L121.292 29.6965L121.285 29.7038L120.71 30.2563L120.703 30.2632L120.695 30.2703L120.688 30.263L120.681 30.2556L119.091 28.6143L118.34 29.3366L119.791 30.8347L119.798 30.8419L119.805 30.8493L119.798 30.8564L119.79 30.8635L119.215 31.4161L119.208 31.4232L119.201 31.4301L119.194 31.4229L119.186 31.4155L117.735 29.9174L116.917 30.704L118.558 32.3979L118.565 32.4051L118.572 32.4125L118.564 32.4196L118.557 32.4267L117.982 32.9792L117.975 32.9863L117.967 32.9933L117.96 32.9861L117.953 32.9787L115.698 30.6497L115.69 30.6423L115.683 30.6351L115.691 30.628L115.698 30.6209ZM120.389 35.6192L123.379 33.2174L122.531 32.17L122.524 32.162L122.518 32.1541L122.526 32.1477L122.534 32.1413L123.156 31.6416L123.164 31.6353L123.172 31.6289L123.178 31.6368L123.184 31.6447L125.45 34.4426L125.456 34.4505L125.462 34.4585L125.454 34.4649L125.446 34.4713L124.825 34.9709L124.817 34.9773L124.809 34.9837L124.802 34.9757L124.796 34.9678L123.952 33.9255L120.962 36.3273L120.954 36.3337L120.946 36.3401L120.94 36.3321L120.934 36.3242L120.386 35.6479L120.38 35.6399L120.373 35.632L120.381 35.6256L120.389 35.6192ZM126.663 39.8085C126.648 39.7852 126.636 39.7615 126.626 39.7373C126.616 39.7132 126.608 39.6887 126.604 39.664L126.604 39.6629V39.6628C126.599 39.6383 126.597 39.6134 126.598 39.5882C126.598 39.5628 126.602 39.5369 126.608 39.5108C126.614 39.4849 126.622 39.4604 126.632 39.4373C126.641 39.4143 126.653 39.3926 126.667 39.3725C126.681 39.3525 126.697 39.3339 126.715 39.3168C126.732 39.2999 126.752 39.2841 126.774 39.2703C126.797 39.2551 126.821 39.2425 126.845 39.2325C126.869 39.2225 126.894 39.2149 126.918 39.2101C126.943 39.2052 126.968 39.203 126.993 39.2033C127.019 39.2035 127.045 39.2064 127.07 39.212C127.096 39.2175 127.121 39.2253 127.144 39.2353C127.168 39.2451 127.19 39.2576 127.21 39.2721C127.231 39.2866 127.25 39.3033 127.268 39.3223C127.286 39.3411 127.303 39.3622 127.318 39.3855C127.332 39.4079 127.344 39.4309 127.354 39.4542C127.364 39.4777 127.371 39.5015 127.375 39.5255C127.38 39.5497 127.382 39.5744 127.381 39.5994C127.381 39.6244 127.378 39.65 127.373 39.6757C127.367 39.7014 127.359 39.726 127.349 39.7491C127.339 39.7722 127.327 39.7943 127.312 39.8149C127.298 39.8354 127.281 39.8546 127.262 39.8725C127.243 39.8903 127.222 39.9067 127.198 39.9219C127.177 39.9359 127.154 39.9475 127.132 39.9566C127.109 39.9659 127.085 39.9727 127.061 39.9772C127.037 39.9815 127.012 39.9836 126.987 39.9832C126.962 39.9827 126.936 39.9799 126.91 39.9749C126.884 39.9697 126.859 39.9625 126.836 39.953C126.812 39.9433 126.79 39.9316 126.769 39.9178C126.749 39.904 126.73 39.8879 126.712 39.8696C126.694 39.8515 126.678 39.8311 126.663 39.8085ZM127.061 45.4311L131.207 43.3111L131.216 43.3064L131.225 43.3018L131.23 43.3109L131.234 43.3201L132.219 45.2315C132.253 45.297 132.283 45.3615 132.31 45.4252C132.336 45.4888 132.359 45.5516 132.378 45.6134C132.398 45.6754 132.413 45.7365 132.426 45.7971C132.438 45.8574 132.446 45.9168 132.451 45.9751C132.456 46.034 132.456 46.0917 132.452 46.1483C132.448 46.2048 132.439 46.2604 132.426 46.3149C132.413 46.3693 132.394 46.4226 132.372 46.4744C132.35 46.5262 132.323 46.5772 132.291 46.6271C132.259 46.6768 132.222 46.7251 132.18 46.7721C132.137 46.8191 132.089 46.8648 132.035 46.909C131.981 46.9531 131.922 46.9959 131.857 47.0371C131.793 47.0784 131.723 47.1184 131.647 47.1571C131.571 47.1958 131.498 47.2293 131.426 47.2576C131.355 47.2859 131.285 47.3091 131.218 47.3268C131.15 47.3446 131.085 47.3572 131.021 47.3647C130.957 47.3721 130.896 47.3742 130.837 47.371C130.777 47.3679 130.719 47.3603 130.663 47.3484C130.607 47.3367 130.553 47.3203 130.5 47.2997C130.448 47.279 130.397 47.2542 130.348 47.2248C130.298 47.1955 130.251 47.1616 130.205 47.1236C130.16 47.086 130.116 47.0446 130.074 46.9997C130.031 46.955 129.99 46.9068 129.951 46.8552C129.911 46.8035 129.873 46.7483 129.836 46.6898C129.8 46.6314 129.765 46.5694 129.731 46.5038L129.15 45.3776L127.475 46.2343L127.466 46.239L127.457 46.2436L127.452 46.2346L127.447 46.2255L127.052 45.4586L127.047 45.4494L127.043 45.4404L127.052 45.4358L127.061 45.4311ZM129.904 44.9924L130.429 46.0126C130.452 46.0559 130.475 46.096 130.5 46.1323C130.525 46.1685 130.551 46.2013 130.578 46.2303C130.605 46.2593 130.633 46.2847 130.663 46.3066C130.692 46.3286 130.722 46.3469 130.754 46.3617C130.785 46.3764 130.818 46.3864 130.852 46.3918C130.887 46.3971 130.923 46.398 130.961 46.394C130.999 46.39 131.039 46.3812 131.081 46.3678C131.123 46.3541 131.167 46.3356 131.212 46.3127C131.256 46.2901 131.296 46.2659 131.33 46.2402C131.365 46.2148 131.395 46.1878 131.42 46.1592C131.445 46.1312 131.465 46.1017 131.48 46.0708C131.496 46.0399 131.507 46.0074 131.513 45.9738C131.519 45.9394 131.522 45.904 131.521 45.8676C131.52 45.831 131.516 45.7932 131.508 45.7545C131.501 45.7158 131.489 45.6758 131.474 45.6345V45.6343C131.459 45.5932 131.44 45.5508 131.417 45.5073L130.892 44.487L129.904 44.9924ZM129.704 50.8726L134.027 49.1387L134.036 49.1349L134.046 49.1311L134.05 49.1406L134.053 49.1501L135.24 52.0843L135.243 52.0936L135.247 52.1031L135.238 52.1069L135.228 52.1109L134.487 52.408L134.478 52.4118L134.468 52.4156L134.464 52.4063L134.46 52.3968V52.3966L133.605 50.2811L132.637 50.6698L133.417 52.6007L133.421 52.6102L133.425 52.6197L133.416 52.6235L133.406 52.6273L132.665 52.9246L132.656 52.9284L132.646 52.9322L132.642 52.9227L132.638 52.9132L131.858 50.9823L130.803 51.4054L131.685 53.5886L131.689 53.5981L131.693 53.6076L131.683 53.6114L131.674 53.6152L130.933 53.9125L130.923 53.9163L130.914 53.9201L130.91 53.9106L130.906 53.9013V53.9011L129.693 50.8992L129.689 50.8897L129.685 50.8804L129.695 50.8764L129.704 50.8726ZM127.348 106.095L127.534 106.227L128.269 105.099L128.274 105.09L128.28 105.082L128.289 105.087L128.297 105.093L128.967 105.526L128.976 105.532L128.984 105.537L128.979 105.546L128.973 105.554L127.009 108.569L127.003 108.578L126.998 108.586L126.989 108.581L126.98 108.575V108.575L126.389 108.193C126.249 108.514 126.142 108.767 126.082 108.909C125.262 110.87 124.479 112.647 123.656 114.629C122.909 116.425 121.933 118.547 121.029 120.153C120.715 120.711 120.422 121.252 120.13 121.782C121.558 120.532 122.931 119.225 124.244 117.863C127.233 114.763 129.917 111.377 132.254 107.751C131.512 106 130.251 104.294 128.843 103.551C128.495 103.834 127.901 104.946 127.348 106.095ZM126.679 107.539L127.036 106.99L126.954 106.932C126.858 107.141 126.765 107.346 126.679 107.539ZM144.611 97.3317C144.158 98.546 143.673 99.7473 143.155 100.935C142.432 102.593 141.151 105.193 140.31 106.783L140.31 106.783C140.753 109.003 140.857 111.391 140.216 113.583C139.342 116.57 137.747 118.104 136.003 119.718C133.196 122.316 131.011 121.435 131.258 124.978C131.424 127.356 129.022 127.359 128.545 127.179C127.95 126.954 127.072 125.507 126.805 124.317C121.559 129.336 115.607 133.538 109.165 136.811C98.7647 142.096 87.0838 144.968 75.0267 144.968C54.5792 144.968 36.0633 136.857 22.6568 123.744C9.24465 110.624 0.949219 92.5014 0.949219 72.4843C0.949219 52.4671 9.24465 34.344 22.6568 21.225C36.0633 8.11107 54.5792 0 75.0267 0C95.4739 0 113.99 8.11107 127.396 21.225C140.808 34.344 149.104 52.4671 149.104 72.4843C149.104 72.5781 149.1 72.9116 149.092 73.4873C151.032 73.5315 152.616 73.6461 153.202 73.8997C154.771 74.5793 154.665 78.9764 153.893 79.7812C153.074 80.6353 150.244 82.5528 149.905 83.1995C151.135 83.2537 151.865 83.5101 152.087 84.5393C152.981 84.4832 153.547 84.3102 154.046 84.9017L155.156 86.0989C155.757 87.5768 152.279 90.4489 151.289 91.2315L148.891 93.3631C148.482 93.7063 147.967 94.0584 147.583 94.3818C146.713 95.1154 145.639 96.6216 144.611 97.3317ZM139.181 103.02C139.765 101.886 140.06 101.203 140.651 99.8476C140.926 99.2171 141.192 98.5828 141.448 97.945C140.873 97.9641 140.265 97.9719 139.664 97.9807C139.411 98.5942 139.169 99.1606 138.938 99.6801C138.697 100.222 138.457 100.746 138.216 101.253C138.569 101.78 138.893 102.362 139.181 103.02ZM47.6877 117.572C48.9467 118.302 50.2289 118.979 51.5309 119.599C51.7203 119.69 51.9105 119.779 52.1016 119.867C52.0444 113.586 52.1236 104.221 51.8287 101.633C51.3259 102.459 50.7778 105.192 50.5005 106.359C50.2877 107.256 50.1284 107.989 49.9622 108.934L47.6877 117.572ZM61.3583 21.7989C58.5942 22.5119 55.8949 23.4397 53.2856 24.5718C50.6055 25.7346 48.0238 27.1119 45.5671 28.6919C46.8902 30.6033 48.333 32.3393 50.2391 33.3312C53.3636 34.9569 59.1053 36.55 59.7813 31.5631C59.8776 30.8521 60.0362 30.7079 60.1045 30.0841C60.4584 26.8519 60.4319 24.6205 61.3583 21.7989ZM126.171 56.7844C123.46 48.3357 118.656 40.8411 112.35 34.8601C106.574 29.382 99.5388 25.1747 91.6969 22.6671C93.3275 25.3338 94.323 28.4341 94.4889 31.7578C94.6605 35.1983 93.5837 40.5544 91.8096 43.341C91.2868 44.1623 90.8651 44.8995 90.296 45.4437C88.4407 47.217 86.8178 48.7619 84.6343 50.3771C83.5403 51.1862 83.6566 51.1468 83.5918 52.8923C83.4843 55.7943 84.1407 59.1146 85.9604 61.1852C87.6943 63.1578 92.2782 65.122 95.2711 66.0661C98.6467 67.1309 102.607 68.7871 105.243 70.346C107.539 71.7038 108.289 73.4481 109.163 73.5401C110.043 73.6325 115.654 73.6228 116.215 73.4659C116.606 73.2367 117.183 71.6482 119.473 70.5112C121.14 69.6832 122.25 69.4161 124.442 69.461C127.052 69.5143 133.384 69.5832 133.227 65.9192C133.188 65.0112 132.63 64.3304 132.11 63.9542C130.78 62.9922 128.419 64.2852 126.789 64.1239C125.338 63.9804 125.483 63.7848 124.67 63.2532C124.177 62.9304 115.579 62.6952 114.864 62.8183C114.394 62.8995 114.049 62.9751 113.518 63.0148C113.895 62.0892 116.918 61.7087 117.837 61.6875C118.415 61.6743 118.983 61.6887 119.562 61.6522C119.03 59.8511 115.075 59.7261 113.453 60.1543C113.143 60.2359 113.627 60.1859 113.195 60.1722L113.02 60.1165C113.431 59.5182 114.681 59.0869 115.637 59.0434C118.633 58.9069 121.713 62.3416 123.886 60.7499C124.192 58.256 123.388 58.275 125.491 57.1639C125.719 57.0433 125.945 56.9146 126.171 56.7844ZM132.953 110.4C130.796 113.555 128.376 116.524 125.72 119.278C122.783 122.324 119.559 125.106 116.087 127.583C114.753 129.047 114.044 129.239 111.718 131.114C111.11 131.604 110.078 132.253 109.289 132.676C108.378 133.165 107.809 133.248 107.103 133.022C102.289 135.464 97.2173 137.339 91.9931 138.622C86.4595 139.981 80.762 140.676 75.0267 140.676C70.8256 140.676 66.7111 140.312 62.7147 139.615C62.6826 139.61 62.6511 139.605 62.6199 139.598C48.3519 137.089 35.5898 130.33 25.7523 120.707C13.135 108.365 5.33092 91.316 5.33092 72.4843C5.33092 68.0882 5.7663 63.7104 6.62475 59.4112C7.48199 55.1189 8.76403 50.9016 10.4589 46.8199L10.5499 46.8572C10.3991 45.9183 10.331 44.8565 10.657 43.5982C10.9115 42.6158 11.1077 41.766 11.3567 40.9861C6.45282 50.4477 3.68819 61.1498 3.68819 72.4843C3.68819 91.7455 11.6689 109.183 24.5718 121.804C37.4804 134.43 55.3185 142.24 75.0267 142.24C86.6479 142.24 97.9042 139.473 107.924 134.381C117.637 129.446 126.187 122.33 132.781 113.438C133.003 112.508 133.075 111.5 132.953 110.4ZM136.771 99.5028C136.861 99.3051 136.95 99.1064 137.061 98.8569C137.184 98.5786 137.302 98.3091 137.415 98.0486C136.563 98.103 135.885 98.2048 135.576 98.4117C135.992 98.7627 136.392 99.1213 136.771 99.5028ZM29.5477 20.814C35.8714 15.4856 43.0694 11.3554 50.7742 8.55704C58.4798 5.75833 66.6863 4.29215 75.0267 4.29215C94.266 4.29215 111.687 11.9234 124.301 24.2612C136.918 36.6032 144.722 53.6527 144.722 72.4843C144.722 72.7062 144.719 73.0365 144.711 73.4747C145.259 73.4691 145.814 73.4653 146.363 73.4641C146.364 73.3795 146.365 73.052 146.365 72.4843C146.365 53.2229 138.384 35.7858 125.481 23.1647C112.573 10.5381 94.7347 2.72843 75.0267 2.72843C55.3185 2.72843 37.4804 10.5381 24.5718 23.1647C20.1227 27.5166 16.2587 32.4414 13.1057 37.8161C14.6578 35.9521 16.8026 34.4771 19.0033 33.4951L20.1749 32.9144C20.2718 30.5988 20.8344 29.0322 21.8183 27.3714C23.3751 24.7438 26.2811 22.2522 29.5538 20.8209L29.5477 20.814ZM32.1671 123.662C34.4308 125.477 36.8171 127.152 39.3122 128.671C40.029 128.044 40.7327 127.411 41.4399 126.731C44.1001 124.17 44.4794 120.002 45.2201 115.44C45.925 111.097 46.8847 106.786 47.4315 102.435C47.7834 99.6361 47.4499 97.8685 45.6935 96.7873C44.7101 96.1818 41.0189 95.2416 39.6647 95.3348C38.7782 96.4883 38.338 99.3742 37.9 101.049C36.8136 105.201 35.3917 109.101 35.1087 113.493C34.9622 115.764 34.5629 117.814 33.8185 119.802C33.343 121.071 32.751 122.388 32.1671 123.662ZM55.3049 135.774C55.5521 135.848 55.7999 135.92 56.0483 135.991L56.1563 133.594C55.9112 133.119 56.1032 130.798 56.1039 129.604C56.1046 128.703 56.274 127.909 55.8436 127.628C55.4243 127.818 55.6684 127.34 55.5042 128.176C55.1841 129.806 55.2796 133.042 55.2755 134.843C55.2748 135.148 55.2949 135.467 55.3049 135.774ZM58.1507 136.555C59.1112 136.797 60.0806 137.017 61.0571 137.217L61.0503 129.217C61.0538 127.366 61.1371 127.023 60.2357 125.894C58.8606 125.759 58.4833 127.078 58.2242 128.22C57.7607 130.262 58.2384 134.179 58.1507 136.555ZM64.868 137.889C68.1814 138.377 71.5736 138.63 75.0267 138.63C79.8583 138.63 84.6527 138.126 89.3307 137.136C89.0423 136.277 89.1697 135.136 89.1703 134.064C89.1722 131.142 89.1671 132.397 89.1699 129.475C89.1721 126.83 89.6063 124.013 86.2949 123.548C81.6126 122.889 80.1178 124.025 80.08 120.968C80.0566 119.083 80.0266 104.038 80.2035 103.59C81.6955 103.04 81.4052 104.787 81.5319 105.956C81.9125 109.471 81.6417 113.303 82.4104 116.669C83.0072 119.282 83.737 120.181 86.5337 120.347C88.2345 120.448 90.9877 118.785 91.9522 117.996C94.8836 115.599 96.6318 113.202 97.4364 107.965C97.7742 105.767 98.029 103.248 98.1692 100.983C98.2449 99.7601 98.2219 98.3552 98.2243 97.1157C98.2271 95.628 98.0118 94.9061 97.2799 94.1637C96.5743 93.8503 87.279 97.3277 81.835 92.2419C80.7356 91.2148 79.4883 90.2447 79.0577 88.6739C78.3579 86.1198 81.9281 87.1315 83.254 87.2598C88.1584 87.7348 93.2192 87.8332 98.0631 86.8375C99.2474 86.5941 99.4453 86.2636 100.54 86.64C100.772 88.2595 100.558 89.5577 100.499 91.1832C100.446 92.634 100.486 94.3716 100.537 95.8322C100.69 100.239 102.784 99.253 104.965 97.445C105.927 96.647 106.03 95.5408 106.068 93.8949C106.104 92.3486 106.109 90.7992 106.11 89.2522C106.111 87.7048 106.111 86.1578 106.121 84.611C106.138 82.243 105.851 82.5555 104.455 81.5709C103.497 80.8956 102.95 80.0496 102.807 78.4395C102.631 76.4624 102.599 76.6515 100.666 75.9253C98.1763 74.99 94.8704 74.897 92.2101 75.0266C85.3764 75.3597 80.3606 77.3951 75.46 77.0508C75.1695 76.5905 74.401 76.1489 74.7154 75.3008C75.1584 74.1057 77.7258 74.1407 78.757 73.9004C79.4931 73.7288 80.124 73.4372 80.8386 73.2642C83.7486 72.5603 86.3567 71.5068 87.4202 69.1166C88.921 65.7434 82.191 65.7096 80.6329 57.233L80.4138 55.5484C80.3647 55.3471 80.3668 55.3954 80.2976 55.2287C80.2857 55.2002 80.2488 55.1834 80.2394 55.1227C80.2299 55.0607 80.202 55.0488 80.1768 55.0163C79.5825 55.2055 78.6657 56.1978 78.2362 56.6361C77.6453 57.2396 77.0798 57.6396 76.4557 58.2164C75.83 58.7947 75.4187 59.281 74.7526 59.8637C74.1618 60.3806 73.4897 60.7876 72.8038 61.2841C68.424 64.4553 65.7748 64.726 70.1548 67.9099C71.203 68.6718 73.7891 71.1062 70.0311 70.7721C64.3146 70.2642 57.6494 68.0342 51.95 69.1457C49.974 69.5313 48.5583 70.3458 47.226 71.2578C45.8564 72.1951 45.2156 73.404 44.6321 75.3773C43.5566 79.0135 42.2565 89.4266 44.9979 92.8325C45.4839 93.4365 46.0623 93.8869 46.7998 94.4002C47.6071 94.9622 48.1082 95.0265 49.1507 95.4234C50.3364 95.8747 50.4081 95.8992 51.0336 94.7835C51.7496 93.5062 51.9928 90.5501 52.0212 88.9898C52.1046 84.4445 52.9502 86.4941 57.8728 87.3544C61.8273 88.0454 66.01 88.1238 69.9631 87.4473C71.0164 87.2671 75.0722 86.0759 74.4216 88.4038C74.2736 88.9332 73.4536 90.2108 73.2051 90.5587C70.632 94.1584 66.5945 95.2238 63.7851 95.2542C59.6627 95.2989 57.0546 93.115 56.3178 93.441C54.9992 94.1468 55.6523 98.2504 55.7537 99.8252C56.1906 106.608 57.192 114.112 61.5403 119.16C62.3854 120.141 62.1765 120.113 63.7264 120.593C64.9819 120.983 65.5494 120.874 66.8583 120.621C67.9377 120.413 68.6043 119.833 69.1045 119.221C72.1643 115.476 70.2713 109.056 71.5573 107.314L72.3849 107.454C72.7406 108.318 72.51 116.318 72.5073 118.001C72.4986 123.02 73.3699 123.69 68.14 124.154C67.0217 124.254 66.9238 124.281 66.3265 124.826C64.5644 126.432 64.8734 129.066 64.8734 131.409C64.8734 134.775 64.8634 134.754 64.868 137.889ZM92.9838 136.259C93.991 135.988 94.9921 135.694 95.9859 135.377C95.9578 134.546 96.0426 133.521 96.0426 132.569C96.0426 130.094 96.7162 125.686 93.957 125.834C92.3751 126.577 93.3611 133.087 92.9838 136.259ZM97.9836 134.706C98.1293 134.655 98.2747 134.603 98.4202 134.551C98.2706 132.479 98.4267 129.092 98.43 127.624C98.1196 127.791 98.2481 127.67 98.1513 128.051C97.9614 128.8 97.9707 131.532 97.9401 132.311C97.8943 133.478 97.9248 134.231 97.9836 134.706ZM99.3303 134.215C101.174 133.521 102.989 132.747 104.77 131.894C102.552 130.712 102.092 130.175 100.017 127.773C99.6753 127.377 99.9033 127.533 99.462 127.324C99.4438 127.36 99.4285 127.406 99.4195 127.438C99.4105 127.469 99.3908 127.513 99.381 127.553L99.315 133.668C99.315 133.854 99.3218 134.038 99.3303 134.215ZM77.7729 33.5572C77.8452 32.8027 77.0701 32.6719 76.374 32.7969C76.4472 33.3594 77.1025 33.6883 77.7729 33.5572ZM73.2205 36.013C73.8774 35.0227 74.0406 33.9861 76.0414 34.1453C76.6968 34.1974 77.2885 34.7901 78.3698 34.8045C80.2323 34.8292 80.7082 32.0591 77.1042 31.2081C75.1242 30.7406 72.5383 30.8766 70.9011 31.9257C69.8589 32.5933 70.0411 33.713 70.7989 34.5203C71.4086 35.17 71.878 36.0084 73.2205 36.013ZM79.6591 30.2173C80.6008 30.1504 80.3869 29.9426 80.824 29.3795C83.0352 28.9672 84.344 31.2331 85.4056 32.1011C86.4845 32.9831 87.249 31.5788 84.4878 28.2321C82.335 25.6228 79.8845 23.587 76.0173 21.991C74.7225 21.4567 71.1569 20.9577 69.5238 21.2868C67.7342 21.6473 67.6701 22.8099 68.4022 22.9829C69.4562 23.2319 68.5253 22.5418 71.6006 23.5534C73.2132 24.0838 76.6808 26.6858 77.9192 28.2045C78.3676 28.7542 79.1601 29.879 79.6591 30.2173ZM114.079 92.9867C114.7 93.1554 115.932 94.7887 116.841 95.6627C118.139 96.9103 119.305 97.5479 119.957 98.1477C119.613 98.9887 117.962 100.398 117.228 101.015C116.584 101.556 114.803 103.279 114.216 103.537C114.152 102.148 113.836 93.7065 114.079 92.9867ZM114.311 88.0485C114.789 88.2111 115.993 89.0174 116.376 89.299C119.148 91.3386 120.528 91.5451 123.962 91.5737C123.735 92.3381 122.281 95.296 121.854 95.744C121.044 95.557 118.099 93.0641 117.535 92.5223C116.914 91.9244 114.553 89.212 114.311 88.0485ZM145.284 94.1668C145.308 93.3653 145.714 93.4037 147.217 92.4679C148.97 91.3773 152.585 89.1478 153.69 87.7047L153.816 87.7911C153.974 88.0145 150.341 91.0442 149.973 91.3479C149.098 92.0693 146.733 94.1642 145.284 94.1668ZM153.425 85.9038C153.181 86.2879 151.063 87.8905 150.438 88.3242C149.29 89.1202 148.349 89.6889 147.096 90.4237C146.37 90.85 146.029 91.0335 145.439 91.4743C144.957 91.8349 144.418 92.2559 143.858 92.6062C143.524 92.8155 139.84 94.4819 140.337 92.9682C140.645 92.0313 142.305 91.0547 143.373 90.5649C144.275 90.1512 147.052 88.7099 147.663 88.1407C148.028 87.7995 147.875 87.731 148.335 87.3959C149.074 86.8584 150.966 85.8819 151.904 85.5222C152.337 85.3561 154.03 84.9508 153.425 85.9038ZM100.315 122.9L100.316 102.273C100.312 101.189 100.311 101.356 101.108 100.939C101.625 100.669 102.016 100.488 102.634 100.271C103.875 99.8355 104.909 99.5748 106.345 99.579C106.994 100.355 106.868 100.323 106.898 101.633C106.916 102.428 106.992 103.163 107.014 103.947C107.059 105.499 107.257 110.146 106.813 111.531C106.49 112.539 106.387 112.475 105.912 113.21C105.479 113.879 104.05 115.862 104.379 116.714C105.434 117.164 105.629 115.915 106.627 114.305C107.268 113.272 107.995 112.314 108.749 111.391C112.557 106.732 114.186 105.123 118.749 101.242C120.133 100.065 122.234 97.5845 123.304 95.7241C124.353 93.899 124.394 93.2716 125.87 90.9263C126.227 90.3586 126.473 89.7957 126.801 89.28C128.333 86.8717 131.499 87.4815 134.558 87.9396C136.12 88.1735 137.688 88.2142 139.327 88.23C143.953 88.2745 148.059 84.6163 151.082 84.9164L147.243 87.2158C145.997 88.0411 144.757 88.9252 143.238 89.5359C138.494 91.443 135.735 89.6146 133.335 92.3084C131.401 94.4791 126.038 105.31 124.533 108.686C123.349 111.344 121.813 114.809 120.169 116.839C117.957 119.571 116.602 121.09 113.868 123.197C112.75 124.059 111.574 125.214 110.472 126.131C109.459 126.974 108.297 128.559 106.852 128.859C104.979 129.247 103.621 127.846 102.56 127.036C101.103 125.923 100.337 125.623 100.307 124.587C100.29 124.049 100.315 123.447 100.315 122.9ZM106.516 81.074C108.737 80.8906 119.496 81.0507 122.63 81.049C124.749 81.0479 128.226 80.7988 129.771 81.8818C132.278 83.6386 131.13 84.8888 128.964 86.1531C127.23 87.1661 125.566 88.1058 123.163 88.357C118.442 88.8508 116.866 87.9332 113.61 85.9939C110.512 84.1491 109.367 83.3504 106.516 81.074ZM104.379 76.8552C105.935 75.8939 108.014 76.2074 110.205 76.2122L149.034 76.1808C150.229 76.1803 151.087 75.975 151.839 76.6608C152.581 77.3381 152.14 78.3124 151.813 78.738C150.397 80.5833 141.428 79.8968 140.751 79.8972L107.875 79.8975C106.882 79.8951 105.792 79.9697 104.989 79.6232C104.363 79.3532 104.429 79.295 104.36 78.5448C104.305 77.9415 104.295 77.4555 104.379 76.8552ZM26.2038 74.0629C26.4281 74.5822 26.7189 78.7632 27.5994 81.1726C27.976 82.2026 28.2433 83.3497 28.644 84.3898C29.0407 85.4198 29.4475 86.3477 29.9487 87.3346C31.1653 89.7294 33.2843 93.0874 35.0716 94.9881C35.4543 95.3952 35.8591 95.5984 36.1773 96.0769C36.5054 96.5701 36.6254 97.3707 36.065 97.6786C34.8015 98.3728 31.9307 94.8191 31.4104 93.9921C30.2791 92.1936 29.2135 90.8298 28.2868 88.5846C27.4705 86.6072 26.7449 84.3366 26.4404 81.9345C26.2576 80.4901 25.5357 75.0684 26.2038 74.0629ZM40.7951 81.098C36.6077 78.3797 33.3642 69.7472 36.5231 64.9806C38.173 62.4913 41.9335 61.938 44.9536 61.7059L55.3313 60.4742C59.0072 59.7529 62.0864 58.4013 65.5798 57.181C66.0773 57.0073 66.5134 56.7855 66.9929 56.6624C66.9856 58.9331 66.7038 60.0878 65.7112 61.6947C65.0498 62.7658 63.0411 63.3358 61.6665 63.9717C58.9469 65.2301 55.0457 66.3444 52.1412 67.1367C49.9868 67.7243 49.3119 67.8115 47.7097 69.0319C45.964 70.3619 45.9162 70.1701 44.4957 72.1511C43.6981 73.2635 42.7829 74.821 42.1434 76.1161C41.34 77.743 41.3664 79.4571 40.7951 81.098ZM129.561 56.5066C131.213 56.1016 132.353 56.7446 133.604 57.8235C136.504 60.3256 140.568 62.77 137.973 68.4406C137.37 69.7583 136.686 70.9793 135.808 71.8243C135.394 72.2227 134.744 72.7158 134.181 73.0384C133.165 73.6207 133.314 73.5454 131.949 73.5391C128.299 73.5216 124.434 73.672 120.814 73.522C121.228 72.6098 124.097 71.0661 125.687 70.7457C127.77 70.326 130.168 70.2158 131.916 69.3586C138.057 66.3479 134.372 59.8026 133.114 59.8818C132.676 59.9095 130.744 61.5535 126.959 60.8587C126.314 60.7403 125.443 60.6697 125.134 60.0367C126.109 59.7363 127.244 59.6168 127.437 59.085C127.25 58.9392 127.432 59.0225 127.138 58.9526C126.792 58.8704 125.63 59.0493 125.15 58.4405C127.501 57.3647 129.92 58.1177 130.767 57.5379C130.792 56.6879 130.527 56.9214 129.772 56.619L129.561 56.5066ZM44.451 49.9838C49.1438 49.8472 53.7286 50.4451 58.1734 50.3364C59.384 50.3067 61.7408 50.0993 62.8163 50.3377C62.9253 51.4612 61.9777 51.6171 61.0969 51.922C47.5678 56.6028 34.2765 50.8462 26.4588 66.9378C24.3831 71.2103 24.0082 72.7069 23.6349 77.3901C23.0499 84.7247 25.756 91.7048 29.3021 97.774C30.0822 99.1092 31.1088 100.571 31.9925 101.666C33.4068 103.419 34.6454 104.236 34.5495 105.556C33.4765 105.725 32.7051 104.839 32.035 104.328C25.947 99.6867 27.5079 101.281 22.419 95.0788C18.7802 90.644 16.612 85.0302 15.961 78.9557C15.5918 75.5102 16.726 69.7036 17.772 66.5564C21.6145 54.9749 32.8129 50.3229 44.451 49.9838ZM13.4511 59.1351C13.1244 57.6895 16.0253 53.0208 16.7082 52.0738C18.4013 49.7252 19.5964 48.6288 22.0436 46.9496C25.0256 44.9033 30.9459 43.8827 34.8811 43.968C35.6085 43.9837 38.8402 44.3943 39.3408 44.6462C38.9489 45.0356 35.7832 45.0858 34.8882 45.1903C28.6021 45.9228 21.5648 48.3001 17.4449 52.9391C15.7856 54.8076 15.5445 55.4098 14.477 57.5845C14.3425 57.8585 14.1824 58.1567 14.0434 58.4378C13.7562 59.0184 13.769 58.982 13.4511 59.1351ZM11.55 51.8987L12.0583 50.6656C12.0694 50.6352 12.081 50.6007 12.0916 50.57C12.2748 50.0334 12.3578 49.5546 12.7419 49.1L12.8766 48.89C13.3964 47.6846 14.2442 46.7992 14.8791 45.9981C15.3375 45.4202 15.4928 45.3052 16.0341 44.8325C16.6756 44.2723 16.3437 44.4069 17.402 43.7976C19.2128 41.9518 23.7442 40.3195 27.086 39.6167C33.8549 38.1928 39.3822 39.0901 45.784 40.8969C46.6883 41.233 47.4593 41.5359 48.2924 41.8684C49.1249 42.2008 50.1015 42.4287 50.9416 42.7401C52.5529 43.3377 54.3037 44.0637 56.0095 44.5898C56.522 44.7479 56.8664 44.8569 57.3912 45.0071C58.1437 45.2224 61.0723 45.932 61.467 46.1932L60.6051 46.4558C57.8299 46.8343 53.3774 45.7452 50.7029 45.1188C45.1815 43.8254 38.7482 42.2503 32.9616 42.6535C26.6285 43.0946 19.4605 45.23 15.3403 49.4251C14.4548 50.4652 12.9206 51.7737 11.2196 53.4773L11.55 51.8987ZM65.4963 42.5178C64.8011 42.6339 64.6668 42.2562 64.4155 41.7849C63.7343 40.5079 63.0912 38.2549 64.1262 37.2864C65.5686 35.9362 66.3357 41.1143 65.4963 42.5178ZM12.0443 46.3726C10.4031 39.6585 16.5695 35.0469 21.5457 33.6986C26.2357 32.4281 31.2528 33.2834 35.5588 35.4485L39.1916 37.4742C38.2508 37.3572 36.4228 36.6513 35.2847 36.3717C31.0608 35.3337 26.3995 35.5747 22.5393 37.1227C19.851 38.2009 18.1602 39.2068 16.4593 40.8701C15.7145 41.5984 14.9491 42.5594 14.2104 43.5269C13.6049 44.3201 13.1626 44.8289 12.6634 45.7217C12.3247 46.3272 12.5637 46.1792 12.0443 46.3726ZM36.8656 30.8053C37.4681 31.541 39.242 33.1361 39.3623 34.0303C37.3778 32.7627 35.4723 30.1471 33.8155 28.2975C32.2272 26.524 29.9442 25.0508 27.4474 24.7555L26.308 24.4988C29.1179 22.822 33.0399 26.1649 34.2348 27.4931C35.2133 28.581 36 29.7485 36.8656 30.8053ZM55.6731 40.942C55.8869 42.058 52.3679 40.4727 51.6444 40.199C46.9946 38.4402 47.7142 38.4414 44.1981 36.0051C40.4852 33.4324 37.301 29.101 33.9367 25.9848C31.3766 23.6136 29.5172 23.626 28.3291 23.0748C31.5726 21.5355 35.1211 23.4613 37.0855 24.9059C39.4618 26.6532 41.306 28.4272 43.1516 30.3438C48.4825 35.8808 47.7386 35.7109 53.9971 39.7852C54.5281 40.131 55.6172 40.6509 55.6731 40.942ZM69.4333 46.543C68.9367 46.4947 68.8485 46.3665 68.5727 46.178C68.5649 45.8878 68.5556 45.7657 68.6145 45.4686C68.6632 45.2234 68.593 45.5433 68.693 45.1966L69.0002 44.982C69.0301 44.9777 69.2626 44.9346 69.3038 44.9226C69.9858 44.8184 70.5579 44.862 71.1576 44.9356C71.8624 45.0221 72.2799 45.2564 72.8667 45.225C72.9047 44.5666 72.1639 43.8206 71.8091 43.5811C71.4133 43.314 70.2349 43.103 69.6404 43.0264C69.5284 41.5122 71.8332 42.0822 72.1943 40.5583C72.2769 40.2097 72.275 40.0909 71.8802 40.0574C71.6547 40.0385 71.8516 40.0286 71.5956 40.0861C71.4954 40.1086 71.2164 40.2348 71.0235 40.2838C70.5673 40.3996 70.2106 40.3475 69.7345 40.4202C68.3651 40.6296 68.7802 41.199 67.5824 40.4357C67.4377 38.6006 68.4252 37.1413 68.1701 34.8005C67.941 32.7004 66.964 31.9738 65.5753 31.2145C64.0522 30.382 63.9042 28.6454 64.4417 26.6703C65.1277 24.1492 67.3524 23.7466 66.5546 22.8976C65.7149 22.0043 62.9373 25.3189 63.3016 23.338C63.3201 23.2369 63.4144 22.9746 63.4579 22.8515C64.2546 20.5989 65.8641 19.0053 68.4029 18.5029C71.9787 17.7954 74.4245 17.8342 77.5838 19.2548C81.4166 20.9784 83.9932 23.3211 86.7225 26.2597C88.3004 27.9584 88.3414 28.9874 89.4049 28.7046C89.8105 25.1433 84.8059 19.7812 81.644 17.7824C81.0625 17.4148 80.3999 17.2874 80.4549 16.4451C81.2582 16.3542 83.3512 17.2679 84.0407 17.5908C85.1061 18.0899 86.0023 19.0758 86.7122 19.6996C88.0038 20.8348 90.1628 23.7702 90.6584 25.2832C91.4723 27.7682 91.4614 31.1159 90.8785 33.7513C90.4922 35.4992 90.274 35.8749 89.4585 37.1268C86.6263 41.4741 86.6855 38.5799 87.5877 37.5878C90.7624 34.0957 90.5646 31.1352 88.1991 33.815C86.3243 35.939 85.4451 36.0774 83.5044 33.4302C83.9474 32.0227 83.9102 32.3697 82.4529 31.5462C82.0577 31.3227 81.8227 31.0039 81.2117 30.9835C80.6386 30.9645 80.2923 31.1905 80.316 31.7502C80.3599 32.7774 82.7486 34.5317 83.2763 35.6203C83.8609 36.8262 83.5237 40.2838 83.5393 41.9389C83.5649 44.6709 84.2 45.6512 82.5454 47.5238C81.0071 49.2652 76.6056 51.5779 73.3442 52.0313C71.5606 52.2794 68.9878 51.8662 68.4393 50.2612C67.5467 47.6495 71.5062 48.6098 72.1377 47.2245C71.8857 46.1654 70.5515 46.7445 69.4333 46.543Z" fill="#672C1D"/>
</svg>
