<svg width="19" height="19" viewBox="0 0 19 19" fill="none" xmlns="http://www.w3.org/2000/svg">
<path d="M16.6249 16.6252L13.1867 13.187M13.1867 13.187C13.7748 12.5988 14.2414 11.9006 14.5596 11.1322C14.8779 10.3638 15.0417 9.54022 15.0417 8.7085C15.0417 7.87677 14.8779 7.05319 14.5596 6.28477C14.2414 5.51636 13.7748 4.81816 13.1867 4.23004C12.5986 3.64192 11.9004 3.1754 11.132 2.85711C10.3636 2.53882 9.53998 2.375 8.70825 2.375C7.87653 2.375 7.05294 2.53882 6.28453 2.85711C5.51611 3.1754 4.81791 3.64192 4.22979 4.23004C3.04203 5.4178 2.37476 7.02875 2.37476 8.7085C2.37476 10.3882 3.04203 11.9992 4.22979 13.187C5.41755 14.3747 7.0285 15.042 8.70825 15.042C10.388 15.042 11.9989 14.3747 13.1867 13.187Z" stroke="#672C1D" stroke-width="2" stroke-linecap="round" stroke-linejoin="round"/>
</svg>
